<svg width="52" height="52" viewBox="0 0 52 52" fill="none" xmlns="http://www.w3.org/2000/svg">
<rect width="52" height="52" fill="#735CE6"/>
<path fill-rule="evenodd" clip-rule="evenodd" d="M41.1214 29.5534H41.1127C41.0011 33.4117 39.3681 37.0761 36.5591 39.772C33.75 42.4679 29.9851 43.9841 26.06 43.9999C17.7104 44.0327 10.7627 37.4015 10.8801 29.1913C10.9888 21.6725 16.2159 18.0268 21.6391 17.1234C24.1061 16.7122 26.9695 17.0116 29.4633 17.0087C29.4687 21.2524 26.5952 23.5832 23.768 24.4281C21.9286 24.9776 19.8632 26.7119 20.1527 29.9336C20.1584 31.3167 20.7225 32.641 21.721 33.6151C22.7195 34.5892 24.0706 35.1334 25.4771 35.1278C26.8836 35.1223 28.2303 34.5676 29.2209 33.5856C30.2115 32.6037 30.7648 31.275 30.7592 29.8919C30.7592 29.7918 30.7548 29.6927 30.749 29.5944H30.758L30.7917 16.9581C31.0414 14.2734 33.4324 8.04704 41.0333 8L41.1192 29.072L41.1214 29.5534Z" fill="white"/>
</svg>
