<svg width="380" height="129" viewBox="0 0 380 129" fill="none" xmlns="http://www.w3.org/2000/svg">
<path fill-rule="evenodd" clip-rule="evenodd" d="M210 29.2715H209.989C209.826 34.4215 207.653 39.307 203.927 42.8954C200.201 46.4837 195.216 48.4935 190.024 48.5C178.981 48.5128 169.816 39.6352 170.003 28.676C170.173 18.6391 177.103 13.7919 184.279 12.6061C187.544 12.0666 191.33 12.4772 194.628 12.4819C194.619 18.1473 190.809 21.2478 187.067 22.3651C184.632 23.092 181.894 25.3995 182.264 29.7011C182.282 31.5376 183.029 33.2929 184.345 34.5847C185.66 35.8765 187.437 36.6001 189.287 36.5979C191.138 36.5957 192.912 35.8679 194.225 34.573C195.537 33.2781 196.281 31.521 196.293 29.6844C196.293 29.5512 196.289 29.419 196.281 29.2877H196.293L196.386 12.4201C196.726 8.83725 199.912 0.534725 209.966 0.5L209.999 28.6294L210 29.2715Z" fill="#0D6CF2"/>
<rect width="380" height="64" transform="translate(0 64.5)" fill="white" fill-opacity="0.01"/>
<path d="M129.324 79.7727H123.716C123.676 79.3087 123.57 78.8878 123.398 78.5099C123.232 78.1321 123 77.8073 122.702 77.5355C122.41 77.2571 122.055 77.045 121.638 76.8991C121.22 76.7467 120.746 76.6705 120.216 76.6705C119.288 76.6705 118.502 76.8958 117.859 77.3466C117.223 77.7973 116.739 78.4437 116.408 79.2855C116.083 80.1274 115.92 81.1383 115.92 82.3182C115.92 83.5644 116.086 84.6084 116.418 85.4503C116.756 86.2855 117.243 86.9152 117.879 87.3395C118.516 87.7571 119.281 87.9659 120.176 87.9659C120.687 87.9659 121.144 87.9029 121.548 87.777C121.953 87.6444 122.304 87.4555 122.602 87.2102C122.901 86.965 123.143 86.67 123.328 86.3253C123.52 85.974 123.65 85.5795 123.716 85.142L129.324 85.1818C129.258 86.0436 129.016 86.9219 128.598 87.8168C128.18 88.705 127.587 89.527 126.818 90.2827C126.056 91.0317 125.111 91.6349 123.984 92.0923C122.857 92.5497 121.548 92.7784 120.057 92.7784C118.188 92.7784 116.51 92.3774 115.026 91.5753C113.547 90.7732 112.377 89.5933 111.516 88.0355C110.661 86.4777 110.233 84.572 110.233 82.3182C110.233 80.0511 110.67 78.142 111.545 76.5909C112.42 75.0331 113.6 73.8565 115.085 73.0611C116.57 72.259 118.227 71.858 120.057 71.858C121.343 71.858 122.526 72.0336 123.607 72.3849C124.687 72.7363 125.635 73.25 126.45 73.9261C127.266 74.5956 127.922 75.4209 128.419 76.402C128.916 77.383 129.218 78.5066 129.324 79.7727ZM132.412 92.5V77.2273H137.741V80.1307H137.9C138.179 79.0568 138.619 78.2713 139.223 77.7741C139.833 77.277 140.545 77.0284 141.36 77.0284C141.599 77.0284 141.834 77.0483 142.066 77.0881C142.305 77.1212 142.534 77.1709 142.752 77.2372V81.9205C142.481 81.8277 142.146 81.758 141.748 81.7116C141.35 81.6652 141.009 81.642 140.724 81.642C140.187 81.642 139.703 81.7647 139.272 82.0099C138.848 82.2486 138.513 82.5866 138.268 83.0241C138.023 83.455 137.9 83.9621 137.9 84.5455V92.5H132.412ZM145.052 92.5V77.2273H150.541V92.5H145.052ZM147.797 75.6364C147.054 75.6364 146.418 75.3911 145.887 74.9006C145.357 74.41 145.092 73.8201 145.092 73.1307C145.092 72.4413 145.357 71.8513 145.887 71.3608C146.418 70.8703 147.054 70.625 147.797 70.625C148.546 70.625 149.182 70.8703 149.706 71.3608C150.236 71.8513 150.501 72.4413 150.501 73.1307C150.501 73.8201 150.236 74.41 149.706 74.9006C149.182 75.3911 148.546 75.6364 147.797 75.6364ZM158.093 92.7386C157.119 92.7386 156.257 92.5795 155.508 92.2614C154.765 91.9366 154.182 91.446 153.758 90.7898C153.334 90.1335 153.121 89.2983 153.121 88.2841C153.121 87.4489 153.264 86.7363 153.549 86.1463C153.834 85.5497 154.232 85.0625 154.742 84.6847C155.253 84.3068 155.846 84.0185 156.522 83.8196C157.205 83.6207 157.941 83.4915 158.729 83.4318C159.585 83.3655 160.271 83.286 160.788 83.1932C161.311 83.0937 161.689 82.9579 161.921 82.7855C162.153 82.6065 162.269 82.3712 162.269 82.0795V82.0398C162.269 81.642 162.117 81.3371 161.812 81.125C161.507 80.9129 161.116 80.8068 160.638 80.8068C160.115 80.8068 159.687 80.9228 159.356 81.1548C159.031 81.3802 158.835 81.7282 158.769 82.1989H153.718C153.784 81.2708 154.079 80.4157 154.603 79.6335C155.133 78.8447 155.906 78.215 156.92 77.7443C157.934 77.267 159.2 77.0284 160.718 77.0284C161.812 77.0284 162.793 77.1577 163.661 77.4162C164.53 77.6681 165.269 78.0227 165.879 78.4801C166.488 78.9309 166.952 79.4612 167.271 80.071C167.595 80.6742 167.758 81.3305 167.758 82.0398V92.5H162.627V90.3523H162.508C162.203 90.9223 161.832 91.383 161.394 91.7344C160.963 92.0857 160.469 92.3409 159.913 92.5C159.362 92.6591 158.756 92.7386 158.093 92.7386ZM159.883 89.2784C160.3 89.2784 160.692 89.1922 161.056 89.0199C161.427 88.8475 161.729 88.599 161.961 88.2741C162.193 87.9493 162.309 87.5549 162.309 87.0909V85.8182C162.163 85.8778 162.007 85.9342 161.842 85.9872C161.683 86.0402 161.51 86.09 161.325 86.1364C161.146 86.1828 160.953 86.2259 160.748 86.2656C160.549 86.3054 160.34 86.3419 160.121 86.375C159.697 86.4413 159.349 86.5507 159.077 86.7031C158.812 86.849 158.613 87.0312 158.481 87.25C158.355 87.4621 158.292 87.7008 158.292 87.9659C158.292 88.3902 158.441 88.715 158.739 88.9403C159.038 89.1657 159.419 89.2784 159.883 89.2784ZM170.88 92.5V77.2273H176.21V80.1307H176.369C176.647 79.0568 177.088 78.2713 177.691 77.7741C178.301 77.277 179.014 77.0284 179.829 77.0284C180.068 77.0284 180.303 77.0483 180.535 77.0881C180.774 77.1212 181.002 77.1709 181.221 77.2372V81.9205C180.949 81.8277 180.615 81.758 180.217 81.7116C179.819 81.6652 179.478 81.642 179.193 81.642C178.656 81.642 178.172 81.7647 177.741 82.0099C177.317 82.2486 176.982 82.5866 176.737 83.0241C176.492 83.455 176.369 83.9621 176.369 84.5455V92.5H170.88ZM196.957 92.7784C195.3 92.7784 193.881 92.4503 192.701 91.794C191.521 91.1312 190.617 90.2098 189.987 89.0298C189.357 87.8433 189.042 86.4678 189.042 84.9034C189.042 83.339 189.357 81.9669 189.987 80.7869C190.617 79.6004 191.521 78.679 192.701 78.0227C193.881 77.3598 195.3 77.0284 196.957 77.0284C198.455 77.0284 199.751 77.3002 200.845 77.8438C201.945 78.3807 202.797 79.143 203.4 80.1307C204.003 81.1117 204.308 82.2652 204.315 83.5909H199.224C199.151 82.7888 198.919 82.179 198.528 81.7614C198.144 81.3371 197.646 81.125 197.037 81.125C196.559 81.125 196.142 81.2642 195.784 81.5426C195.426 81.8144 195.147 82.2287 194.949 82.7855C194.75 83.3357 194.65 84.0284 194.65 84.8636C194.65 85.6989 194.75 86.3949 194.949 86.9517C195.147 87.5019 195.426 87.9162 195.784 88.1946C196.142 88.4664 196.559 88.6023 197.037 88.6023C197.441 88.6023 197.799 88.5095 198.11 88.3239C198.422 88.1316 198.674 87.8532 198.866 87.4886C199.065 87.1174 199.184 86.6667 199.224 86.1364H204.315C204.295 87.482 203.987 88.6553 203.39 89.6562C202.794 90.6506 201.949 91.4195 200.855 91.9631C199.768 92.5066 198.468 92.7784 196.957 92.7784ZM214.438 92.7784C212.78 92.7784 211.362 92.4503 210.182 91.794C209.002 91.1312 208.097 90.2098 207.467 89.0298C206.838 87.8433 206.523 86.4678 206.523 84.9034C206.523 83.339 206.838 81.9669 207.467 80.7869C208.097 79.6004 209.002 78.679 210.182 78.0227C211.362 77.3598 212.78 77.0284 214.438 77.0284C216.095 77.0284 217.513 77.3598 218.693 78.0227C219.873 78.679 220.778 79.6004 221.408 80.7869C222.037 81.9669 222.352 83.339 222.352 84.9034C222.352 86.4678 222.037 87.8433 221.408 89.0298C220.778 90.2098 219.873 91.1312 218.693 91.794C217.513 92.4503 216.095 92.7784 214.438 92.7784ZM214.477 88.7216C214.941 88.7216 215.342 88.5658 215.68 88.2543C216.018 87.9427 216.28 87.4986 216.466 86.9219C216.652 86.3452 216.744 85.6591 216.744 84.8636C216.744 84.0616 216.652 83.3755 216.466 82.8054C216.28 82.2287 216.018 81.7846 215.68 81.473C215.342 81.1615 214.941 81.0057 214.477 81.0057C213.987 81.0057 213.566 81.1615 213.214 81.473C212.863 81.7846 212.595 82.2287 212.409 82.8054C212.223 83.3755 212.131 84.0616 212.131 84.8636C212.131 85.6591 212.223 86.3452 212.409 86.9219C212.595 87.4986 212.863 87.9427 213.214 88.2543C213.566 88.5658 213.987 88.7216 214.477 88.7216ZM230.568 83.9091V92.5H225.08V77.2273H230.29V80.1307H230.449C230.78 79.1629 231.364 78.4039 232.199 77.8537C233.041 77.3035 234.022 77.0284 235.142 77.0284C236.223 77.0284 237.161 77.277 237.956 77.7741C238.758 78.2647 239.378 78.9408 239.815 79.8026C240.259 80.6643 240.478 81.6487 240.472 82.7557V92.5H234.983V83.9091C234.99 83.1534 234.797 82.5601 234.406 82.1293C234.022 81.6984 233.485 81.483 232.795 81.483C232.345 81.483 231.95 81.5824 231.612 81.7812C231.281 81.9735 231.026 82.2519 230.847 82.6165C230.668 82.9744 230.575 83.4053 230.568 83.9091ZM252.789 77.2273V81.2045H242.727V77.2273H252.789ZM244.675 73.5682H250.164V87.5881C250.164 87.8002 250.201 87.9792 250.273 88.125C250.346 88.2642 250.459 88.3703 250.612 88.4432C250.764 88.5095 250.96 88.5426 251.198 88.5426C251.364 88.5426 251.556 88.5227 251.775 88.483C252 88.4432 252.166 88.41 252.272 88.3835L253.067 92.2415C252.822 92.3144 252.471 92.4039 252.013 92.5099C251.563 92.616 251.026 92.6856 250.403 92.7188C249.143 92.785 248.086 92.6558 247.231 92.331C246.376 91.9995 245.733 91.4792 245.302 90.7699C244.871 90.0606 244.662 89.1723 244.675 88.1051V73.5682ZM259.784 92.7386C258.81 92.7386 257.948 92.5795 257.199 92.2614C256.457 91.9366 255.873 91.446 255.449 90.7898C255.025 90.1335 254.813 89.2983 254.813 88.2841C254.813 87.4489 254.955 86.7363 255.24 86.1463C255.525 85.5497 255.923 85.0625 256.434 84.6847C256.944 84.3068 257.537 84.0185 258.213 83.8196C258.896 83.6207 259.632 83.4915 260.421 83.4318C261.276 83.3655 261.962 83.286 262.479 83.1932C263.003 83.0937 263.381 82.9579 263.613 82.7855C263.845 82.6065 263.961 82.3712 263.961 82.0795V82.0398C263.961 81.642 263.808 81.3371 263.503 81.125C263.198 80.9129 262.807 80.8068 262.33 80.8068C261.806 80.8068 261.379 80.9228 261.047 81.1548C260.722 81.3802 260.527 81.7282 260.461 82.1989H255.409C255.476 81.2708 255.771 80.4157 256.294 79.6335C256.825 78.8447 257.597 78.215 258.611 77.7443C259.625 77.267 260.891 77.0284 262.409 77.0284C263.503 77.0284 264.484 77.1577 265.353 77.4162C266.221 77.6681 266.96 78.0227 267.57 78.4801C268.18 78.9309 268.644 79.4612 268.962 80.071C269.287 80.6742 269.449 81.3305 269.449 82.0398V92.5H264.319V90.3523H264.199C263.894 90.9223 263.523 91.383 263.086 91.7344C262.655 92.0857 262.161 92.3409 261.604 92.5C261.054 92.6591 260.447 92.7386 259.784 92.7386ZM261.574 89.2784C261.992 89.2784 262.383 89.1922 262.748 89.0199C263.119 88.8475 263.42 88.599 263.652 88.2741C263.884 87.9493 264 87.5549 264 87.0909V85.8182C263.855 85.8778 263.699 85.9342 263.533 85.9872C263.374 86.0402 263.202 86.09 263.016 86.1364C262.837 86.1828 262.645 86.2259 262.439 86.2656C262.24 86.3054 262.032 86.3419 261.813 86.375C261.389 86.4413 261.041 86.5507 260.769 86.7031C260.504 86.849 260.305 87.0312 260.172 87.25C260.046 87.4621 259.983 87.7008 259.983 87.9659C259.983 88.3902 260.132 88.715 260.431 88.9403C260.729 89.1657 261.11 89.2784 261.574 89.2784Z" fill="#0D6CF2"/>
<path d="M52.4261 116.5H51.1932C51.1203 116.145 50.9927 115.834 50.8104 115.565C50.6314 115.297 50.4126 115.071 50.1541 114.889C49.8989 114.704 49.6155 114.564 49.304 114.472C48.9924 114.379 48.6676 114.332 48.3295 114.332C47.7131 114.332 47.1546 114.488 46.6541 114.8C46.157 115.111 45.7609 115.57 45.4659 116.177C45.1742 116.783 45.0284 117.527 45.0284 118.409C45.0284 119.291 45.1742 120.035 45.4659 120.641C45.7609 121.248 46.157 121.707 46.6541 122.018C47.1546 122.33 47.7131 122.486 48.3295 122.486C48.6676 122.486 48.9924 122.439 49.304 122.347C49.6155 122.254 49.8989 122.116 50.1541 121.934C50.4126 121.748 50.6314 121.521 50.8104 121.253C50.9927 120.981 51.1203 120.67 51.1932 120.318H52.4261C52.3333 120.839 52.1643 121.304 51.919 121.715C51.6738 122.126 51.3688 122.476 51.0043 122.764C50.6397 123.049 50.2304 123.266 49.7763 123.415C49.3255 123.565 48.8433 123.639 48.3295 123.639C47.4612 123.639 46.6889 123.427 46.0128 123.003C45.3366 122.579 44.8047 121.975 44.4169 121.193C44.0291 120.411 43.8352 119.483 43.8352 118.409C43.8352 117.335 44.0291 116.407 44.4169 115.625C44.8047 114.843 45.3366 114.24 46.0128 113.815C46.6889 113.391 47.4612 113.179 48.3295 113.179C48.8433 113.179 49.3255 113.254 49.7763 113.403C50.2304 113.552 50.6397 113.771 51.0043 114.059C51.3688 114.344 51.6738 114.692 51.919 115.103C52.1643 115.511 52.3333 115.976 52.4261 116.5ZM54.2594 123.5V115.864H55.3929V117.017H55.4725C55.6117 116.639 55.8636 116.333 56.2282 116.097C56.5927 115.862 57.0037 115.744 57.4611 115.744C57.5473 115.744 57.655 115.746 57.7843 115.749C57.9135 115.753 58.0113 115.758 58.0776 115.764V116.957C58.0378 116.947 57.9467 116.933 57.8042 116.913C57.665 116.889 57.5175 116.878 57.3617 116.878C56.9905 116.878 56.659 116.956 56.3674 117.112C56.079 117.264 55.8503 117.476 55.6813 117.748C55.5156 118.016 55.4327 118.323 55.4327 118.668V123.5H54.2594ZM59.4684 123.5V115.864H60.6417V123.5H59.4684ZM60.065 114.591C59.8363 114.591 59.6391 114.513 59.4734 114.357C59.311 114.201 59.2298 114.014 59.2298 113.795C59.2298 113.577 59.311 113.389 59.4734 113.234C59.6391 113.078 59.8363 113 60.065 113C60.2937 113 60.4892 113.078 60.6516 113.234C60.8174 113.389 60.9002 113.577 60.9002 113.795C60.9002 114.014 60.8174 114.201 60.6516 114.357C60.4892 114.513 60.2937 114.591 60.065 114.591ZM65.0378 123.679C64.5539 123.679 64.1148 123.588 63.7203 123.406C63.3259 123.22 63.0127 122.953 62.7807 122.605C62.5487 122.254 62.4327 121.83 62.4327 121.332C62.4327 120.895 62.5189 120.54 62.6912 120.268C62.8636 119.993 63.0939 119.778 63.3823 119.622C63.6706 119.466 63.9888 119.35 64.3368 119.274C64.6882 119.195 65.0411 119.132 65.3958 119.085C65.8598 119.026 66.236 118.981 66.5243 118.951C66.816 118.918 67.0281 118.863 67.1607 118.787C67.2966 118.711 67.3645 118.578 67.3645 118.389V118.349C67.3645 117.859 67.2303 117.478 66.9618 117.206C66.6967 116.934 66.294 116.798 65.7537 116.798C65.1936 116.798 64.7544 116.921 64.4363 117.166C64.1181 117.411 63.8944 117.673 63.7651 117.952L62.6515 117.554C62.8503 117.09 63.1155 116.729 63.4469 116.47C63.7817 116.208 64.1462 116.026 64.5407 115.923C64.9384 115.817 65.3295 115.764 65.714 115.764C65.9592 115.764 66.2409 115.794 66.5591 115.854C66.8806 115.91 67.1905 116.028 67.4888 116.207C67.7904 116.386 68.0407 116.656 68.2395 117.017C68.4384 117.378 68.5378 117.862 68.5378 118.469V123.5H67.3645V122.466H67.3049C67.2253 122.632 67.0927 122.809 66.9071 122.998C66.7215 123.187 66.4746 123.348 66.1664 123.48C65.8581 123.613 65.4819 123.679 65.0378 123.679ZM65.2168 122.625C65.6808 122.625 66.0719 122.534 66.3901 122.352C66.7116 122.169 66.9535 121.934 67.1159 121.646C67.2817 121.357 67.3645 121.054 67.3645 120.736V119.662C67.3148 119.722 67.2054 119.776 67.0364 119.826C66.8707 119.872 66.6784 119.914 66.4597 119.95C66.2443 119.983 66.0338 120.013 65.8283 120.04C65.6261 120.063 65.4621 120.083 65.3361 120.099C65.0312 120.139 64.7462 120.204 64.481 120.293C64.2192 120.379 64.007 120.51 63.8446 120.686C63.6855 120.858 63.606 121.094 63.606 121.392C63.606 121.8 63.7568 122.108 64.0584 122.317C64.3633 122.522 64.7495 122.625 65.2168 122.625ZM80.0259 117.574L78.9719 117.872C78.9057 117.696 78.8079 117.526 78.6786 117.36C78.5527 117.191 78.3803 117.052 78.1616 116.942C77.9428 116.833 77.6628 116.778 77.3214 116.778C76.854 116.778 76.4646 116.886 76.1531 117.102C75.8448 117.314 75.6907 117.584 75.6907 117.912C75.6907 118.204 75.7968 118.434 76.0089 118.603C76.221 118.772 76.5524 118.913 77.0032 119.026L78.1367 119.304C78.8195 119.47 79.3282 119.723 79.663 120.065C79.9978 120.403 80.1651 120.839 80.1651 121.372C80.1651 121.81 80.0392 122.201 79.7873 122.545C79.5387 122.89 79.1907 123.162 78.7433 123.361C78.2958 123.56 77.7754 123.659 77.1822 123.659C76.4033 123.659 75.7586 123.49 75.2482 123.152C74.7378 122.814 74.4147 122.32 74.2788 121.67L75.3924 121.392C75.4985 121.803 75.699 122.111 75.994 122.317C76.2923 122.522 76.6817 122.625 77.1623 122.625C77.7092 122.625 78.1433 122.509 78.4648 122.277C78.7897 122.042 78.9521 121.76 78.9521 121.432C78.9521 121.167 78.8593 120.945 78.6737 120.766C78.488 120.583 78.203 120.447 77.8185 120.358L76.5458 120.06C75.8465 119.894 75.3327 119.637 75.0046 119.289C74.6798 118.938 74.5174 118.499 74.5174 117.972C74.5174 117.541 74.6384 117.16 74.8803 116.828C75.1256 116.497 75.4587 116.237 75.8796 116.048C76.3039 115.859 76.7844 115.764 77.3214 115.764C78.0771 115.764 78.6703 115.93 79.1012 116.261C79.5354 116.593 79.8436 117.03 80.0259 117.574ZM86.7438 120.378V115.864H87.9171V123.5H86.7438V122.207H86.6642C86.4853 122.595 86.2069 122.925 85.829 123.197C85.4512 123.465 84.9739 123.599 84.3972 123.599C83.9199 123.599 83.4957 123.495 83.1245 123.286C82.7533 123.074 82.4616 122.756 82.2495 122.332C82.0373 121.904 81.9313 121.366 81.9313 120.716V115.864H83.1046V120.636C83.1046 121.193 83.2604 121.637 83.5719 121.969C83.8868 122.3 84.2878 122.466 84.775 122.466C85.0667 122.466 85.3633 122.391 85.665 122.242C85.9699 122.093 86.2251 121.864 86.4306 121.556C86.6394 121.248 86.7438 120.855 86.7438 120.378ZM92.3132 123.679C91.8293 123.679 91.3902 123.588 90.9957 123.406C90.6013 123.22 90.2881 122.953 90.0561 122.605C89.8241 122.254 89.7081 121.83 89.7081 121.332C89.7081 120.895 89.7943 120.54 89.9666 120.268C90.139 119.993 90.3693 119.778 90.6577 119.622C90.946 119.466 91.2642 119.35 91.6122 119.274C91.9635 119.195 92.3165 119.132 92.6712 119.085C93.1352 119.026 93.5114 118.981 93.7997 118.951C94.0914 118.918 94.3035 118.863 94.4361 118.787C94.572 118.711 94.6399 118.578 94.6399 118.389V118.349C94.6399 117.859 94.5057 117.478 94.2372 117.206C93.9721 116.934 93.5694 116.798 93.0291 116.798C92.469 116.798 92.0298 116.921 91.7116 117.166C91.3935 117.411 91.1697 117.673 91.0405 117.952L89.9268 117.554C90.1257 117.09 90.3909 116.729 90.7223 116.47C91.0571 116.208 91.4216 116.026 91.8161 115.923C92.2138 115.817 92.6049 115.764 92.9893 115.764C93.2346 115.764 93.5163 115.794 93.8345 115.854C94.156 115.91 94.4659 116.028 94.7642 116.207C95.0658 116.386 95.3161 116.656 95.5149 117.017C95.7138 117.378 95.8132 117.862 95.8132 118.469V123.5H94.6399V122.466H94.5803C94.5007 122.632 94.3681 122.809 94.1825 122.998C93.9969 123.187 93.75 123.348 93.4418 123.48C93.1335 123.613 92.7573 123.679 92.3132 123.679ZM92.4922 122.625C92.9562 122.625 93.3473 122.534 93.6655 122.352C93.987 122.169 94.2289 121.934 94.3913 121.646C94.5571 121.357 94.6399 121.054 94.6399 120.736V119.662C94.5902 119.722 94.4808 119.776 94.3118 119.826C94.1461 119.872 93.9538 119.914 93.7351 119.95C93.5196 119.983 93.3092 120.013 93.1037 120.04C92.9015 120.063 92.7375 120.083 92.6115 120.099C92.3066 120.139 92.0215 120.204 91.7564 120.293C91.4946 120.379 91.2824 120.51 91.12 120.686C90.9609 120.858 90.8814 121.094 90.8814 121.392C90.8814 121.8 91.0322 122.108 91.3338 122.317C91.6387 122.522 92.0249 122.625 92.4922 122.625ZM104.994 123.659C104.279 123.659 103.662 123.49 103.145 123.152C102.628 122.814 102.23 122.348 101.952 121.755C101.673 121.162 101.534 120.484 101.534 119.722C101.534 118.946 101.677 118.262 101.962 117.668C102.25 117.072 102.651 116.606 103.165 116.271C103.682 115.933 104.285 115.764 104.975 115.764C105.512 115.764 105.995 115.864 106.426 116.062C106.857 116.261 107.21 116.54 107.485 116.898C107.76 117.256 107.931 117.673 107.997 118.151H106.824C106.735 117.803 106.536 117.494 106.227 117.226C105.923 116.954 105.512 116.818 104.994 116.818C104.537 116.818 104.136 116.937 103.791 117.176C103.45 117.411 103.183 117.745 102.991 118.175C102.802 118.603 102.708 119.105 102.708 119.682C102.708 120.272 102.8 120.786 102.986 121.223C103.175 121.661 103.44 122 103.781 122.242C104.126 122.484 104.53 122.605 104.994 122.605C105.299 122.605 105.576 122.552 105.825 122.446C106.073 122.34 106.284 122.188 106.456 121.989C106.628 121.79 106.751 121.551 106.824 121.273H107.997C107.931 121.723 107.767 122.129 107.505 122.491C107.247 122.849 106.904 123.134 106.476 123.346C106.052 123.555 105.558 123.659 104.994 123.659ZM112.815 123.659C112.125 123.659 111.521 123.495 111 123.167C110.483 122.839 110.079 122.38 109.787 121.79C109.499 121.2 109.355 120.51 109.355 119.722C109.355 118.926 109.499 118.232 109.787 117.638C110.079 117.045 110.483 116.585 111 116.256C111.521 115.928 112.125 115.764 112.815 115.764C113.504 115.764 114.107 115.928 114.624 116.256C115.145 116.585 115.549 117.045 115.838 117.638C116.129 118.232 116.275 118.926 116.275 119.722C116.275 120.51 116.129 121.2 115.838 121.79C115.549 122.38 115.145 122.839 114.624 123.167C114.107 123.495 113.504 123.659 112.815 123.659ZM112.815 122.605C113.338 122.605 113.769 122.471 114.107 122.202C114.445 121.934 114.696 121.581 114.858 121.143C115.021 120.706 115.102 120.232 115.102 119.722C115.102 119.211 115.021 118.736 114.858 118.295C114.696 117.854 114.445 117.498 114.107 117.226C113.769 116.954 113.338 116.818 112.815 116.818C112.291 116.818 111.86 116.954 111.522 117.226C111.184 117.498 110.934 117.854 110.771 118.295C110.609 118.736 110.528 119.211 110.528 119.722C110.528 120.232 110.609 120.706 110.771 121.143C110.934 121.581 111.184 121.934 111.522 122.202C111.86 122.471 112.291 122.605 112.815 122.605ZM119.239 118.906V123.5H118.066V115.864H119.2V117.057H119.299C119.478 116.669 119.75 116.357 120.114 116.122C120.479 115.884 120.95 115.764 121.526 115.764C122.043 115.764 122.496 115.87 122.884 116.082C123.271 116.291 123.573 116.609 123.788 117.037C124.004 117.461 124.112 117.998 124.112 118.648V123.5H122.938V118.727C122.938 118.127 122.782 117.66 122.471 117.325C122.159 116.987 121.732 116.818 121.188 116.818C120.814 116.818 120.479 116.899 120.184 117.062C119.892 117.224 119.662 117.461 119.493 117.773C119.324 118.084 119.239 118.462 119.239 118.906ZM129.577 115.864V116.858H125.619V115.864H129.577ZM126.773 114.034H127.946V121.312C127.946 121.644 127.994 121.893 128.09 122.058C128.189 122.221 128.315 122.33 128.468 122.386C128.624 122.439 128.788 122.466 128.96 122.466C129.089 122.466 129.195 122.459 129.278 122.446C129.361 122.429 129.427 122.416 129.477 122.406L129.716 123.46C129.636 123.49 129.525 123.52 129.383 123.55C129.24 123.583 129.059 123.599 128.841 123.599C128.509 123.599 128.184 123.528 127.866 123.386C127.551 123.243 127.29 123.026 127.081 122.734C126.875 122.443 126.773 122.075 126.773 121.631V114.034ZM133.589 123.679C133.105 123.679 132.666 123.588 132.271 123.406C131.877 123.22 131.564 122.953 131.331 122.605C131.099 122.254 130.983 121.83 130.983 121.332C130.983 120.895 131.07 120.54 131.242 120.268C131.414 119.993 131.645 119.778 131.933 119.622C132.221 119.466 132.54 119.35 132.888 119.274C133.239 119.195 133.592 119.132 133.947 119.085C134.411 119.026 134.787 118.981 135.075 118.951C135.367 118.918 135.579 118.863 135.711 118.787C135.847 118.711 135.915 118.578 135.915 118.389V118.349C135.915 117.859 135.781 117.478 135.513 117.206C135.247 116.934 134.845 116.798 134.305 116.798C133.744 116.798 133.305 116.921 132.987 117.166C132.669 117.411 132.445 117.673 132.316 117.952L131.202 117.554C131.401 117.09 131.666 116.729 131.998 116.47C132.332 116.208 132.697 116.026 133.091 115.923C133.489 115.817 133.88 115.764 134.265 115.764C134.51 115.764 134.792 115.794 135.11 115.854C135.431 115.91 135.741 116.028 136.04 116.207C136.341 116.386 136.591 116.656 136.79 117.017C136.989 117.378 137.089 117.862 137.089 118.469V123.5H135.915V122.466H135.856C135.776 122.632 135.644 122.809 135.458 122.998C135.272 123.187 135.025 123.348 134.717 123.48C134.409 123.613 134.033 123.679 133.589 123.679ZM133.768 122.625C134.232 122.625 134.623 122.534 134.941 122.352C135.262 122.169 135.504 121.934 135.667 121.646C135.832 121.357 135.915 121.054 135.915 120.736V119.662C135.866 119.722 135.756 119.776 135.587 119.826C135.421 119.872 135.229 119.914 135.01 119.95C134.795 119.983 134.585 120.013 134.379 120.04C134.177 120.063 134.013 120.083 133.887 120.099C133.582 120.139 133.297 120.204 133.032 120.293C132.77 120.379 132.558 120.51 132.395 120.686C132.236 120.858 132.157 121.094 132.157 121.392C132.157 121.8 132.308 122.108 132.609 122.317C132.914 122.522 133.3 122.625 133.768 122.625ZM146.369 123.659C145.634 123.659 144.999 123.497 144.465 123.172C143.935 122.844 143.526 122.386 143.237 121.8C142.952 121.21 142.81 120.524 142.81 119.741C142.81 118.959 142.952 118.27 143.237 117.673C143.526 117.073 143.927 116.606 144.44 116.271C144.957 115.933 145.561 115.764 146.25 115.764C146.648 115.764 147.04 115.83 147.428 115.963C147.816 116.096 148.169 116.311 148.487 116.609C148.805 116.904 149.059 117.295 149.248 117.783C149.437 118.27 149.531 118.87 149.531 119.582V120.08H143.645V119.065H148.338C148.338 118.634 148.252 118.25 148.08 117.912C147.911 117.574 147.669 117.307 147.354 117.112C147.042 116.916 146.674 116.818 146.25 116.818C145.783 116.818 145.378 116.934 145.037 117.166C144.699 117.395 144.439 117.693 144.256 118.061C144.074 118.429 143.983 118.823 143.983 119.244V119.92C143.983 120.497 144.082 120.986 144.281 121.387C144.483 121.785 144.763 122.088 145.121 122.297C145.479 122.502 145.895 122.605 146.369 122.605C146.678 122.605 146.956 122.562 147.205 122.476C147.456 122.386 147.674 122.254 147.856 122.078C148.038 121.899 148.179 121.677 148.278 121.412L149.412 121.73C149.293 122.115 149.092 122.453 148.81 122.744C148.529 123.033 148.181 123.258 147.766 123.42C147.352 123.58 146.886 123.659 146.369 123.659ZM158.137 123.659C157.501 123.659 156.939 123.498 156.452 123.177C155.964 122.852 155.583 122.395 155.308 121.805C155.033 121.211 154.896 120.51 154.896 119.702C154.896 118.9 155.033 118.204 155.308 117.614C155.583 117.024 155.966 116.568 156.457 116.246C156.947 115.925 157.514 115.764 158.157 115.764C158.654 115.764 159.047 115.847 159.335 116.013C159.627 116.175 159.849 116.361 160.001 116.57C160.157 116.775 160.278 116.944 160.364 117.077H160.464V113.318H161.637V123.5H160.504V122.327H160.364C160.278 122.466 160.156 122.642 159.996 122.854C159.837 123.062 159.61 123.25 159.315 123.415C159.02 123.578 158.628 123.659 158.137 123.659ZM158.296 122.605C158.767 122.605 159.165 122.482 159.489 122.237C159.814 121.989 160.061 121.646 160.23 121.208C160.399 120.767 160.484 120.259 160.484 119.682C160.484 119.112 160.401 118.613 160.235 118.185C160.069 117.754 159.824 117.42 159.499 117.181C159.174 116.939 158.773 116.818 158.296 116.818C157.799 116.818 157.385 116.946 157.053 117.201C156.725 117.453 156.478 117.796 156.312 118.23C156.15 118.661 156.069 119.145 156.069 119.682C156.069 120.225 156.152 120.719 156.317 121.163C156.487 121.604 156.735 121.955 157.063 122.217C157.395 122.476 157.806 122.605 158.296 122.605ZM167.151 123.659C166.415 123.659 165.78 123.497 165.246 123.172C164.716 122.844 164.307 122.386 164.018 121.8C163.733 121.21 163.591 120.524 163.591 119.741C163.591 118.959 163.733 118.27 164.018 117.673C164.307 117.073 164.708 116.606 165.222 116.271C165.739 115.933 166.342 115.764 167.031 115.764C167.429 115.764 167.822 115.83 168.21 115.963C168.597 116.096 168.95 116.311 169.268 116.609C169.587 116.904 169.84 117.295 170.029 117.783C170.218 118.27 170.312 118.87 170.312 119.582V120.08H164.426V119.065H169.119C169.119 118.634 169.033 118.25 168.861 117.912C168.692 117.574 168.45 117.307 168.135 117.112C167.823 116.916 167.455 116.818 167.031 116.818C166.564 116.818 166.16 116.934 165.818 117.166C165.48 117.395 165.22 117.693 165.038 118.061C164.855 118.429 164.764 118.823 164.764 119.244V119.92C164.764 120.497 164.864 120.986 165.062 121.387C165.265 121.785 165.545 122.088 165.903 122.297C166.261 122.502 166.677 122.605 167.151 122.605C167.459 122.605 167.737 122.562 167.986 122.476C168.238 122.386 168.455 122.254 168.637 122.078C168.819 121.899 168.96 121.677 169.06 121.412L170.193 121.73C170.074 122.115 169.873 122.453 169.592 122.744C169.31 123.033 168.962 123.258 168.548 123.42C168.133 123.58 167.668 123.659 167.151 123.659ZM177.506 117.574L176.452 117.872C176.386 117.696 176.288 117.526 176.159 117.36C176.033 117.191 175.861 117.052 175.642 116.942C175.423 116.833 175.143 116.778 174.802 116.778C174.335 116.778 173.945 116.886 173.634 117.102C173.325 117.314 173.171 117.584 173.171 117.912C173.171 118.204 173.277 118.434 173.489 118.603C173.701 118.772 174.033 118.913 174.484 119.026L175.617 119.304C176.3 119.47 176.809 119.723 177.143 120.065C177.478 120.403 177.646 120.839 177.646 121.372C177.646 121.81 177.52 122.201 177.268 122.545C177.019 122.89 176.671 123.162 176.224 123.361C175.776 123.56 175.256 123.659 174.663 123.659C173.884 123.659 173.239 123.49 172.729 123.152C172.218 122.814 171.895 122.32 171.759 121.67L172.873 121.392C172.979 121.803 173.179 122.111 173.474 122.317C173.773 122.522 174.162 122.625 174.643 122.625C175.19 122.625 175.624 122.509 175.945 122.277C176.27 122.042 176.433 121.76 176.433 121.432C176.433 121.167 176.34 120.945 176.154 120.766C175.969 120.583 175.683 120.447 175.299 120.358L174.026 120.06C173.327 119.894 172.813 119.637 172.485 119.289C172.16 118.938 171.998 118.499 171.998 117.972C171.998 117.541 172.119 117.16 172.361 116.828C172.606 116.497 172.939 116.237 173.36 116.048C173.784 115.859 174.265 115.764 174.802 115.764C175.558 115.764 176.151 115.93 176.582 116.261C177.016 116.593 177.324 117.03 177.506 117.574ZM182.812 115.864V116.858H178.696V115.864H182.812ZM179.929 123.5V114.81C179.929 114.372 180.032 114.008 180.237 113.716C180.443 113.424 180.709 113.205 181.037 113.06C181.366 112.914 181.712 112.841 182.077 112.841C182.365 112.841 182.6 112.864 182.782 112.911C182.965 112.957 183.101 113 183.19 113.04L182.852 114.054C182.792 114.034 182.71 114.009 182.604 113.979C182.501 113.95 182.365 113.935 182.196 113.935C181.808 113.935 181.528 114.032 181.356 114.228C181.187 114.424 181.102 114.71 181.102 115.088V123.5H179.929ZM184.457 123.5V115.864H185.59V117.017H185.67C185.809 116.639 186.061 116.333 186.425 116.097C186.79 115.862 187.201 115.744 187.658 115.744C187.745 115.744 187.852 115.746 187.982 115.749C188.111 115.753 188.209 115.758 188.275 115.764V116.957C188.235 116.947 188.144 116.933 188.001 116.913C187.862 116.889 187.715 116.878 187.559 116.878C187.188 116.878 186.856 116.956 186.565 117.112C186.276 117.264 186.048 117.476 185.879 117.748C185.713 118.016 185.63 118.323 185.63 118.668V123.5H184.457ZM194.478 120.378V115.864H195.651V123.5H194.478V122.207H194.399C194.22 122.595 193.941 122.925 193.563 123.197C193.186 123.465 192.708 123.599 192.132 123.599C191.654 123.599 191.23 123.495 190.859 123.286C190.488 123.074 190.196 122.756 189.984 122.332C189.772 121.904 189.666 121.366 189.666 120.716V115.864H190.839V120.636C190.839 121.193 190.995 121.637 191.306 121.969C191.621 122.3 192.022 122.466 192.509 122.466C192.801 122.466 193.098 122.391 193.399 122.242C193.704 122.093 193.959 121.864 194.165 121.556C194.374 121.248 194.478 120.855 194.478 120.378ZM201.121 115.864V116.858H197.164V115.864H201.121ZM198.317 114.034H199.491V121.312C199.491 121.644 199.539 121.893 199.635 122.058C199.734 122.221 199.86 122.33 200.013 122.386C200.169 122.439 200.333 122.466 200.505 122.466C200.634 122.466 200.74 122.459 200.823 122.446C200.906 122.429 200.972 122.416 201.022 122.406L201.261 123.46C201.181 123.49 201.07 123.52 200.928 123.55C200.785 123.583 200.604 123.599 200.386 123.599C200.054 123.599 199.729 123.528 199.411 123.386C199.096 123.243 198.835 123.026 198.626 122.734C198.42 122.443 198.317 122.075 198.317 121.631V114.034ZM206.006 123.659C205.27 123.659 204.636 123.497 204.102 123.172C203.572 122.844 203.162 122.386 202.874 121.8C202.589 121.21 202.446 120.524 202.446 119.741C202.446 118.959 202.589 118.27 202.874 117.673C203.162 117.073 203.563 116.606 204.077 116.271C204.594 115.933 205.197 115.764 205.887 115.764C206.284 115.764 206.677 115.83 207.065 115.963C207.453 116.096 207.806 116.311 208.124 116.609C208.442 116.904 208.696 117.295 208.885 117.783C209.074 118.27 209.168 118.87 209.168 119.582V120.08H203.282V119.065H207.975C207.975 118.634 207.889 118.25 207.716 117.912C207.547 117.574 207.305 117.307 206.99 117.112C206.679 116.916 206.311 116.818 205.887 116.818C205.419 116.818 205.015 116.934 204.674 117.166C204.336 117.395 204.075 117.693 203.893 118.061C203.711 118.429 203.62 118.823 203.62 119.244V119.92C203.62 120.497 203.719 120.986 203.918 121.387C204.12 121.785 204.4 122.088 204.758 122.297C205.116 122.502 205.532 122.605 206.006 122.605C206.314 122.605 206.593 122.562 206.841 122.476C207.093 122.386 207.31 122.254 207.493 122.078C207.675 121.899 207.816 121.677 207.915 121.412L209.049 121.73C208.929 122.115 208.729 122.453 208.447 122.744C208.165 123.033 207.817 123.258 207.403 123.42C206.989 123.58 206.523 123.659 206.006 123.659ZM217.774 123.659C217.137 123.659 216.576 123.498 216.088 123.177C215.601 122.852 215.22 122.395 214.945 121.805C214.67 121.211 214.532 120.51 214.532 119.702C214.532 118.9 214.67 118.204 214.945 117.614C215.22 117.024 215.603 116.568 216.093 116.246C216.584 115.925 217.151 115.764 217.794 115.764C218.291 115.764 218.684 115.847 218.972 116.013C219.264 116.175 219.486 116.361 219.638 116.57C219.794 116.775 219.915 116.944 220.001 117.077H220.1V113.318H221.274V123.5H220.14V122.327H220.001C219.915 122.466 219.792 122.642 219.633 122.854C219.474 123.062 219.247 123.25 218.952 123.415C218.657 123.578 218.264 123.659 217.774 123.659ZM217.933 122.605C218.404 122.605 218.801 122.482 219.126 122.237C219.451 121.989 219.698 121.646 219.867 121.208C220.036 120.767 220.12 120.259 220.12 119.682C220.12 119.112 220.038 118.613 219.872 118.185C219.706 117.754 219.461 117.42 219.136 117.181C218.811 116.939 218.41 116.818 217.933 116.818C217.436 116.818 217.021 116.946 216.69 117.201C216.362 117.453 216.115 117.796 215.949 118.23C215.787 118.661 215.706 119.145 215.706 119.682C215.706 120.225 215.788 120.719 215.954 121.163C216.123 121.604 216.372 121.955 216.7 122.217C217.031 122.476 217.442 122.605 217.933 122.605ZM226.787 123.659C226.051 123.659 225.417 123.497 224.883 123.172C224.353 122.844 223.944 122.386 223.655 121.8C223.37 121.21 223.228 120.524 223.228 119.741C223.228 118.959 223.37 118.27 223.655 117.673C223.944 117.073 224.345 116.606 224.858 116.271C225.375 115.933 225.979 115.764 226.668 115.764C227.066 115.764 227.458 115.83 227.846 115.963C228.234 116.096 228.587 116.311 228.905 116.609C229.223 116.904 229.477 117.295 229.666 117.783C229.855 118.27 229.949 118.87 229.949 119.582V120.08H224.063V119.065H228.756C228.756 118.634 228.67 118.25 228.498 117.912C228.328 117.574 228.087 117.307 227.772 117.112C227.46 116.916 227.092 116.818 226.668 116.818C226.201 116.818 225.796 116.934 225.455 117.166C225.117 117.395 224.857 117.693 224.674 118.061C224.492 118.429 224.401 118.823 224.401 119.244V119.92C224.401 120.497 224.5 120.986 224.699 121.387C224.901 121.785 225.181 122.088 225.539 122.297C225.897 122.502 226.313 122.605 226.787 122.605C227.096 122.605 227.374 122.562 227.623 122.476C227.874 122.386 228.092 122.254 228.274 122.078C228.456 121.899 228.597 121.677 228.696 121.412L229.83 121.73C229.711 122.115 229.51 122.453 229.228 122.744C228.947 123.033 228.599 123.258 228.184 123.42C227.77 123.58 227.304 123.659 226.787 123.659ZM238.993 115.864V116.858H235.035V115.864H238.993ZM236.189 114.034H237.362V121.312C237.362 121.644 237.41 121.893 237.506 122.058C237.605 122.221 237.731 122.33 237.884 122.386C238.04 122.439 238.204 122.466 238.376 122.466C238.505 122.466 238.611 122.459 238.694 122.446C238.777 122.429 238.843 122.416 238.893 122.406L239.132 123.46C239.052 123.49 238.941 123.52 238.799 123.55C238.656 123.583 238.475 123.599 238.257 123.599C237.925 123.599 237.6 123.528 237.282 123.386C236.967 123.243 236.706 123.026 236.497 122.734C236.291 122.443 236.189 122.075 236.189 121.631V114.034ZM243.778 123.659C243.088 123.659 242.483 123.495 241.963 123.167C241.446 122.839 241.042 122.38 240.75 121.79C240.462 121.2 240.317 120.51 240.317 119.722C240.317 118.926 240.462 118.232 240.75 117.638C241.042 117.045 241.446 116.585 241.963 116.256C242.483 115.928 243.088 115.764 243.778 115.764C244.467 115.764 245.07 115.928 245.587 116.256C246.108 116.585 246.512 117.045 246.8 117.638C247.092 118.232 247.238 118.926 247.238 119.722C247.238 120.51 247.092 121.2 246.8 121.79C246.512 122.38 246.108 122.839 245.587 123.167C245.07 123.495 244.467 123.659 243.778 123.659ZM243.778 122.605C244.301 122.605 244.732 122.471 245.07 122.202C245.408 121.934 245.659 121.581 245.821 121.143C245.983 120.706 246.065 120.232 246.065 119.722C246.065 119.211 245.983 118.736 245.821 118.295C245.659 117.854 245.408 117.498 245.07 117.226C244.732 116.954 244.301 116.818 243.778 116.818C243.254 116.818 242.823 116.954 242.485 117.226C242.147 117.498 241.897 117.854 241.734 118.295C241.572 118.736 241.491 119.211 241.491 119.722C241.491 120.232 241.572 120.706 241.734 121.143C241.897 121.581 242.147 121.934 242.485 122.202C242.823 122.471 243.254 122.605 243.778 122.605ZM251.912 123.659C251.276 123.659 250.714 123.498 250.227 123.177C249.74 122.852 249.359 122.395 249.084 121.805C248.809 121.211 248.671 120.51 248.671 119.702C248.671 118.9 248.809 118.204 249.084 117.614C249.359 117.024 249.742 116.568 250.232 116.246C250.723 115.925 251.289 115.764 251.932 115.764C252.43 115.764 252.822 115.847 253.111 116.013C253.402 116.175 253.624 116.361 253.777 116.57C253.933 116.775 254.054 116.944 254.14 117.077H254.239V113.318H255.412V123.5H254.279V122.327H254.14C254.054 122.466 253.931 122.642 253.772 122.854C253.613 123.062 253.386 123.25 253.091 123.415C252.796 123.578 252.403 123.659 251.912 123.659ZM252.072 122.605C252.542 122.605 252.94 122.482 253.265 122.237C253.59 121.989 253.836 121.646 254.006 121.208C254.175 120.767 254.259 120.259 254.259 119.682C254.259 119.112 254.176 118.613 254.01 118.185C253.845 117.754 253.599 117.42 253.275 117.181C252.95 116.939 252.549 116.818 252.072 116.818C251.574 116.818 251.16 116.946 250.829 117.201C250.501 117.453 250.254 117.796 250.088 118.23C249.925 118.661 249.844 119.145 249.844 119.682C249.844 120.225 249.927 120.719 250.093 121.163C250.262 121.604 250.51 121.955 250.839 122.217C251.17 122.476 251.581 122.605 252.072 122.605ZM260.827 123.659C260.137 123.659 259.532 123.495 259.012 123.167C258.495 122.839 258.09 122.38 257.799 121.79C257.51 121.2 257.366 120.51 257.366 119.722C257.366 118.926 257.51 118.232 257.799 117.638C258.09 117.045 258.495 116.585 259.012 116.256C259.532 115.928 260.137 115.764 260.827 115.764C261.516 115.764 262.119 115.928 262.636 116.256C263.157 116.585 263.561 117.045 263.849 117.638C264.141 118.232 264.287 118.926 264.287 119.722C264.287 120.51 264.141 121.2 263.849 121.79C263.561 122.38 263.157 122.839 262.636 123.167C262.119 123.495 261.516 123.659 260.827 123.659ZM260.827 122.605C261.35 122.605 261.781 122.471 262.119 122.202C262.457 121.934 262.707 121.581 262.87 121.143C263.032 120.706 263.113 120.232 263.113 119.722C263.113 119.211 263.032 118.736 262.87 118.295C262.707 117.854 262.457 117.498 262.119 117.226C261.781 116.954 261.35 116.818 260.827 116.818C260.303 116.818 259.872 116.954 259.534 117.226C259.196 117.498 258.946 117.854 258.783 118.295C258.621 118.736 258.54 119.211 258.54 119.722C258.54 120.232 258.621 120.706 258.783 121.143C258.946 121.581 259.196 121.934 259.534 122.202C259.872 122.471 260.303 122.605 260.827 122.605ZM273.118 123.659C272.428 123.659 271.823 123.495 271.303 123.167C270.786 122.839 270.382 122.38 270.09 121.79C269.801 121.2 269.657 120.51 269.657 119.722C269.657 118.926 269.801 118.232 270.09 117.638C270.382 117.045 270.786 116.585 271.303 116.256C271.823 115.928 272.428 115.764 273.118 115.764C273.807 115.764 274.41 115.928 274.927 116.256C275.448 116.585 275.852 117.045 276.14 117.638C276.432 118.232 276.578 118.926 276.578 119.722C276.578 120.51 276.432 121.2 276.14 121.79C275.852 122.38 275.448 122.839 274.927 123.167C274.41 123.495 273.807 123.659 273.118 123.659ZM273.118 122.605C273.641 122.605 274.072 122.471 274.41 122.202C274.748 121.934 274.998 121.581 275.161 121.143C275.323 120.706 275.404 120.232 275.404 119.722C275.404 119.211 275.323 118.736 275.161 118.295C274.998 117.854 274.748 117.498 274.41 117.226C274.072 116.954 273.641 116.818 273.118 116.818C272.594 116.818 272.163 116.954 271.825 117.226C271.487 117.498 271.237 117.854 271.074 118.295C270.912 118.736 270.831 119.211 270.831 119.722C270.831 120.232 270.912 120.706 271.074 121.143C271.237 121.581 271.487 121.934 271.825 122.202C272.163 122.471 272.594 122.605 273.118 122.605ZM287.715 117.574L286.661 117.872C286.595 117.696 286.497 117.526 286.368 117.36C286.242 117.191 286.07 117.052 285.851 116.942C285.632 116.833 285.352 116.778 285.011 116.778C284.544 116.778 284.154 116.886 283.843 117.102C283.534 117.314 283.38 117.584 283.38 117.912C283.38 118.204 283.486 118.434 283.698 118.603C283.91 118.772 284.242 118.913 284.693 119.026L285.826 119.304C286.509 119.47 287.018 119.723 287.352 120.065C287.687 120.403 287.855 120.839 287.855 121.372C287.855 121.81 287.729 122.201 287.477 122.545C287.228 122.89 286.88 123.162 286.433 123.361C285.985 123.56 285.465 123.659 284.872 123.659C284.093 123.659 283.448 123.49 282.938 123.152C282.427 122.814 282.104 122.32 281.968 121.67L283.082 121.392C283.188 121.803 283.388 122.111 283.683 122.317C283.982 122.522 284.371 122.625 284.852 122.625C285.399 122.625 285.833 122.509 286.154 122.277C286.479 122.042 286.642 121.76 286.642 121.432C286.642 121.167 286.549 120.945 286.363 120.766C286.177 120.583 285.892 120.447 285.508 120.358L284.235 120.06C283.536 119.894 283.022 119.637 282.694 119.289C282.369 118.938 282.207 118.499 282.207 117.972C282.207 117.541 282.328 117.16 282.57 116.828C282.815 116.497 283.148 116.237 283.569 116.048C283.993 115.859 284.474 115.764 285.011 115.764C285.767 115.764 286.36 115.93 286.791 116.261C287.225 116.593 287.533 117.03 287.715 117.574ZM289.621 123.5V115.864H290.794V123.5H289.621ZM290.217 114.591C289.989 114.591 289.791 114.513 289.626 114.357C289.463 114.201 289.382 114.014 289.382 113.795C289.382 113.577 289.463 113.389 289.626 113.234C289.791 113.078 289.989 113 290.217 113C290.446 113 290.642 113.078 290.804 113.234C290.97 113.389 291.053 113.577 291.053 113.795C291.053 114.014 290.97 114.201 290.804 114.357C290.642 114.513 290.446 114.591 290.217 114.591ZM298.352 117.574L297.298 117.872C297.232 117.696 297.134 117.526 297.005 117.36C296.879 117.191 296.706 117.052 296.488 116.942C296.269 116.833 295.989 116.778 295.648 116.778C295.18 116.778 294.791 116.886 294.479 117.102C294.171 117.314 294.017 117.584 294.017 117.912C294.017 118.204 294.123 118.434 294.335 118.603C294.547 118.772 294.879 118.913 295.329 119.026L296.463 119.304C297.146 119.47 297.654 119.723 297.989 120.065C298.324 120.403 298.491 120.839 298.491 121.372C298.491 121.81 298.365 122.201 298.113 122.545C297.865 122.89 297.517 123.162 297.069 123.361C296.622 123.56 296.102 123.659 295.508 123.659C294.729 123.659 294.085 123.49 293.574 123.152C293.064 122.814 292.741 122.32 292.605 121.67L293.719 121.392C293.825 121.803 294.025 122.111 294.32 122.317C294.618 122.522 295.008 122.625 295.488 122.625C296.035 122.625 296.47 122.509 296.791 122.277C297.116 122.042 297.278 121.76 297.278 121.432C297.278 121.167 297.185 120.945 297 120.766C296.814 120.583 296.529 120.447 296.145 120.358L294.872 120.06C294.173 119.894 293.659 119.637 293.331 119.289C293.006 118.938 292.844 118.499 292.844 117.972C292.844 117.541 292.965 117.16 293.206 116.828C293.452 116.497 293.785 116.237 294.206 116.048C294.63 115.859 295.111 115.764 295.648 115.764C296.403 115.764 296.997 115.93 297.427 116.261C297.862 116.593 298.17 117.03 298.352 117.574ZM303.578 115.864V116.858H299.621V115.864H303.578ZM300.775 114.034H301.948V121.312C301.948 121.644 301.996 121.893 302.092 122.058C302.191 122.221 302.317 122.33 302.47 122.386C302.626 122.439 302.79 122.466 302.962 122.466C303.091 122.466 303.197 122.459 303.28 122.446C303.363 122.429 303.429 122.416 303.479 122.406L303.718 123.46C303.638 123.49 303.527 123.52 303.385 123.55C303.242 123.583 303.061 123.599 302.843 123.599C302.511 123.599 302.186 123.528 301.868 123.386C301.553 123.243 301.292 123.026 301.083 122.734C300.877 122.443 300.775 122.075 300.775 121.631V114.034ZM308.463 123.659C307.727 123.659 307.093 123.497 306.559 123.172C306.029 122.844 305.619 122.386 305.331 121.8C305.046 121.21 304.903 120.524 304.903 119.741C304.903 118.959 305.046 118.27 305.331 117.673C305.619 117.073 306.02 116.606 306.534 116.271C307.051 115.933 307.654 115.764 308.344 115.764C308.741 115.764 309.134 115.83 309.522 115.963C309.91 116.096 310.263 116.311 310.581 116.609C310.899 116.904 311.153 117.295 311.342 117.783C311.531 118.27 311.625 118.87 311.625 119.582V120.08H305.739V119.065H310.432C310.432 118.634 310.346 118.25 310.173 117.912C310.004 117.574 309.762 117.307 309.447 117.112C309.136 116.916 308.768 116.818 308.344 116.818C307.876 116.818 307.472 116.934 307.131 117.166C306.793 117.395 306.532 117.693 306.35 118.061C306.168 118.429 306.077 118.823 306.077 119.244V119.92C306.077 120.497 306.176 120.986 306.375 121.387C306.577 121.785 306.857 122.088 307.215 122.297C307.573 122.502 307.989 122.605 308.463 122.605C308.771 122.605 309.05 122.562 309.298 122.476C309.55 122.386 309.767 122.254 309.95 122.078C310.132 121.899 310.273 121.677 310.372 121.412L311.506 121.73C311.386 122.115 311.186 122.453 310.904 122.744C310.622 123.033 310.274 123.258 309.86 123.42C309.446 123.58 308.98 123.659 308.463 123.659ZM313.41 123.5V115.864H314.543V117.057H314.643C314.802 116.649 315.059 116.333 315.413 116.107C315.768 115.879 316.194 115.764 316.691 115.764C317.195 115.764 317.614 115.879 317.949 116.107C318.287 116.333 318.55 116.649 318.739 117.057H318.819C319.014 116.662 319.308 116.349 319.699 116.117C320.09 115.882 320.559 115.764 321.106 115.764C321.789 115.764 322.347 115.978 322.781 116.406C323.215 116.83 323.433 117.491 323.433 118.389V123.5H322.259V118.389C322.259 117.826 322.105 117.423 321.797 117.181C321.489 116.939 321.126 116.818 320.708 116.818C320.171 116.818 319.755 116.981 319.46 117.305C319.165 117.627 319.018 118.035 319.018 118.528V123.5H317.825V118.27C317.825 117.836 317.684 117.486 317.402 117.221C317.12 116.952 316.757 116.818 316.313 116.818C316.008 116.818 315.723 116.899 315.458 117.062C315.196 117.224 314.984 117.45 314.822 117.738C314.663 118.023 314.583 118.353 314.583 118.727V123.5H313.41ZM327.825 123.679C327.341 123.679 326.902 123.588 326.507 123.406C326.113 123.22 325.8 122.953 325.568 122.605C325.336 122.254 325.22 121.83 325.22 121.332C325.22 120.895 325.306 120.54 325.478 120.268C325.651 119.993 325.881 119.778 326.169 119.622C326.458 119.466 326.776 119.35 327.124 119.274C327.475 119.195 327.828 119.132 328.183 119.085C328.647 119.026 329.023 118.981 329.311 118.951C329.603 118.918 329.815 118.863 329.948 118.787C330.084 118.711 330.152 118.578 330.152 118.389V118.349C330.152 117.859 330.017 117.478 329.749 117.206C329.484 116.934 329.081 116.798 328.541 116.798C327.981 116.798 327.542 116.921 327.223 117.166C326.905 117.411 326.681 117.673 326.552 117.952L325.439 117.554C325.637 117.09 325.903 116.729 326.234 116.47C326.569 116.208 326.933 116.026 327.328 115.923C327.725 115.817 328.117 115.764 328.501 115.764C328.746 115.764 329.028 115.794 329.346 115.854C329.668 115.91 329.978 116.028 330.276 116.207C330.578 116.386 330.828 116.656 331.027 117.017C331.225 117.378 331.325 117.862 331.325 118.469V123.5H330.152V122.466H330.092C330.012 122.632 329.88 122.809 329.694 122.998C329.509 123.187 329.262 123.348 328.953 123.48C328.645 123.613 328.269 123.679 327.825 123.679ZM328.004 122.625C328.468 122.625 328.859 122.534 329.177 122.352C329.499 122.169 329.741 121.934 329.903 121.646C330.069 121.357 330.152 121.054 330.152 120.736V119.662C330.102 119.722 329.993 119.776 329.824 119.826C329.658 119.872 329.466 119.914 329.247 119.95C329.031 119.983 328.821 120.013 328.615 120.04C328.413 120.063 328.249 120.083 328.123 120.099C327.818 120.139 327.533 120.204 327.268 120.293C327.006 120.379 326.794 120.51 326.632 120.686C326.473 120.858 326.393 121.094 326.393 121.392C326.393 121.8 326.544 122.108 326.846 122.317C327.15 122.522 327.537 122.625 328.004 122.625ZM335.018 113.318L334.918 120.636H333.765L333.665 113.318H335.018ZM334.341 123.58C334.096 123.58 333.886 123.492 333.71 123.316C333.534 123.14 333.447 122.93 333.447 122.685C333.447 122.439 333.534 122.229 333.71 122.053C333.886 121.878 334.096 121.79 334.341 121.79C334.587 121.79 334.797 121.878 334.973 122.053C335.148 122.229 335.236 122.439 335.236 122.685C335.236 122.847 335.195 122.996 335.112 123.132C335.032 123.268 334.925 123.377 334.789 123.46C334.656 123.54 334.507 123.58 334.341 123.58Z" fill="#6C757D"/>
</svg>
