<svg width="380" height="128" viewBox="0 0 380 128" fill="none" xmlns="http://www.w3.org/2000/svg">
<path fill-rule="evenodd" clip-rule="evenodd" d="M210 28.7715H209.989C209.826 33.9215 207.653 38.807 203.927 42.3954C200.201 45.9837 195.216 47.9935 190.024 48C178.981 48.0128 169.816 39.1352 170.003 28.176C170.173 18.1391 177.103 13.2919 184.279 12.1061C187.544 11.5666 191.33 11.9772 194.628 11.9819C194.619 17.6473 190.809 20.7478 187.067 21.8651C184.632 22.592 181.894 24.8995 182.264 29.2011C182.282 31.0376 183.029 32.7929 184.345 34.0847C185.66 35.3765 187.437 36.1001 189.287 36.0979C191.138 36.0957 192.912 35.3679 194.225 34.073C195.537 32.7781 196.281 31.021 196.293 29.1844C196.293 29.0512 196.289 28.919 196.281 28.7877H196.293L196.386 11.9201C196.726 8.33725 199.912 0.0347247 209.966 0L209.999 28.1294L210 28.7715Z" fill="#0D6CF2"/>
<rect width="380" height="64" transform="translate(0 64)" fill="white" fill-opacity="0.01"/>
<path d="M87.7898 78C87.7367 77.3371 87.4882 76.8201 87.044 76.4489C86.6065 76.0777 85.9403 75.892 85.0455 75.892C84.4754 75.892 84.008 75.9616 83.6435 76.1009C83.2855 76.2334 83.0204 76.4157 82.848 76.6477C82.6757 76.8797 82.5862 77.1449 82.5795 77.4432C82.5663 77.6884 82.6094 77.9105 82.7088 78.1094C82.8149 78.3016 82.9806 78.4773 83.206 78.6364C83.4313 78.7888 83.7197 78.928 84.071 79.054C84.4223 79.1799 84.84 79.2926 85.3239 79.392L86.9943 79.75C88.1212 79.9886 89.0857 80.3035 89.8878 80.6946C90.6899 81.0857 91.3461 81.5464 91.8565 82.0767C92.367 82.6004 92.7415 83.1903 92.9801 83.8466C93.2254 84.5028 93.3513 85.2187 93.358 85.9943C93.3513 87.3333 93.0166 88.4669 92.3537 89.3949C91.6908 90.3229 90.7429 91.0289 89.5099 91.5128C88.2836 91.9967 86.8087 92.2386 85.0852 92.2386C83.3153 92.2386 81.7708 91.9768 80.4517 91.4531C79.1392 90.9295 78.1184 90.1241 77.3892 89.0369C76.6667 87.9432 76.3021 86.5445 76.2955 84.8409H81.5455C81.5786 85.464 81.7344 85.9877 82.0128 86.4119C82.2912 86.8362 82.6823 87.1577 83.1861 87.3764C83.6965 87.5952 84.303 87.7045 85.0057 87.7045C85.5956 87.7045 86.0895 87.6316 86.4872 87.4858C86.8849 87.34 87.1866 87.1378 87.392 86.8793C87.5975 86.6207 87.7036 86.3258 87.7102 85.9943C87.7036 85.6828 87.6009 85.411 87.402 85.179C87.2098 84.9403 86.8916 84.7282 86.4474 84.5426C86.0033 84.3504 85.4034 84.1714 84.6477 84.0057L82.6193 83.5682C80.8163 83.1771 79.3944 82.5241 78.3537 81.6094C77.3196 80.688 76.8059 79.4318 76.8125 77.8409C76.8059 76.5483 77.1506 75.4181 77.8466 74.4503C78.5492 73.4759 79.5204 72.7169 80.7599 72.1733C82.0062 71.6297 83.4347 71.358 85.0455 71.358C86.6894 71.358 88.1113 71.633 89.3111 72.1832C90.5109 72.7334 91.4356 73.509 92.0852 74.5099C92.7415 75.5043 93.0729 76.6676 93.0795 78H87.7898ZM103.359 92.2784C101.728 92.2784 100.323 91.9669 99.1428 91.3438C97.9695 90.714 97.0646 89.8125 96.4283 88.6392C95.7985 87.4593 95.4837 86.0473 95.4837 84.4034C95.4837 82.8258 95.8018 81.447 96.4382 80.267C97.0746 79.0871 97.9728 78.169 99.1328 77.5128C100.293 76.8565 101.662 76.5284 103.239 76.5284C104.393 76.5284 105.437 76.7074 106.371 77.0653C107.306 77.4233 108.105 77.9437 108.768 78.6264C109.431 79.3026 109.941 80.1245 110.299 81.0923C110.657 82.0601 110.836 83.1506 110.836 84.3636V85.6364H97.1939V82.6136H105.785C105.778 82.1761 105.665 81.7917 105.447 81.4602C105.235 81.1222 104.946 80.8603 104.582 80.6747C104.224 80.4825 103.816 80.3864 103.359 80.3864C102.915 80.3864 102.507 80.4825 102.136 80.6747C101.764 80.8603 101.466 81.1188 101.241 81.4503C101.022 81.7817 100.906 82.1695 100.893 82.6136V85.875C100.893 86.3655 100.996 86.803 101.201 87.1875C101.406 87.572 101.701 87.8736 102.086 88.0923C102.47 88.3111 102.934 88.4205 103.478 88.4205C103.856 88.4205 104.201 88.3674 104.512 88.2614C104.83 88.1553 105.102 88.0028 105.327 87.804C105.553 87.5985 105.719 87.3532 105.825 87.0682H110.836C110.664 88.1288 110.256 89.0502 109.613 89.8324C108.97 90.608 108.118 91.2112 107.058 91.642C106.004 92.0663 104.771 92.2784 103.359 92.2784ZM113.576 76.7273H119.064V92.517C119.064 93.8561 118.783 94.9034 118.219 95.6591C117.662 96.4148 116.88 96.9484 115.873 97.2599C114.865 97.5715 113.688 97.7273 112.343 97.7273C112.144 97.7273 111.962 97.724 111.796 97.7173C111.623 97.7107 111.435 97.7008 111.229 97.6875V93.6307C111.362 93.6439 111.478 93.6539 111.577 93.6605C111.67 93.6671 111.766 93.6705 111.865 93.6705C112.522 93.6705 112.969 93.5677 113.208 93.3622C113.453 93.1634 113.576 92.8419 113.576 92.3977V76.7273ZM116.32 75.1364C115.578 75.1364 114.941 74.8911 114.411 74.4006C113.881 73.91 113.615 73.3201 113.615 72.6307C113.615 71.9413 113.881 71.3513 114.411 70.8608C114.941 70.3703 115.578 70.125 116.32 70.125C117.069 70.125 117.705 70.3703 118.229 70.8608C118.759 71.3513 119.025 71.9413 119.025 72.6307C119.025 73.3201 118.759 73.91 118.229 74.4006C117.705 74.8911 117.069 75.1364 116.32 75.1364ZM126.616 92.2386C125.642 92.2386 124.78 92.0795 124.031 91.7614C123.289 91.4366 122.705 90.946 122.281 90.2898C121.857 89.6335 121.645 88.7983 121.645 87.7841C121.645 86.9489 121.787 86.2363 122.072 85.6463C122.357 85.0497 122.755 84.5625 123.266 84.1847C123.776 83.8068 124.369 83.5185 125.045 83.3196C125.728 83.1207 126.464 82.9915 127.253 82.9318C128.108 82.8655 128.794 82.786 129.311 82.6932C129.835 82.5937 130.213 82.4579 130.445 82.2855C130.677 82.1065 130.793 81.8712 130.793 81.5795V81.5398C130.793 81.142 130.64 80.8371 130.335 80.625C130.03 80.4129 129.639 80.3068 129.162 80.3068C128.638 80.3068 128.211 80.4228 127.879 80.6548C127.554 80.8802 127.359 81.2282 127.293 81.6989H122.241C122.308 80.7708 122.603 79.9157 123.126 79.1335C123.657 78.3447 124.429 77.715 125.443 77.2443C126.457 76.767 127.723 76.5284 129.241 76.5284C130.335 76.5284 131.316 76.6577 132.185 76.9162C133.053 77.1681 133.792 77.5227 134.402 77.9801C135.012 78.4309 135.476 78.9612 135.794 79.571C136.119 80.1742 136.281 80.8305 136.281 81.5398V92H131.151V89.8523H131.031C130.726 90.4223 130.355 90.883 129.918 91.2344C129.487 91.5857 128.993 91.8409 128.436 92C127.886 92.1591 127.279 92.2386 126.616 92.2386ZM128.406 88.7784C128.824 88.7784 129.215 88.6922 129.58 88.5199C129.951 88.3475 130.252 88.099 130.484 87.7741C130.716 87.4493 130.832 87.0549 130.832 86.5909V85.3182C130.687 85.3778 130.531 85.4342 130.365 85.4872C130.206 85.5402 130.034 85.59 129.848 85.6364C129.669 85.6828 129.477 85.7259 129.271 85.7656C129.072 85.8054 128.864 85.8419 128.645 85.875C128.221 85.9413 127.873 86.0507 127.601 86.2031C127.336 86.349 127.137 86.5312 127.004 86.75C126.878 86.9621 126.815 87.2008 126.815 87.4659C126.815 87.8902 126.964 88.215 127.263 88.4403C127.561 88.6657 127.942 88.7784 128.406 88.7784ZM145.402 92V71.6364H150.891V79.392H150.971C151.169 78.875 151.461 78.401 151.846 77.9702C152.23 77.5327 152.707 77.1847 153.277 76.9261C153.847 76.661 154.51 76.5284 155.266 76.5284C156.274 76.5284 157.231 76.7969 158.14 77.3338C159.054 77.8707 159.797 78.7159 160.367 79.8693C160.944 81.0227 161.232 82.5208 161.232 84.3636C161.232 86.1269 160.957 87.5885 160.407 88.7486C159.863 89.9086 159.134 90.7737 158.219 91.3438C157.311 91.9138 156.313 92.1989 155.226 92.1989C154.51 92.1989 153.871 92.0829 153.307 91.8509C152.75 91.6122 152.273 91.2907 151.875 90.8864C151.484 90.4754 151.183 90.0114 150.971 89.4943H150.851V92H145.402ZM150.772 84.3636C150.772 85.1061 150.868 85.7491 151.06 86.2926C151.259 86.8295 151.537 87.2472 151.895 87.5455C152.26 87.8371 152.694 87.983 153.198 87.983C153.702 87.983 154.129 87.8404 154.48 87.5554C154.838 87.2637 155.11 86.8494 155.296 86.3125C155.488 85.7689 155.584 85.1193 155.584 84.3636C155.584 83.608 155.488 82.9616 155.296 82.4247C155.11 81.8812 154.838 81.4669 154.48 81.1818C154.129 80.8902 153.702 80.7443 153.198 80.7443C152.694 80.7443 152.26 80.8902 151.895 81.1818C151.537 81.4669 151.259 81.8812 151.06 82.4247C150.868 82.9616 150.772 83.608 150.772 84.3636ZM171.347 92.2784C169.716 92.2784 168.311 91.9669 167.131 91.3438C165.958 90.714 165.053 89.8125 164.417 88.6392C163.787 87.4593 163.472 86.0473 163.472 84.4034C163.472 82.8258 163.79 81.447 164.426 80.267C165.063 79.0871 165.961 78.169 167.121 77.5128C168.281 76.8565 169.65 76.5284 171.228 76.5284C172.381 76.5284 173.425 76.7074 174.36 77.0653C175.294 77.4233 176.093 77.9437 176.756 78.6264C177.419 79.3026 177.929 80.1245 178.287 81.0923C178.645 82.0601 178.824 83.1506 178.824 84.3636V85.6364H165.182V82.6136H173.773C173.766 82.1761 173.654 81.7917 173.435 81.4602C173.223 81.1222 172.935 80.8603 172.57 80.6747C172.212 80.4825 171.804 80.3864 171.347 80.3864C170.903 80.3864 170.495 80.4825 170.124 80.6747C169.753 80.8603 169.454 81.1188 169.229 81.4503C169.01 81.7817 168.894 82.1695 168.881 82.6136V85.875C168.881 86.3655 168.984 86.803 169.189 87.1875C169.395 87.572 169.69 87.8736 170.074 88.0923C170.459 88.3111 170.923 88.4205 171.466 88.4205C171.844 88.4205 172.189 88.3674 172.5 88.2614C172.819 88.1553 173.09 88.0028 173.316 87.804C173.541 87.5985 173.707 87.3532 173.813 87.0682H178.824C178.652 88.1288 178.244 89.0502 177.601 89.8324C176.958 90.608 176.106 91.2112 175.046 91.642C173.992 92.0663 172.759 92.2784 171.347 92.2784ZM181.564 92V76.7273H186.774V79.6307H186.933C187.251 78.6761 187.795 77.9205 188.564 77.3636C189.333 76.8068 190.248 76.5284 191.308 76.5284C192.382 76.5284 193.307 76.8134 194.082 77.3835C194.858 77.947 195.325 78.696 195.484 79.6307H195.643C195.902 78.696 196.452 77.947 197.294 77.3835C198.136 76.8134 199.124 76.5284 200.257 76.5284C201.722 76.5284 202.909 76.9991 203.817 77.9403C204.732 78.8816 205.189 80.1345 205.189 81.6989V92H199.7V83.0909C199.7 82.4214 199.531 81.8977 199.193 81.5199C198.855 81.1354 198.401 80.9432 197.831 80.9432C197.268 80.9432 196.82 81.1354 196.489 81.5199C196.164 81.8977 196.001 82.4214 196.001 83.0909V92H190.751V83.0909C190.751 82.4214 190.582 81.8977 190.244 81.5199C189.906 81.1354 189.452 80.9432 188.882 80.9432C188.504 80.9432 188.179 81.0294 187.908 81.2017C187.636 81.3741 187.424 81.6226 187.271 81.9474C187.125 82.2656 187.053 82.6468 187.053 83.0909V92H181.564ZM229.866 76.7273L224.735 92H218.372L213.241 76.7273H219.008L221.474 86.8295H221.633L224.099 76.7273H229.866ZM231.927 92V76.7273H237.416V92H231.927ZM234.672 75.1364C233.929 75.1364 233.293 74.8911 232.762 74.4006C232.232 73.91 231.967 73.3201 231.967 72.6307C231.967 71.9413 232.232 71.3513 232.762 70.8608C233.293 70.3703 233.929 70.125 234.672 70.125C235.421 70.125 236.057 70.3703 236.581 70.8608C237.111 71.3513 237.376 71.9413 237.376 72.6307C237.376 73.3201 237.111 73.91 236.581 74.4006C236.057 74.8911 235.421 75.1364 234.672 75.1364ZM246.201 83.4091V92H240.712V76.7273H245.923V79.6307H246.082C246.413 78.6629 246.996 77.9039 247.832 77.3537C248.674 76.8035 249.655 76.5284 250.775 76.5284C251.855 76.5284 252.793 76.777 253.589 77.2741C254.391 77.7647 255.011 78.4408 255.448 79.3026C255.892 80.1643 256.111 81.1487 256.104 82.2557V92H250.616V83.4091C250.622 82.6534 250.43 82.0601 250.039 81.6293C249.655 81.1984 249.118 80.983 248.428 80.983C247.978 80.983 247.583 81.0824 247.245 81.2812C246.914 81.4735 246.658 81.7519 246.479 82.1165C246.3 82.4744 246.208 82.9053 246.201 83.4091ZM264.842 92.1989C263.755 92.1989 262.754 91.9138 261.839 91.3438C260.931 90.7737 260.202 89.9086 259.652 88.7486C259.108 87.5885 258.837 86.1269 258.837 84.3636C258.837 82.5208 259.122 81.0227 259.692 79.8693C260.268 78.7159 261.011 77.8707 261.919 77.3338C262.834 76.7969 263.795 76.5284 264.803 76.5284C265.558 76.5284 266.221 76.661 266.791 76.9261C267.361 77.1847 267.839 77.5327 268.223 77.9702C268.607 78.401 268.899 78.875 269.098 79.392H269.178V71.6364H274.666V92H269.217V89.4943H269.098C268.886 90.0114 268.581 90.4754 268.183 90.8864C267.792 91.2907 267.315 91.6122 266.751 91.8509C266.195 92.0829 265.558 92.1989 264.842 92.1989ZM266.871 87.983C267.375 87.983 267.805 87.8371 268.163 87.5455C268.528 87.2472 268.806 86.8295 268.999 86.2926C269.197 85.7491 269.297 85.1061 269.297 84.3636C269.297 83.608 269.197 82.9616 268.999 82.4247C268.806 81.8812 268.528 81.4669 268.163 81.1818C267.805 80.8902 267.375 80.7443 266.871 80.7443C266.367 80.7443 265.936 80.8902 265.578 81.1818C265.227 81.4669 264.955 81.8812 264.763 82.4247C264.577 82.9616 264.484 83.608 264.484 84.3636C264.484 85.1193 264.577 85.7689 264.763 86.3125C264.955 86.8494 265.227 87.2637 265.578 87.5554C265.936 87.8404 266.367 87.983 266.871 87.983ZM285.219 92.2784C283.562 92.2784 282.143 91.9503 280.963 91.294C279.783 90.6312 278.878 89.7098 278.249 88.5298C277.619 87.3433 277.304 85.9678 277.304 84.4034C277.304 82.839 277.619 81.4669 278.249 80.2869C278.878 79.1004 279.783 78.179 280.963 77.5227C282.143 76.8598 283.562 76.5284 285.219 76.5284C286.876 76.5284 288.295 76.8598 289.474 77.5227C290.654 78.179 291.559 79.1004 292.189 80.2869C292.819 81.4669 293.134 82.839 293.134 84.4034C293.134 85.9678 292.819 87.3433 292.189 88.5298C291.559 89.7098 290.654 90.6312 289.474 91.294C288.295 91.9503 286.876 92.2784 285.219 92.2784ZM285.259 88.2216C285.723 88.2216 286.124 88.0658 286.462 87.7543C286.8 87.4427 287.062 86.9986 287.247 86.4219C287.433 85.8452 287.526 85.1591 287.526 84.3636C287.526 83.5616 287.433 82.8755 287.247 82.3054C287.062 81.7287 286.8 81.2846 286.462 80.973C286.124 80.6615 285.723 80.5057 285.259 80.5057C284.768 80.5057 284.347 80.6615 283.996 80.973C283.644 81.2846 283.376 81.7287 283.19 82.3054C283.005 82.8755 282.912 83.5616 282.912 84.3636C282.912 85.1591 283.005 85.8452 283.19 86.4219C283.376 86.9986 283.644 87.4427 283.996 87.7543C284.347 88.0658 284.768 88.2216 285.259 88.2216ZM302.224 71.6364L301.707 85.6364H297.173L296.656 71.6364H302.224ZM299.44 92.3182C298.671 92.3182 298.012 92.0497 297.462 91.5128C296.918 90.9692 296.65 90.3097 296.656 89.5341C296.65 88.7784 296.918 88.1321 297.462 87.5952C298.012 87.0582 298.671 86.7898 299.44 86.7898C300.17 86.7898 300.813 87.0582 301.369 87.5952C301.933 88.1321 302.218 88.7784 302.224 89.5341C302.218 90.0511 302.082 90.5218 301.817 90.946C301.558 91.3636 301.22 91.6984 300.803 91.9503C300.385 92.1955 299.931 92.3182 299.44 92.3182Z" fill="#0D6CF2"/>
<path d="M59.9659 112.818V123H58.733V112.818H59.9659ZM63.4522 118.406V123H62.2789V115.364H63.4125V116.557H63.5119C63.6909 116.169 63.9627 115.857 64.3272 115.622C64.6918 115.384 65.1625 115.264 65.7392 115.264C66.2562 115.264 66.7086 115.37 67.0964 115.582C67.4842 115.791 67.7858 116.109 68.0012 116.537C68.2167 116.961 68.3244 117.498 68.3244 118.148V123H67.1511V118.227C67.1511 117.627 66.9953 117.16 66.6838 116.825C66.3722 116.487 65.9447 116.318 65.4011 116.318C65.0266 116.318 64.6918 116.399 64.3968 116.562C64.1052 116.724 63.8748 116.961 63.7058 117.273C63.5368 117.584 63.4522 117.962 63.4522 118.406ZM75.8775 117.074L74.8235 117.372C74.7572 117.196 74.6594 117.026 74.5302 116.86C74.4042 116.691 74.2319 116.552 74.0131 116.442C73.7944 116.333 73.5143 116.278 73.1729 116.278C72.7056 116.278 72.3162 116.386 72.0046 116.602C71.6964 116.814 71.5423 117.084 71.5423 117.412C71.5423 117.704 71.6483 117.934 71.8604 118.103C72.0726 118.272 72.404 118.413 72.8548 118.526L73.9883 118.804C74.671 118.97 75.1798 119.223 75.5146 119.565C75.8493 119.903 76.0167 120.339 76.0167 120.872C76.0167 121.31 75.8907 121.701 75.6388 122.045C75.3903 122.39 75.0423 122.662 74.5948 122.861C74.1474 123.06 73.627 123.159 73.0337 123.159C72.2549 123.159 71.6102 122.99 71.0998 122.652C70.5894 122.314 70.2662 121.82 70.1303 121.17L71.244 120.892C71.35 121.303 71.5505 121.611 71.8455 121.817C72.1438 122.022 72.5333 122.125 73.0138 122.125C73.5607 122.125 73.9949 122.009 74.3164 121.777C74.6412 121.542 74.8036 121.26 74.8036 120.932C74.8036 120.667 74.7108 120.445 74.5252 120.266C74.3396 120.083 74.0546 119.947 73.6701 119.858L72.3974 119.56C71.698 119.394 71.1843 119.137 70.8562 118.789C70.5314 118.438 70.369 117.999 70.369 117.472C70.369 117.041 70.4899 116.66 70.7319 116.328C70.9772 115.997 71.3103 115.737 71.7312 115.548C72.1554 115.359 72.636 115.264 73.1729 115.264C73.9286 115.264 74.5219 115.43 74.9528 115.761C75.387 116.093 75.6952 116.53 75.8775 117.074ZM77.7828 123V115.364H78.9561V123H77.7828ZM78.3794 114.091C78.1507 114.091 77.9535 114.013 77.7878 113.857C77.6254 113.701 77.5442 113.514 77.5442 113.295C77.5442 113.077 77.6254 112.889 77.7878 112.734C77.9535 112.578 78.1507 112.5 78.3794 112.5C78.6081 112.5 78.8037 112.578 78.9661 112.734C79.1318 112.889 79.2147 113.077 79.2147 113.295C79.2147 113.514 79.1318 113.701 78.9661 113.857C78.8037 114.013 78.6081 114.091 78.3794 114.091ZM81.1051 123V115.364H82.2386V116.517H82.3182C82.4574 116.139 82.7093 115.833 83.0739 115.597C83.4384 115.362 83.8494 115.244 84.3068 115.244C84.393 115.244 84.5007 115.246 84.63 115.249C84.7592 115.253 84.857 115.258 84.9233 115.264V116.457C84.8835 116.447 84.7924 116.433 84.6499 116.413C84.5107 116.389 84.3632 116.378 84.2074 116.378C83.8362 116.378 83.5047 116.456 83.2131 116.612C82.9247 116.764 82.696 116.976 82.527 117.248C82.3613 117.516 82.2784 117.823 82.2784 118.168V123H81.1051ZM88.5613 123.179C88.0774 123.179 87.6382 123.088 87.2438 122.906C86.8494 122.72 86.5362 122.453 86.3042 122.105C86.0721 121.754 85.9561 121.33 85.9561 120.832C85.9561 120.395 86.0423 120.04 86.2147 119.768C86.387 119.493 86.6174 119.278 86.9057 119.122C87.1941 118.966 87.5123 118.85 87.8603 118.774C88.2116 118.695 88.5646 118.632 88.9192 118.585C89.3832 118.526 89.7594 118.481 90.0478 118.451C90.3394 118.418 90.5516 118.363 90.6841 118.287C90.82 118.211 90.888 118.078 90.888 117.889V117.849C90.888 117.359 90.7537 116.978 90.4853 116.706C90.2201 116.434 89.8174 116.298 89.2772 116.298C88.717 116.298 88.2779 116.421 87.9597 116.666C87.6415 116.911 87.4178 117.173 87.2885 117.452L86.1749 117.054C86.3738 116.59 86.6389 116.229 86.9703 115.97C87.3051 115.708 87.6697 115.526 88.0641 115.423C88.4618 115.317 88.8529 115.264 89.2374 115.264C89.4827 115.264 89.7644 115.294 90.0826 115.354C90.4041 115.41 90.714 115.528 91.0123 115.707C91.3139 115.886 91.5641 116.156 91.763 116.517C91.9618 116.878 92.0613 117.362 92.0613 117.969V123H90.888V121.966H90.8283C90.7488 122.132 90.6162 122.309 90.4306 122.498C90.245 122.687 89.998 122.848 89.6898 122.98C89.3816 123.113 89.0054 123.179 88.5613 123.179ZM88.7402 122.125C89.2042 122.125 89.5953 122.034 89.9135 121.852C90.235 121.669 90.477 121.434 90.6394 121.146C90.8051 120.857 90.888 120.554 90.888 120.236V119.162C90.8382 119.222 90.7289 119.276 90.5598 119.326C90.3941 119.372 90.2019 119.414 89.9831 119.45C89.7677 119.483 89.5572 119.513 89.3517 119.54C89.1496 119.563 88.9855 119.583 88.8596 119.599C88.5546 119.639 88.2696 119.704 88.0044 119.793C87.7426 119.879 87.5305 120.01 87.3681 120.186C87.209 120.358 87.1294 120.594 87.1294 120.892C87.1294 121.3 87.2802 121.608 87.5819 121.817C87.8868 122.022 88.2729 122.125 88.7402 122.125ZM103.549 117.074L102.495 117.372C102.429 117.196 102.331 117.026 102.202 116.86C102.076 116.691 101.904 116.552 101.685 116.442C101.466 116.333 101.186 116.278 100.845 116.278C100.377 116.278 99.988 116.386 99.6765 116.602C99.3683 116.814 99.2141 117.084 99.2141 117.412C99.2141 117.704 99.3202 117.934 99.5323 118.103C99.7444 118.272 100.076 118.413 100.527 118.526L101.66 118.804C102.343 118.97 102.852 119.223 103.186 119.565C103.521 119.903 103.689 120.339 103.689 120.872C103.689 121.31 103.563 121.701 103.311 122.045C103.062 122.39 102.714 122.662 102.267 122.861C101.819 123.06 101.299 123.159 100.706 123.159C99.9267 123.159 99.2821 122.99 98.7717 122.652C98.2612 122.314 97.9381 121.82 97.8022 121.17L98.9158 120.892C99.0219 121.303 99.2224 121.611 99.5174 121.817C99.8157 122.022 100.205 122.125 100.686 122.125C101.233 122.125 101.667 122.009 101.988 121.777C102.313 121.542 102.475 121.26 102.475 120.932C102.475 120.667 102.383 120.445 102.197 120.266C102.011 120.083 101.726 119.947 101.342 119.858L100.069 119.56C99.3699 119.394 98.8562 119.137 98.5281 118.789C98.2032 118.438 98.0408 117.999 98.0408 117.472C98.0408 117.041 98.1618 116.66 98.4038 116.328C98.649 115.997 98.9821 115.737 99.4031 115.548C99.8273 115.359 100.308 115.264 100.845 115.264C101.6 115.264 102.194 115.43 102.625 115.761C103.059 116.093 103.367 116.53 103.549 117.074ZM108.656 123.159C107.921 123.159 107.286 122.997 106.752 122.672C106.222 122.344 105.813 121.886 105.524 121.3C105.239 120.71 105.097 120.024 105.097 119.241C105.097 118.459 105.239 117.77 105.524 117.173C105.813 116.573 106.214 116.106 106.727 115.771C107.244 115.433 107.848 115.264 108.537 115.264C108.935 115.264 109.328 115.33 109.715 115.463C110.103 115.596 110.456 115.811 110.774 116.109C111.093 116.404 111.346 116.795 111.535 117.283C111.724 117.77 111.818 118.37 111.818 119.082V119.58H105.932V118.565H110.625C110.625 118.134 110.539 117.75 110.367 117.412C110.198 117.074 109.956 116.807 109.641 116.612C109.329 116.416 108.961 116.318 108.537 116.318C108.07 116.318 107.665 116.434 107.324 116.666C106.986 116.895 106.726 117.193 106.544 117.561C106.361 117.929 106.27 118.323 106.27 118.744V119.42C106.27 119.997 106.369 120.486 106.568 120.887C106.771 121.285 107.051 121.588 107.409 121.797C107.767 122.002 108.182 122.105 108.656 122.105C108.965 122.105 109.243 122.062 109.492 121.976C109.744 121.886 109.961 121.754 110.143 121.578C110.325 121.399 110.466 121.177 110.566 120.912L111.699 121.23C111.58 121.615 111.379 121.953 111.097 122.244C110.816 122.533 110.468 122.758 110.053 122.92C109.639 123.08 109.173 123.159 108.656 123.159ZM118.416 119.878V115.364H119.589V123H118.416V121.707H118.336C118.157 122.095 117.879 122.425 117.501 122.697C117.123 122.965 116.646 123.099 116.069 123.099C115.592 123.099 115.168 122.995 114.796 122.786C114.425 122.574 114.133 122.256 113.921 121.832C113.709 121.404 113.603 120.866 113.603 120.216V115.364H114.776V120.136C114.776 120.693 114.932 121.137 115.244 121.469C115.559 121.8 115.96 121.966 116.447 121.966C116.739 121.966 117.035 121.891 117.337 121.742C117.642 121.593 117.897 121.364 118.102 121.056C118.311 120.748 118.416 120.355 118.416 119.878ZM127.147 117.074L126.093 117.372C126.027 117.196 125.929 117.026 125.8 116.86C125.674 116.691 125.501 116.552 125.283 116.442C125.064 116.333 124.784 116.278 124.442 116.278C123.975 116.278 123.586 116.386 123.274 116.602C122.966 116.814 122.812 117.084 122.812 117.412C122.812 117.704 122.918 117.934 123.13 118.103C123.342 118.272 123.674 118.413 124.124 118.526L125.258 118.804C125.941 118.97 126.449 119.223 126.784 119.565C127.119 119.903 127.286 120.339 127.286 120.872C127.286 121.31 127.16 121.701 126.908 122.045C126.66 122.39 126.312 122.662 125.864 122.861C125.417 123.06 124.897 123.159 124.303 123.159C123.524 123.159 122.88 122.99 122.369 122.652C121.859 122.314 121.536 121.82 121.4 121.17L122.513 120.892C122.62 121.303 122.82 121.611 123.115 121.817C123.413 122.022 123.803 122.125 124.283 122.125C124.83 122.125 125.264 122.009 125.586 121.777C125.911 121.542 126.073 121.26 126.073 120.932C126.073 120.667 125.98 120.445 125.795 120.266C125.609 120.083 125.324 119.947 124.94 119.858L123.667 119.56C122.968 119.394 122.454 119.137 122.126 118.789C121.801 118.438 121.638 117.999 121.638 117.472C121.638 117.041 121.759 116.66 122.001 116.328C122.247 115.997 122.58 115.737 123.001 115.548C123.425 115.359 123.906 115.264 124.442 115.264C125.198 115.264 125.791 115.43 126.222 115.761C126.656 116.093 126.965 116.53 127.147 117.074ZM135.873 123.159C135.237 123.159 134.675 122.998 134.188 122.677C133.701 122.352 133.32 121.895 133.045 121.305C132.769 120.711 132.632 120.01 132.632 119.202C132.632 118.4 132.769 117.704 133.045 117.114C133.32 116.524 133.702 116.068 134.193 115.746C134.684 115.425 135.25 115.264 135.893 115.264C136.39 115.264 136.783 115.347 137.072 115.513C137.363 115.675 137.585 115.861 137.738 116.07C137.894 116.275 138.015 116.444 138.101 116.577H138.2V112.818H139.373V123H138.24V121.827H138.101C138.015 121.966 137.892 122.142 137.733 122.354C137.574 122.562 137.347 122.75 137.052 122.915C136.757 123.078 136.364 123.159 135.873 123.159ZM136.032 122.105C136.503 122.105 136.901 121.982 137.226 121.737C137.55 121.489 137.797 121.146 137.966 120.708C138.135 120.267 138.22 119.759 138.22 119.182C138.22 118.612 138.137 118.113 137.971 117.685C137.806 117.254 137.56 116.92 137.236 116.681C136.911 116.439 136.51 116.318 136.032 116.318C135.535 116.318 135.121 116.446 134.79 116.701C134.461 116.953 134.215 117.296 134.049 117.73C133.886 118.161 133.805 118.645 133.805 119.182C133.805 119.725 133.888 120.219 134.054 120.663C134.223 121.104 134.471 121.455 134.8 121.717C135.131 121.976 135.542 122.105 136.032 122.105ZM143.932 123.179C143.448 123.179 143.009 123.088 142.615 122.906C142.22 122.72 141.907 122.453 141.675 122.105C141.443 121.754 141.327 121.33 141.327 120.832C141.327 120.395 141.413 120.04 141.586 119.768C141.758 119.493 141.988 119.278 142.277 119.122C142.565 118.966 142.883 118.85 143.231 118.774C143.583 118.695 143.936 118.632 144.29 118.585C144.754 118.526 145.131 118.481 145.419 118.451C145.711 118.418 145.923 118.363 146.055 118.287C146.191 118.211 146.259 118.078 146.259 117.889V117.849C146.259 117.359 146.125 116.978 145.856 116.706C145.591 116.434 145.189 116.298 144.648 116.298C144.088 116.298 143.649 116.421 143.331 116.666C143.013 116.911 142.789 117.173 142.66 117.452L141.546 117.054C141.745 116.59 142.01 116.229 142.341 115.97C142.676 115.708 143.041 115.526 143.435 115.423C143.833 115.317 144.224 115.264 144.608 115.264C144.854 115.264 145.135 115.294 145.454 115.354C145.775 115.41 146.085 115.528 146.383 115.707C146.685 115.886 146.935 116.156 147.134 116.517C147.333 116.878 147.432 117.362 147.432 117.969V123H146.259V121.966H146.199C146.12 122.132 145.987 122.309 145.802 122.498C145.616 122.687 145.369 122.848 145.061 122.98C144.753 123.113 144.376 123.179 143.932 123.179ZM144.111 122.125C144.575 122.125 144.966 122.034 145.285 121.852C145.606 121.669 145.848 121.434 146.01 121.146C146.176 120.857 146.259 120.554 146.259 120.236V119.162C146.209 119.222 146.1 119.276 145.931 119.326C145.765 119.372 145.573 119.414 145.354 119.45C145.139 119.483 144.928 119.513 144.723 119.54C144.521 119.563 144.357 119.583 144.231 119.599C143.926 119.639 143.641 119.704 143.376 119.793C143.114 119.879 142.902 120.01 142.739 120.186C142.58 120.358 142.501 120.594 142.501 120.892C142.501 121.3 142.651 121.608 142.953 121.817C143.258 122.022 143.644 122.125 144.111 122.125ZM152.457 123.159C151.821 123.159 151.259 122.998 150.772 122.677C150.285 122.352 149.904 121.895 149.629 121.305C149.353 120.711 149.216 120.01 149.216 119.202C149.216 118.4 149.353 117.704 149.629 117.114C149.904 116.524 150.286 116.068 150.777 115.746C151.268 115.425 151.834 115.264 152.477 115.264C152.974 115.264 153.367 115.347 153.656 115.513C153.947 115.675 154.169 115.861 154.322 116.07C154.478 116.275 154.598 116.444 154.685 116.577H154.784V112.818H155.957V123H154.824V121.827H154.685C154.598 121.966 154.476 122.142 154.317 122.354C154.158 122.562 153.931 122.75 153.636 122.915C153.341 123.078 152.948 123.159 152.457 123.159ZM152.616 122.105C153.087 122.105 153.485 121.982 153.81 121.737C154.134 121.489 154.381 121.146 154.55 120.708C154.719 120.267 154.804 119.759 154.804 119.182C154.804 118.612 154.721 118.113 154.555 117.685C154.39 117.254 154.144 116.92 153.82 116.681C153.495 116.439 153.094 116.318 152.616 116.318C152.119 116.318 151.705 116.446 151.374 116.701C151.045 116.953 150.799 117.296 150.633 117.73C150.47 118.161 150.389 118.645 150.389 119.182C150.389 119.725 150.472 120.219 150.638 120.663C150.807 121.104 151.055 121.455 151.384 121.717C151.715 121.976 152.126 122.105 152.616 122.105ZM161.371 123.159C160.682 123.159 160.077 122.995 159.557 122.667C159.04 122.339 158.635 121.88 158.344 121.29C158.055 120.7 157.911 120.01 157.911 119.222C157.911 118.426 158.055 117.732 158.344 117.138C158.635 116.545 159.04 116.085 159.557 115.756C160.077 115.428 160.682 115.264 161.371 115.264C162.061 115.264 162.664 115.428 163.181 115.756C163.701 116.085 164.106 116.545 164.394 117.138C164.686 117.732 164.832 118.426 164.832 119.222C164.832 120.01 164.686 120.7 164.394 121.29C164.106 121.88 163.701 122.339 163.181 122.667C162.664 122.995 162.061 123.159 161.371 123.159ZM161.371 122.105C161.895 122.105 162.326 121.971 162.664 121.702C163.002 121.434 163.252 121.081 163.415 120.643C163.577 120.206 163.658 119.732 163.658 119.222C163.658 118.711 163.577 118.236 163.415 117.795C163.252 117.354 163.002 116.998 162.664 116.726C162.326 116.454 161.895 116.318 161.371 116.318C160.848 116.318 160.417 116.454 160.079 116.726C159.741 116.998 159.491 117.354 159.328 117.795C159.166 118.236 159.085 118.711 159.085 119.222C159.085 119.732 159.166 120.206 159.328 120.643C159.491 121.081 159.741 121.434 160.079 121.702C160.417 121.971 160.848 122.105 161.371 122.105ZM172.032 117.074L170.978 117.372C170.912 117.196 170.814 117.026 170.684 116.86C170.559 116.691 170.386 116.552 170.167 116.442C169.949 116.333 169.669 116.278 169.327 116.278C168.86 116.278 168.47 116.386 168.159 116.602C167.851 116.814 167.697 117.084 167.697 117.412C167.697 117.704 167.803 117.934 168.015 118.103C168.227 118.272 168.558 118.413 169.009 118.526L170.143 118.804C170.825 118.97 171.334 119.223 171.669 119.565C172.004 119.903 172.171 120.339 172.171 120.872C172.171 121.31 172.045 121.701 171.793 122.045C171.545 122.39 171.197 122.662 170.749 122.861C170.302 123.06 169.781 123.159 169.188 123.159C168.409 123.159 167.765 122.99 167.254 122.652C166.744 122.314 166.421 121.82 166.285 121.17L167.398 120.892C167.504 121.303 167.705 121.611 168 121.817C168.298 122.022 168.688 122.125 169.168 122.125C169.715 122.125 170.149 122.009 170.471 121.777C170.796 121.542 170.958 121.26 170.958 120.932C170.958 120.667 170.865 120.445 170.68 120.266C170.494 120.083 170.209 119.947 169.824 119.858L168.552 119.56C167.852 119.394 167.339 119.137 167.01 118.789C166.686 118.438 166.523 117.999 166.523 117.472C166.523 117.041 166.644 116.66 166.886 116.328C167.131 115.997 167.465 115.737 167.885 115.548C168.31 115.359 168.79 115.264 169.327 115.264C170.083 115.264 170.676 115.43 171.107 115.761C171.541 116.093 171.849 116.53 172.032 117.074ZM181.076 123.159C180.341 123.159 179.706 122.997 179.172 122.672C178.642 122.344 178.233 121.886 177.944 121.3C177.659 120.71 177.517 120.024 177.517 119.241C177.517 118.459 177.659 117.77 177.944 117.173C178.233 116.573 178.634 116.106 179.147 115.771C179.664 115.433 180.268 115.264 180.957 115.264C181.355 115.264 181.748 115.33 182.135 115.463C182.523 115.596 182.876 115.811 183.194 116.109C183.512 116.404 183.766 116.795 183.955 117.283C184.144 117.77 184.238 118.37 184.238 119.082V119.58H178.352V118.565H183.045C183.045 118.134 182.959 117.75 182.787 117.412C182.618 117.074 182.376 116.807 182.061 116.612C181.749 116.416 181.381 116.318 180.957 116.318C180.49 116.318 180.085 116.434 179.744 116.666C179.406 116.895 179.146 117.193 178.963 117.561C178.781 117.929 178.69 118.323 178.69 118.744V119.42C178.69 119.997 178.789 120.486 178.988 120.887C179.19 121.285 179.471 121.588 179.828 121.797C180.186 122.002 180.602 122.105 181.076 122.105C181.385 122.105 181.663 122.062 181.912 121.976C182.163 121.886 182.381 121.754 182.563 121.578C182.745 121.399 182.886 121.177 182.985 120.912L184.119 121.23C184 121.615 183.799 121.953 183.517 122.244C183.236 122.533 182.888 122.758 182.473 122.92C182.059 123.08 181.593 123.159 181.076 123.159ZM192.208 123.179C191.724 123.179 191.285 123.088 190.89 122.906C190.496 122.72 190.183 122.453 189.951 122.105C189.719 121.754 189.603 121.33 189.603 120.832C189.603 120.395 189.689 120.04 189.861 119.768C190.033 119.493 190.264 119.278 190.552 119.122C190.841 118.966 191.159 118.85 191.507 118.774C191.858 118.695 192.211 118.632 192.566 118.585C193.03 118.526 193.406 118.481 193.694 118.451C193.986 118.418 194.198 118.363 194.331 118.287C194.467 118.211 194.534 118.078 194.534 117.889V117.849C194.534 117.359 194.4 116.978 194.132 116.706C193.867 116.434 193.464 116.298 192.924 116.298C192.364 116.298 191.924 116.421 191.606 116.666C191.288 116.911 191.064 117.173 190.935 117.452L189.821 117.054C190.02 116.59 190.285 116.229 190.617 115.97C190.952 115.708 191.316 115.526 191.711 115.423C192.108 115.317 192.499 115.264 192.884 115.264C193.129 115.264 193.411 115.294 193.729 115.354C194.051 115.41 194.36 115.528 194.659 115.707C194.96 115.886 195.211 116.156 195.409 116.517C195.608 116.878 195.708 117.362 195.708 117.969V123H194.534V121.966H194.475C194.395 122.132 194.263 122.309 194.077 122.498C193.891 122.687 193.645 122.848 193.336 122.98C193.028 123.113 192.652 123.179 192.208 123.179ZM192.387 122.125C192.851 122.125 193.242 122.034 193.56 121.852C193.882 121.669 194.123 121.434 194.286 121.146C194.452 120.857 194.534 120.554 194.534 120.236V119.162C194.485 119.222 194.375 119.276 194.206 119.326C194.041 119.372 193.848 119.414 193.63 119.45C193.414 119.483 193.204 119.513 192.998 119.54C192.796 119.563 192.632 119.583 192.506 119.599C192.201 119.639 191.916 119.704 191.651 119.793C191.389 119.879 191.177 120.01 191.015 120.186C190.855 120.358 190.776 120.594 190.776 120.892C190.776 121.3 190.927 121.608 191.228 121.817C191.533 122.022 191.919 122.125 192.387 122.125ZM200.952 123.159C200.236 123.159 199.619 122.99 199.102 122.652C198.585 122.314 198.187 121.848 197.909 121.255C197.631 120.662 197.491 119.984 197.491 119.222C197.491 118.446 197.634 117.762 197.919 117.168C198.207 116.572 198.608 116.106 199.122 115.771C199.639 115.433 200.242 115.264 200.932 115.264C201.469 115.264 201.952 115.364 202.383 115.562C202.814 115.761 203.167 116.04 203.442 116.398C203.717 116.756 203.888 117.173 203.954 117.651H202.781C202.692 117.303 202.493 116.994 202.184 116.726C201.88 116.454 201.469 116.318 200.952 116.318C200.494 116.318 200.093 116.437 199.748 116.676C199.407 116.911 199.14 117.245 198.948 117.675C198.759 118.103 198.665 118.605 198.665 119.182C198.665 119.772 198.757 120.286 198.943 120.723C199.132 121.161 199.397 121.5 199.738 121.742C200.083 121.984 200.488 122.105 200.952 122.105C201.256 122.105 201.533 122.052 201.782 121.946C202.03 121.84 202.241 121.688 202.413 121.489C202.586 121.29 202.708 121.051 202.781 120.773H203.954C203.888 121.223 203.724 121.629 203.462 121.991C203.204 122.349 202.861 122.634 202.433 122.846C202.009 123.055 201.515 123.159 200.952 123.159ZM208.871 123.159C208.135 123.159 207.501 122.997 206.967 122.672C206.437 122.344 206.028 121.886 205.739 121.3C205.454 120.71 205.312 120.024 205.312 119.241C205.312 118.459 205.454 117.77 205.739 117.173C206.028 116.573 206.429 116.106 206.942 115.771C207.459 115.433 208.063 115.264 208.752 115.264C209.15 115.264 209.542 115.33 209.93 115.463C210.318 115.596 210.671 115.811 210.989 116.109C211.307 116.404 211.561 116.795 211.75 117.283C211.939 117.77 212.033 118.37 212.033 119.082V119.58H206.147V118.565H210.84C210.84 118.134 210.754 117.75 210.581 117.412C210.412 117.074 210.171 116.807 209.856 116.612C209.544 116.416 209.176 116.318 208.752 116.318C208.285 116.318 207.88 116.434 207.539 116.666C207.201 116.895 206.941 117.193 206.758 117.561C206.576 117.929 206.485 118.323 206.485 118.744V119.42C206.485 119.997 206.584 120.486 206.783 120.887C206.985 121.285 207.265 121.588 207.623 121.797C207.981 122.002 208.397 122.105 208.871 122.105C209.18 122.105 209.458 122.062 209.706 121.976C209.958 121.886 210.175 121.754 210.358 121.578C210.54 121.399 210.681 121.177 210.78 120.912L211.914 121.23C211.795 121.615 211.594 121.953 211.312 122.244C211.031 122.533 210.683 122.758 210.268 122.92C209.854 123.08 209.388 123.159 208.871 123.159ZM219.227 117.074L218.173 117.372C218.107 117.196 218.009 117.026 217.88 116.86C217.754 116.691 217.581 116.552 217.363 116.442C217.144 116.333 216.864 116.278 216.523 116.278C216.055 116.278 215.666 116.386 215.354 116.602C215.046 116.814 214.892 117.084 214.892 117.412C214.892 117.704 214.998 117.934 215.21 118.103C215.422 118.272 215.754 118.413 216.204 118.526L217.338 118.804C218.021 118.97 218.529 119.223 218.864 119.565C219.199 119.903 219.366 120.339 219.366 120.872C219.366 121.31 219.24 121.701 218.988 122.045C218.74 122.39 218.392 122.662 217.944 122.861C217.497 123.06 216.977 123.159 216.383 123.159C215.604 123.159 214.96 122.99 214.449 122.652C213.939 122.314 213.616 121.82 213.48 121.17L214.594 120.892C214.7 121.303 214.9 121.611 215.195 121.817C215.493 122.022 215.883 122.125 216.363 122.125C216.91 122.125 217.345 122.009 217.666 121.777C217.991 121.542 218.153 121.26 218.153 120.932C218.153 120.667 218.06 120.445 217.875 120.266C217.689 120.083 217.404 119.947 217.02 119.858L215.747 119.56C215.048 119.394 214.534 119.137 214.206 118.789C213.881 118.438 213.719 117.999 213.719 117.472C213.719 117.041 213.84 116.66 214.081 116.328C214.327 115.997 214.66 115.737 215.081 115.548C215.505 115.359 215.986 115.264 216.523 115.264C217.278 115.264 217.872 115.43 218.302 115.761C218.737 116.093 219.045 116.53 219.227 117.074ZM226.542 117.074L225.488 117.372C225.421 117.196 225.324 117.026 225.194 116.86C225.068 116.691 224.896 116.552 224.677 116.442C224.458 116.333 224.178 116.278 223.837 116.278C223.37 116.278 222.98 116.386 222.669 116.602C222.36 116.814 222.206 117.084 222.206 117.412C222.206 117.704 222.312 117.934 222.525 118.103C222.737 118.272 223.068 118.413 223.519 118.526L224.652 118.804C225.335 118.97 225.844 119.223 226.179 119.565C226.513 119.903 226.681 120.339 226.681 120.872C226.681 121.31 226.555 121.701 226.303 122.045C226.054 122.39 225.706 122.662 225.259 122.861C224.811 123.06 224.291 123.159 223.698 123.159C222.919 123.159 222.274 122.99 221.764 122.652C221.253 122.314 220.93 121.82 220.794 121.17L221.908 120.892C222.014 121.303 222.215 121.611 222.51 121.817C222.808 122.022 223.197 122.125 223.678 122.125C224.225 122.125 224.659 122.009 224.98 121.777C225.305 121.542 225.468 121.26 225.468 120.932C225.468 120.667 225.375 120.445 225.189 120.266C225.004 120.083 224.719 119.947 224.334 119.858L223.061 119.56C222.362 119.394 221.848 119.137 221.52 118.789C221.195 118.438 221.033 117.999 221.033 117.472C221.033 117.041 221.154 116.66 221.396 116.328C221.641 115.997 221.974 115.737 222.395 115.548C222.819 115.359 223.3 115.264 223.837 115.264C224.593 115.264 225.186 115.43 225.617 115.761C226.051 116.093 226.359 116.53 226.542 117.074ZM231.649 123.159C230.913 123.159 230.278 122.997 229.744 122.672C229.214 122.344 228.805 121.886 228.517 121.3C228.231 120.71 228.089 120.024 228.089 119.241C228.089 118.459 228.231 117.77 228.517 117.173C228.805 116.573 229.206 116.106 229.72 115.771C230.237 115.433 230.84 115.264 231.529 115.264C231.927 115.264 232.32 115.33 232.708 115.463C233.095 115.596 233.448 115.811 233.767 116.109C234.085 116.404 234.338 116.795 234.527 117.283C234.716 117.77 234.811 118.37 234.811 119.082V119.58H228.924V118.565H233.617C233.617 118.134 233.531 117.75 233.359 117.412C233.19 117.074 232.948 116.807 232.633 116.612C232.321 116.416 231.954 116.318 231.529 116.318C231.062 116.318 230.658 116.434 230.316 116.666C229.978 116.895 229.718 117.193 229.536 117.561C229.353 117.929 229.262 118.323 229.262 118.744V119.42C229.262 119.997 229.362 120.486 229.561 120.887C229.763 121.285 230.043 121.588 230.401 121.797C230.759 122.002 231.175 122.105 231.649 122.105C231.957 122.105 232.235 122.062 232.484 121.976C232.736 121.886 232.953 121.754 233.135 121.578C233.317 121.399 233.458 121.177 233.558 120.912L234.691 121.23C234.572 121.615 234.371 121.953 234.09 122.244C233.808 122.533 233.46 122.758 233.046 122.92C232.631 123.08 232.166 123.159 231.649 123.159ZM242.78 123.179C242.296 123.179 241.857 123.088 241.463 122.906C241.068 122.72 240.755 122.453 240.523 122.105C240.291 121.754 240.175 121.33 240.175 120.832C240.175 120.395 240.261 120.04 240.433 119.768C240.606 119.493 240.836 119.278 241.124 119.122C241.413 118.966 241.731 118.85 242.079 118.774C242.43 118.695 242.783 118.632 243.138 118.585C243.602 118.526 243.978 118.481 244.267 118.451C244.558 118.418 244.77 118.363 244.903 118.287C245.039 118.211 245.107 118.078 245.107 117.889V117.849C245.107 117.359 244.972 116.978 244.704 116.706C244.439 116.434 244.036 116.298 243.496 116.298C242.936 116.298 242.497 116.421 242.178 116.666C241.86 116.911 241.637 117.173 241.507 117.452L240.394 117.054C240.593 116.59 240.858 116.229 241.189 115.97C241.524 115.708 241.888 115.526 242.283 115.423C242.681 115.317 243.072 115.264 243.456 115.264C243.701 115.264 243.983 115.294 244.301 115.354C244.623 115.41 244.933 115.528 245.231 115.707C245.533 115.886 245.783 116.156 245.982 116.517C246.181 116.878 246.28 117.362 246.28 117.969V123H245.107V121.966H245.047C244.968 122.132 244.835 122.309 244.649 122.498C244.464 122.687 244.217 122.848 243.909 122.98C243.6 123.113 243.224 123.179 242.78 123.179ZM242.959 122.125C243.423 122.125 243.814 122.034 244.132 121.852C244.454 121.669 244.696 121.434 244.858 121.146C245.024 120.857 245.107 120.554 245.107 120.236V119.162C245.057 119.222 244.948 119.276 244.779 119.326C244.613 119.372 244.421 119.414 244.202 119.45C243.986 119.483 243.776 119.513 243.57 119.54C243.368 119.563 243.204 119.583 243.078 119.599C242.773 119.639 242.488 119.704 242.223 119.793C241.961 119.879 241.749 120.01 241.587 120.186C241.428 120.358 241.348 120.594 241.348 120.892C241.348 121.3 241.499 121.608 241.801 121.817C242.106 122.022 242.492 122.125 242.959 122.125ZM252.359 125.864V115.364H253.493V116.577H253.632C253.718 116.444 253.837 116.275 253.99 116.07C254.145 115.861 254.368 115.675 254.656 115.513C254.948 115.347 255.342 115.264 255.839 115.264C256.482 115.264 257.049 115.425 257.539 115.746C258.03 116.068 258.413 116.524 258.688 117.114C258.963 117.704 259.1 118.4 259.1 119.202C259.1 120.01 258.963 120.711 258.688 121.305C258.413 121.895 258.032 122.352 257.544 122.677C257.057 122.998 256.495 123.159 255.859 123.159C255.368 123.159 254.976 123.078 254.681 122.915C254.386 122.75 254.159 122.562 254 122.354C253.841 122.142 253.718 121.966 253.632 121.827H253.532V125.864H252.359ZM253.512 119.182C253.512 119.759 253.597 120.267 253.766 120.708C253.935 121.146 254.182 121.489 254.507 121.737C254.832 121.982 255.229 122.105 255.7 122.105C256.19 122.105 256.6 121.976 256.928 121.717C257.259 121.455 257.508 121.104 257.674 120.663C257.843 120.219 257.927 119.725 257.927 119.182C257.927 118.645 257.844 118.161 257.679 117.73C257.516 117.296 257.269 116.953 256.938 116.701C256.61 116.446 256.197 116.318 255.7 116.318C255.223 116.318 254.822 116.439 254.497 116.681C254.172 116.92 253.927 117.254 253.761 117.685C253.595 118.113 253.512 118.612 253.512 119.182ZM262.064 112.818V123H260.89V112.818H262.064ZM266.46 123.179C265.976 123.179 265.537 123.088 265.142 122.906C264.748 122.72 264.435 122.453 264.203 122.105C263.971 121.754 263.855 121.33 263.855 120.832C263.855 120.395 263.941 120.04 264.113 119.768C264.285 119.493 264.516 119.278 264.804 119.122C265.093 118.966 265.411 118.85 265.759 118.774C266.11 118.695 266.463 118.632 266.818 118.585C267.282 118.526 267.658 118.481 267.946 118.451C268.238 118.418 268.45 118.363 268.583 118.287C268.718 118.211 268.786 118.078 268.786 117.889V117.849C268.786 117.359 268.652 116.978 268.384 116.706C268.119 116.434 267.716 116.298 267.176 116.298C266.615 116.298 266.176 116.421 265.858 116.666C265.54 116.911 265.316 117.173 265.187 117.452L264.073 117.054C264.272 116.59 264.537 116.229 264.869 115.97C265.204 115.708 265.568 115.526 265.963 115.423C266.36 115.317 266.751 115.264 267.136 115.264C267.381 115.264 267.663 115.294 267.981 115.354C268.302 115.41 268.612 115.528 268.911 115.707C269.212 115.886 269.463 116.156 269.661 116.517C269.86 116.878 269.96 117.362 269.96 117.969V123H268.786V121.966H268.727C268.647 122.132 268.515 122.309 268.329 122.498C268.143 122.687 267.896 122.848 267.588 122.98C267.28 123.113 266.904 123.179 266.46 123.179ZM266.639 122.125C267.103 122.125 267.494 122.034 267.812 121.852C268.133 121.669 268.375 121.434 268.538 121.146C268.704 120.857 268.786 120.554 268.786 120.236V119.162C268.737 119.222 268.627 119.276 268.458 119.326C268.293 119.372 268.1 119.414 267.882 119.45C267.666 119.483 267.456 119.513 267.25 119.54C267.048 119.563 266.884 119.583 266.758 119.599C266.453 119.639 266.168 119.704 265.903 119.793C265.641 119.879 265.429 120.01 265.267 120.186C265.107 120.358 265.028 120.594 265.028 120.892C265.028 121.3 265.179 121.608 265.48 121.817C265.785 122.022 266.171 122.125 266.639 122.125ZM275.422 115.364V116.358H271.465V115.364H275.422ZM272.618 113.534H273.792V120.812C273.792 121.144 273.84 121.393 273.936 121.558C274.035 121.721 274.161 121.83 274.314 121.886C274.469 121.939 274.633 121.966 274.806 121.966C274.935 121.966 275.041 121.959 275.124 121.946C275.207 121.929 275.273 121.916 275.323 121.906L275.561 122.96C275.482 122.99 275.371 123.02 275.228 123.05C275.086 123.083 274.905 123.099 274.686 123.099C274.355 123.099 274.03 123.028 273.712 122.886C273.397 122.743 273.135 122.526 272.926 122.234C272.721 121.943 272.618 121.575 272.618 121.131V113.534ZM279.434 123.179C278.95 123.179 278.511 123.088 278.117 122.906C277.722 122.72 277.409 122.453 277.177 122.105C276.945 121.754 276.829 121.33 276.829 120.832C276.829 120.395 276.915 120.04 277.088 119.768C277.26 119.493 277.49 119.278 277.779 119.122C278.067 118.966 278.385 118.85 278.733 118.774C279.085 118.695 279.438 118.632 279.792 118.585C280.256 118.526 280.632 118.481 280.921 118.451C281.212 118.418 281.425 118.363 281.557 118.287C281.693 118.211 281.761 118.078 281.761 117.889V117.849C281.761 117.359 281.627 116.978 281.358 116.706C281.093 116.434 280.69 116.298 280.15 116.298C279.59 116.298 279.151 116.421 278.833 116.666C278.515 116.911 278.291 117.173 278.162 117.452L277.048 117.054C277.247 116.59 277.512 116.229 277.843 115.97C278.178 115.708 278.543 115.526 278.937 115.423C279.335 115.317 279.726 115.264 280.11 115.264C280.356 115.264 280.637 115.294 280.956 115.354C281.277 115.41 281.587 115.528 281.885 115.707C282.187 115.886 282.437 116.156 282.636 116.517C282.835 116.878 282.934 117.362 282.934 117.969V123H281.761V121.966H281.701C281.622 122.132 281.489 122.309 281.304 122.498C281.118 122.687 280.871 122.848 280.563 122.98C280.255 123.113 279.878 123.179 279.434 123.179ZM279.613 122.125C280.077 122.125 280.468 122.034 280.787 121.852C281.108 121.669 281.35 121.434 281.512 121.146C281.678 120.857 281.761 120.554 281.761 120.236V119.162C281.711 119.222 281.602 119.276 281.433 119.326C281.267 119.372 281.075 119.414 280.856 119.45C280.641 119.483 280.43 119.513 280.225 119.54C280.023 119.563 279.859 119.583 279.733 119.599C279.428 119.639 279.143 119.704 278.877 119.793C278.616 119.879 278.404 120.01 278.241 120.186C278.082 120.358 278.002 120.594 278.002 120.892C278.002 121.3 278.153 121.608 278.455 121.817C278.76 122.022 279.146 122.125 279.613 122.125ZM288.476 115.364V116.358H284.36V115.364H288.476ZM285.593 123V114.31C285.593 113.872 285.696 113.508 285.901 113.216C286.107 112.924 286.373 112.705 286.702 112.56C287.03 112.414 287.376 112.341 287.741 112.341C288.029 112.341 288.264 112.364 288.447 112.411C288.629 112.457 288.765 112.5 288.854 112.54L288.516 113.554C288.456 113.534 288.374 113.509 288.268 113.479C288.165 113.45 288.029 113.435 287.86 113.435C287.472 113.435 287.192 113.532 287.02 113.728C286.851 113.924 286.766 114.21 286.766 114.588V123H285.593ZM292.909 123.159C292.219 123.159 291.614 122.995 291.094 122.667C290.577 122.339 290.173 121.88 289.881 121.29C289.593 120.7 289.448 120.01 289.448 119.222C289.448 118.426 289.593 117.732 289.881 117.138C290.173 116.545 290.577 116.085 291.094 115.756C291.614 115.428 292.219 115.264 292.909 115.264C293.598 115.264 294.201 115.428 294.718 115.756C295.239 116.085 295.643 116.545 295.931 117.138C296.223 117.732 296.369 118.426 296.369 119.222C296.369 120.01 296.223 120.7 295.931 121.29C295.643 121.88 295.239 122.339 294.718 122.667C294.201 122.995 293.598 123.159 292.909 123.159ZM292.909 122.105C293.432 122.105 293.863 121.971 294.201 121.702C294.539 121.434 294.789 121.081 294.952 120.643C295.114 120.206 295.195 119.732 295.195 119.222C295.195 118.711 295.114 118.236 294.952 117.795C294.789 117.354 294.539 116.998 294.201 116.726C293.863 116.454 293.432 116.318 292.909 116.318C292.385 116.318 291.954 116.454 291.616 116.726C291.278 116.998 291.028 117.354 290.865 117.795C290.703 118.236 290.622 118.711 290.622 119.222C290.622 119.732 290.703 120.206 290.865 120.643C291.028 121.081 291.278 121.434 291.616 121.702C291.954 121.971 292.385 122.105 292.909 122.105ZM298.16 123V115.364H299.293V116.517H299.373C299.512 116.139 299.764 115.833 300.129 115.597C300.493 115.362 300.904 115.244 301.362 115.244C301.448 115.244 301.555 115.246 301.685 115.249C301.814 115.253 301.912 115.258 301.978 115.264V116.457C301.938 116.447 301.847 116.433 301.705 116.413C301.565 116.389 301.418 116.378 301.262 116.378C300.891 116.378 300.559 116.456 300.268 116.612C299.979 116.764 299.751 116.976 299.582 117.248C299.416 117.516 299.333 117.823 299.333 118.168V123H298.16ZM303.369 123V115.364H304.502V116.557H304.602C304.761 116.149 305.018 115.833 305.372 115.607C305.727 115.379 306.153 115.264 306.65 115.264C307.154 115.264 307.573 115.379 307.908 115.607C308.246 115.833 308.509 116.149 308.698 116.557H308.778C308.973 116.162 309.267 115.849 309.658 115.617C310.049 115.382 310.518 115.264 311.065 115.264C311.748 115.264 312.306 115.478 312.74 115.906C313.174 116.33 313.392 116.991 313.392 117.889V123H312.218V117.889C312.218 117.326 312.064 116.923 311.756 116.681C311.448 116.439 311.085 116.318 310.667 116.318C310.13 116.318 309.714 116.481 309.419 116.805C309.124 117.127 308.977 117.535 308.977 118.028V123H307.784V117.77C307.784 117.336 307.643 116.986 307.361 116.721C307.079 116.452 306.716 116.318 306.272 116.318C305.967 116.318 305.682 116.399 305.417 116.562C305.155 116.724 304.943 116.95 304.781 117.238C304.622 117.523 304.542 117.853 304.542 118.227V123H303.369ZM317.784 123.179C317.3 123.179 316.861 123.088 316.466 122.906C316.072 122.72 315.759 122.453 315.527 122.105C315.295 121.754 315.179 121.33 315.179 120.832C315.179 120.395 315.265 120.04 315.437 119.768C315.61 119.493 315.84 119.278 316.128 119.122C316.417 118.966 316.735 118.85 317.083 118.774C317.434 118.695 317.787 118.632 318.142 118.585C318.606 118.526 318.982 118.481 319.27 118.451C319.562 118.418 319.774 118.363 319.907 118.287C320.043 118.211 320.111 118.078 320.111 117.889V117.849C320.111 117.359 319.976 116.978 319.708 116.706C319.443 116.434 319.04 116.298 318.5 116.298C317.94 116.298 317.501 116.421 317.182 116.666C316.864 116.911 316.64 117.173 316.511 117.452L315.398 117.054C315.596 116.59 315.862 116.229 316.193 115.97C316.528 115.708 316.892 115.526 317.287 115.423C317.684 115.317 318.076 115.264 318.46 115.264C318.705 115.264 318.987 115.294 319.305 115.354C319.627 115.41 319.937 115.528 320.235 115.707C320.537 115.886 320.787 116.156 320.986 116.517C321.184 116.878 321.284 117.362 321.284 117.969V123H320.111V121.966H320.051C319.971 122.132 319.839 122.309 319.653 122.498C319.468 122.687 319.221 122.848 318.912 122.98C318.604 123.113 318.228 123.179 317.784 123.179ZM317.963 122.125C318.427 122.125 318.818 122.034 319.136 121.852C319.458 121.669 319.7 121.434 319.862 121.146C320.028 120.857 320.111 120.554 320.111 120.236V119.162C320.061 119.222 319.952 119.276 319.782 119.326C319.617 119.372 319.425 119.414 319.206 119.45C318.99 119.483 318.78 119.513 318.574 119.54C318.372 119.563 318.208 119.583 318.082 119.599C317.777 119.639 317.492 119.704 317.227 119.793C316.965 119.879 316.753 120.01 316.591 120.186C316.432 120.358 316.352 120.594 316.352 120.892C316.352 121.3 316.503 121.608 316.805 121.817C317.109 122.022 317.496 122.125 317.963 122.125Z" fill="#6C757D"/>
</svg>
