<svg width="12" height="13" viewBox="0 0 12 13" fill="none" xmlns="http://www.w3.org/2000/svg">
<g clip-path="url(#clip0_3226_14447)">
<path d="M6 1.50781C6.14062 1.50781 6.25781 1.55469 6.35156 1.64844C6.44531 1.74219 6.49219 1.85938 6.49219 2V5.65625L9.75 3.80469C9.875 3.74219 10 3.73438 10.125 3.78125C10.2656 3.8125 10.3672 3.89063 10.4297 4.01562C10.5078 4.125 10.5234 4.25 10.4766 4.39062C10.4453 4.51562 10.3672 4.61719 10.2422 4.69531L7.03125 6.5L10.2422 8.30469C10.3672 8.38281 10.4453 8.49219 10.4766 8.63281C10.5234 8.75781 10.5078 8.875 10.4297 8.98438C10.3672 9.10938 10.2656 9.19531 10.125 9.24219C10 9.27344 9.875 9.25781 9.75 9.19531L6.49219 7.34375V11C6.49219 11.1406 6.44531 11.2578 6.35156 11.3516C6.25781 11.4453 6.14062 11.4922 6 11.4922C5.85938 11.4922 5.74219 11.4453 5.64844 11.3516C5.55469 11.2578 5.50781 11.1406 5.50781 11V7.34375L2.25 9.19531C2.125 9.25781 1.99219 9.27344 1.85156 9.24219C1.72656 9.19531 1.63281 9.10938 1.57031 8.98438C1.49219 8.875 1.46875 8.75781 1.5 8.63281C1.54688 8.49219 1.63281 8.38281 1.75781 8.30469L4.96875 6.5L1.75781 4.69531C1.63281 4.61719 1.54688 4.51562 1.5 4.39062C1.46875 4.25 1.49219 4.125 1.57031 4.01562C1.63281 3.89063 1.72656 3.8125 1.85156 3.78125C1.99219 3.73438 2.125 3.74219 2.25 3.80469L5.50781 5.65625V2C5.50781 1.85938 5.55469 1.74219 5.64844 1.64844C5.74219 1.55469 5.85938 1.50781 6 1.50781Z" fill="#6C757D"/>
</g>
<defs>
<clipPath id="clip0_3226_14447">
<rect width="12" height="12" fill="white" transform="translate(0 0.5)"/>
</clipPath>
</defs>
</svg>
