<svg width="268" height="154" viewBox="0 0 268 154" fill="none" xmlns="http://www.w3.org/2000/svg">
<path fill-rule="evenodd" clip-rule="evenodd" d="M144.286 97.5435C142.962 98.9436 159.138 72.0782 144.186 59.6466C129.234 47.2149 107.886 44.3473 105.432 21.3883C102.978 -1.57061 65.4029 -7.33602 39.4779 10.4292C13.5529 28.1945 -16.7991 65.102 15.4069 73.9605C47.6129 82.8189 53.7269 114.705 55.0509 120.692C56.3989 126.677 125.097 123.564 127.335 122.043C129.555 120.498 145.61 96.1434 144.286 97.5435Z" fill="#F6A1FE" fill-opacity="0.15"/>
<path fill-rule="evenodd" clip-rule="evenodd" d="M38.6639 139.35C38.6639 139.35 40.2769 129.647 39.8439 124.577C39.4109 119.532 31.034 100.004 28.144 94.4282C25.254 88.852 34.3059 90.0347 38.8789 95.2244C43.4789 100.39 53.0079 94.1867 55.5359 89.7449C58.0359 85.3031 61.436 108.356 62.6129 112.313C63.7679 116.272 64.1289 132.855 64.1289 132.855C64.1289 132.855 43.6469 135.536 38.6639 139.35Z" fill="#E1DBFC"/>
<path fill-rule="evenodd" clip-rule="evenodd" d="M259.85 27.3258C259.85 27.3258 260.789 25.0108 262.281 22.0918C263.773 19.1729 266.06 17.0471 267.095 17.192C268.13 17.337 266.228 23.5161 266.228 23.5161C266.228 23.5161 268.587 25.0611 266.878 28.3192C265.843 30.4446 264.2 32.2099 262.16 33.3881C261.679 33.4566 259.85 27.3258 259.85 27.3258Z" fill="#F9A9FF"/>
<path fill-rule="evenodd" clip-rule="evenodd" d="M266.59 31.3327C266.59 31.3327 249.837 60.347 242.11 67.129C234.36 73.8878 211.059 84.5329 209.663 86.6808C208.263 88.8529 209.783 115.718 205.763 132.591L158.224 130.032C158.224 130.032 159.524 125.06 161.088 118.658C162.797 111.682 164.843 103.041 165.902 97.345C166.215 95.7275 166.431 94.3254 166.552 93.2897C166.552 93.2897 148.041 108.589 138.533 116.679C132.275 121.99 124.717 119.745 120.263 117.596C118.945 116.976 117.688 116.233 116.508 115.376C116.508 115.376 147.708 86.6033 152.686 82.235C157.669 77.8415 162.17 66.207 172.617 63.5276C181.658 61.0454 190.976 59.7314 200.346 59.6172C210.624 59.3757 227.161 57.9514 230.338 56.4064C232.745 55.2237 245.069 42.1137 253.301 33.5722C255.949 30.8204 258.188 28.5517 259.535 27.2965C259.509 27.2532 265.988 25.8773 266.59 31.3327Z" fill="#48A614"/>
<path fill-rule="evenodd" clip-rule="evenodd" d="M112.754 103.819C112.778 103.795 112.802 103.795 112.826 103.771C112.778 103.795 112.726 103.843 112.682 103.871C112.706 103.871 112.73 103.843 112.754 103.819Z" fill="#E84F4B"/>
<path fill-rule="evenodd" clip-rule="evenodd" d="M253.302 33.5291C252.917 38.1148 252.773 43.0398 250.462 45.6225C246.057 50.5706 237.391 60.0572 225.162 64.812C212.91 69.5669 204.822 74.8049 200.49 98.412C196.158 122.019 173.362 126.002 164.577 122.14C163.779 121.842 163.055 121.373 162.457 120.765C161.858 120.156 161.399 119.423 161.111 118.617C159.474 113.838 163.542 105.945 165.925 97.3028C166.31 95.9028 166.647 94.4785 166.912 93.0543C169.367 79.9955 165.66 77.6785 155.021 88.854C146.021 98.3154 126.136 113.212 120.263 117.554C118.945 116.934 117.688 116.19 116.508 115.334C116.508 115.334 147.708 86.5611 152.686 82.1928C157.669 77.7993 162.17 66.1648 172.617 63.4854C181.658 61.0032 190.976 59.6892 200.346 59.5751C210.624 59.3335 227.161 57.9092 230.338 56.3642C232.722 55.1805 245.046 42.0735 253.302 33.5291Z" fill="#60C02B"/>
<path fill-rule="evenodd" clip-rule="evenodd" d="M197.195 59.719C197.195 59.719 192.91 61.7944 189.54 62.9771C188.878 63.2242 188.203 63.4336 187.518 63.6042C184.218 64.4003 183.718 63.2901 182.872 58.8493C182.85 58.7 182.809 58.554 182.752 58.4145C181.982 56.2666 179.069 56.6521 176.71 55.9988C175.049 55.5398 173.653 54.5987 173.533 51.8469C173.22 44.9914 177.288 37.7021 177.288 37.7021C180.514 30.8467 190.744 31.2815 195.197 34.9986C199.65 38.7157 196.473 46.3915 194.86 50.8333C194.73 51.1855 194.634 51.5491 194.571 51.9194C193.849 55.9536 197.195 59.719 197.195 59.719Z" fill="#F6A1FE"/>
<path fill-rule="evenodd" clip-rule="evenodd" d="M197.195 59.719C197.195 59.719 192.91 61.7954 189.54 62.9781C188.264 60.9499 186.555 57.3777 182.969 58.3682C182.897 58.3923 182.849 58.3924 182.777 58.4165C182.007 56.2686 179.094 56.6541 176.735 56.0008C176.976 56.025 184.341 56.8453 187.135 54.1659C189.976 51.4382 192.31 52.2103 193.562 51.5832C193.827 51.4624 194.188 51.5832 194.597 51.8972C193.849 55.9576 197.195 59.719 197.195 59.719Z" fill="#E38DEB"/>
<path fill-rule="evenodd" clip-rule="evenodd" d="M173.46 31.984C173.46 31.984 171.221 37.3669 175.819 40.9421C180.392 44.4902 187.71 43.3075 187.71 43.3075C187.71 43.3075 188.91 46.7106 189.226 48.0623C189.226 48.0623 189.926 45.3105 192.331 45.5037C194.738 45.6728 195.605 49.245 193.531 51.6587L194.731 52.1418C194.731 52.1418 196.131 46.6381 197.186 43.694C198.241 40.7499 198.678 35.2694 193.142 33.218C187.606 31.1667 185.897 33.822 183.803 31.8421C180.465 28.6776 175.121 28.7037 173.46 31.984Z" fill="#553DCC"/>
<path fill-rule="evenodd" clip-rule="evenodd" d="M98.648 140.532C98.648 140.532 80.956 136.525 80.138 136.26C79.32 135.994 115.738 128.801 115.738 128.801L98.648 140.532Z" fill="#CBD9FC"/>
<path fill-rule="evenodd" clip-rule="evenodd" d="M118.989 115.404C119.037 115.887 118.339 116.973 117.304 118.277C114.44 121.922 108.952 127.425 108.952 127.425L84.8329 134.98C79.4946 134.791 74.1959 133.98 69.0429 132.565C68.3209 132.347 67.5749 132.106 66.8769 131.86C64.0849 132.608 59.0539 133.766 59.0539 133.766C59.3594 132.034 59.9022 130.352 60.6669 128.77C60.6669 128.746 60.6909 128.722 60.6909 128.697C59.4974 127.826 58.4768 126.737 57.6819 125.487C57.5619 125.293 57.4649 125.1 57.3449 124.907C52.5789 115.949 61.4129 105.279 69.7169 94.3003C72.4055 90.7183 76.1177 88.0491 80.3559 86.6506C85.7479 84.7916 91.1639 84.9849 94.5559 85.009C95.3739 85.009 96.0719 85.009 96.6259 84.9848C101.175 84.6708 111.213 87.64 114.462 90.6335C116.967 95.7809 118.868 113.548 118.989 115.404Z" fill="#E7BA11"/>
<path fill-rule="evenodd" clip-rule="evenodd" d="M117.304 118.277C114.44 121.921 108.952 127.425 108.952 127.425L84.8329 134.98C79.4946 134.791 74.196 133.98 69.0429 132.564C65.1679 131.068 60.7149 128.775 60.7149 128.775H60.6909C60.6909 128.751 60.7149 128.727 60.7149 128.702C59.5214 127.831 58.5008 126.742 57.7059 125.492C57.5859 125.298 57.4889 125.105 57.3689 124.912L56.7429 122.426C60.7869 118.225 68.7779 122.426 71.1849 124.888C73.5679 127.35 75.3009 128.387 80.0909 129.185C82.9571 129.65 85.7145 130.639 88.2269 132.103C89.3063 130.162 89.8155 127.952 89.6949 125.731C89.6949 125.731 81.3949 122.665 77.9249 121.434C74.4549 120.203 73.0149 119.019 74.1699 115.999C75.3009 112.979 81.7759 102.53 81.7759 102.53C83.9659 100.912 84.2309 105.378 83.9899 109.65C83.7729 113.947 85.4339 116.046 88.1779 117.06C90.9219 118.098 91.8129 120.56 96.1209 125.313C100.429 130.067 108.205 124.082 108.205 124.082C108.205 124.082 109.216 117.783 109.457 115.124C109.698 112.466 111.022 101.8 111.022 101.8C111.642 102.496 112.102 103.32 112.37 104.216C112.659 105.471 113.188 112.374 114.921 115.006C115.595 116.056 116.486 117.215 117.304 118.277Z" fill="#E79111"/>
<path fill-rule="evenodd" clip-rule="evenodd" d="M94.8209 87.2354C91.7565 88.0329 88.6186 88.5102 85.4569 88.6596C84.5078 88.7544 83.55 88.6197 82.663 88.267C81.7759 87.9142 80.9854 87.3535 80.3569 86.6315C85.7489 84.7734 91.1649 84.9657 94.5569 84.9898C94.7249 86.101 94.8209 87.2354 94.8209 87.2354Z" fill="#E79111"/>
<path fill-rule="evenodd" clip-rule="evenodd" d="M89.6699 125.833C89.6959 127.642 89.2657 129.427 88.4196 131.023C87.5735 132.619 86.3391 133.972 84.8319 134.957C84.8319 134.957 91.668 138.071 95.132 138.239C98.596 138.408 101.39 134.377 100.716 131.798C100.042 129.191 95.757 129.36 95.757 129.36C95.757 129.36 97.9959 128.877 97.1289 127.597C96.2899 126.318 92.1979 124.191 89.6699 125.833Z" fill="#F6A1FE"/>
<path fill-rule="evenodd" clip-rule="evenodd" d="M116.678 70.195C116.678 70.195 116.078 82.3126 113.212 85.5707C112.809 86.1153 112.275 86.5475 111.66 86.8263C111.045 87.1051 110.37 87.2214 109.698 87.1641C108.543 87.0634 107.698 86.6326 107.459 87.5989C107.38 87.9206 107.275 88.2353 107.146 88.54C106.617 89.8411 106.006 91.1069 105.317 92.3295C102.827 92.0173 100.4 91.3252 98.1169 90.2772C97.6019 90.0287 97.1035 89.7466 96.6249 89.4328C93.0629 87.0916 92.533 84.991 92.533 84.991C92.533 84.991 97.54 81.5878 98.166 79.9945C97.7833 79.8699 97.4289 79.6702 97.1234 79.4069C96.8179 79.1436 96.5672 78.822 96.3859 78.4607C96.2045 78.0993 96.0962 77.7054 96.067 77.3016C96.0379 76.8979 96.0885 76.4923 96.2159 76.1083C96.5531 74.847 97.0224 73.6252 97.616 72.4636L111.336 66.0913L116.678 70.195Z" fill="#F6A1FE"/>
<path fill-rule="evenodd" clip-rule="evenodd" d="M109.697 87.1631C108.542 87.0624 107.697 86.6316 107.458 87.5979C107.379 87.9196 107.274 88.2344 107.145 88.539C103.125 86.7766 99.4449 87.7429 98.1179 90.2774C97.6029 90.0288 97.1045 89.7467 96.6259 89.4328C93.0639 87.0916 92.5339 84.991 92.5339 84.991C92.5339 84.991 97.5409 81.588 98.1669 79.9946C98.1669 79.9946 101.802 80.815 103.655 83.2528C104.979 84.991 107.459 86.8742 109.697 87.1631Z" fill="#E38DEB"/>
<path fill-rule="evenodd" clip-rule="evenodd" d="M96.0489 77.3634C93.916 75.4033 92.5715 72.7238 92.2699 69.8326C91.8849 65.1502 97.3009 59.6948 104.67 63.0013C104.67 63.0013 107.655 52.9601 117.62 55.1564C127.609 57.3526 125.972 66.5735 120.34 69.2528C114.708 71.9081 105.729 68.7496 104.068 72.053C102.407 75.3564 101.568 75.9392 99.8559 74.9981C99.4577 74.7743 99.0073 74.6616 98.5513 74.6717C98.0953 74.6817 97.6503 74.8141 97.2622 75.0553C96.8741 75.2964 96.5569 75.6375 96.3436 76.0433C96.1304 76.4491 96.0286 76.9048 96.0489 77.3634Z" fill="#553DCC"/>
<path fill-rule="evenodd" clip-rule="evenodd" d="M114.632 114.922C114.632 114.922 100.527 135.757 98.6489 140.508C98.6489 140.508 131.385 138.046 136.921 137.081C136.921 137.081 151.965 113.327 152.976 109.829C152.949 109.804 130.88 110.698 114.632 114.922Z" fill="#BBCEFD"/>
<path fill-rule="evenodd" clip-rule="evenodd" d="M67.382 146.615C67.382 146.615 61.605 147.001 61.027 149.512C60.449 152.022 66.997 153.712 75.4939 153.978C84.0149 154.243 87.602 152.094 85.556 149.995C83.51 147.871 76.866 147.025 76.866 147.025L67.382 146.615Z" fill="#B2C8FF"/>
<path fill-rule="evenodd" clip-rule="evenodd" d="M64.974 140.025C64.974 140.025 66.515 146.108 66.755 147.025C66.9925 148.149 67.5733 149.17 68.416 149.944C69.258 150.523 72.916 151.127 75.685 150.861C78.454 150.596 79.079 149.754 79.079 149.754C79.079 149.754 80.4271 140.796 80.2791 139.471C80.1101 138.144 76.524 137.709 74.406 137.709C72.268 137.66 65.504 136.959 64.974 140.025Z" fill="#C3D3FF"/>
<path fill-rule="evenodd" clip-rule="evenodd" d="M79.5359 140.413C78.5729 140.916 76.7679 141.354 73.5179 141.305C69.0889 141.233 65.8879 140.991 65.1179 140.292C65.9119 139.568 68.0549 138.892 70.9179 138.94C73.7819 138.964 72.5549 139.061 72.9639 139.688C73.3729 140.34 77.9949 139.76 78.9579 140.002C79.0821 140.011 79.2014 140.055 79.3032 140.127C79.4049 140.199 79.4853 140.298 79.5359 140.413Z" fill="#A2A2A2"/>
<path fill-rule="evenodd" clip-rule="evenodd" d="M79.5359 140.413C78.5729 140.916 76.7679 141.354 73.5179 141.305C69.0889 141.233 65.8879 140.991 65.1179 140.292C65.9119 139.568 68.0549 138.892 70.9179 138.94C73.7819 138.964 73.6839 138.865 74.0929 139.494C74.5019 140.146 77.9929 139.761 78.9579 140.002C79.0821 140.011 79.2014 140.055 79.3032 140.127C79.4049 140.199 79.4853 140.298 79.5359 140.413Z" fill="#0A0A0A"/>
<path fill-rule="evenodd" clip-rule="evenodd" d="M67.285 141.864C67.4364 142.029 67.5529 142.223 67.6274 142.435C67.7018 142.646 67.7326 142.871 67.7179 143.095C67.5739 143.651 64.854 143.143 64.565 144.543C64.276 145.968 67.1649 145.968 68.0309 145.315C68.0309 145.315 68.8729 146.184 68.6809 146.981C68.6809 146.981 64.95 148.478 63.193 146.546C61.411 144.588 64.035 141.788 67.285 141.864Z" fill="#C3D3FF"/>
<g opacity="0.55">
<path opacity="0.55" fill-rule="evenodd" clip-rule="evenodd" d="M241.027 135.994L226.801 133.629L225.333 133.387L217.294 132.035C217.294 132.035 225.983 109.683 237.272 102.563C237.395 102.474 237.523 102.393 237.657 102.322C237.97 102.128 238.283 101.959 238.572 101.79C242.572 99.475 245.745 98.1666 247.791 98.0488C248.04 98.0324 248.29 98.0404 248.537 98.0729C251.281 98.387 251.064 101.814 246.611 109.2C240.16 119.918 238.956 121.534 238.74 121.752C239.51 121.22 248.513 115.209 253.134 116.248L253.639 116.393C253.939 116.497 254.194 116.702 254.361 116.973C256.143 120.087 243.771 131.598 241.027 135.994Z" fill="#B7E796"/>
<path opacity="0.55" fill-rule="evenodd" clip-rule="evenodd" d="M254.361 116.973C251.372 119.406 248.127 121.502 244.685 123.225C239.414 126.098 233.998 128.68 228.461 131.046C227.907 131.914 227.33 132.757 226.776 133.629L225.308 133.387C229.678 126.967 233.626 120.267 237.127 113.329C237.416 112.725 237.705 112.121 238.018 111.542C237.849 110.334 237.753 109.127 237.657 107.919C237.513 106.132 237.392 104.347 237.272 102.584C237.395 102.495 237.523 102.414 237.657 102.343C237.97 102.149 238.283 101.98 238.572 101.811C238.716 104.346 238.861 106.856 239.125 109.366C240.646 106.322 242.521 103.47 244.709 100.87C245.605 99.8413 246.615 98.9181 247.718 98.1181L247.766 98.094C247.79 98.094 247.79 98.094 247.79 98.0698C247.936 97.9859 248.104 97.9506 248.271 97.9692C248.343 97.9933 248.44 98.0416 248.512 98.0698L248.536 98.094L248.705 98.2631L248.805 98.5046V98.7703L248.705 99.0119C248.344 99.3984 247.838 99.7165 247.405 100.098C244.842 102.552 242.71 105.425 241.098 108.594C240.498 109.68 239.919 110.79 239.341 111.901C239.315 112.077 239.23 112.239 239.1 112.36C238.667 113.252 238.233 114.122 237.8 114.991C235.374 119.808 232.69 124.49 229.76 129.015C235.817 126.438 241.703 123.471 247.38 120.132C249.366 118.988 251.265 117.697 253.061 116.27L253.567 116.415C253.894 116.489 254.179 116.69 254.361 116.973Z" fill="white"/>
</g>
<path fill-rule="evenodd" clip-rule="evenodd" d="M47.282 25.5635C47.282 25.5635 48.51 48.5184 48.75 51.077L53.54 51.0287C53.54 51.0287 53.42 26.3114 53.516 25.5393C53.637 24.7432 47.282 25.5635 47.282 25.5635Z" fill="#D0DFF9"/>
<path d="M102.717 50.8606H36.282V53.6608H102.717V50.8606Z" fill="#BCCFF6"/>
<path fill-rule="evenodd" clip-rule="evenodd" d="M53.5159 28.1221C53.5159 28.1221 57.7519 27.2294 58.5229 27.5666C59.2689 27.9048 58.9319 51.2462 58.9319 51.2462L53.275 50.7872C53.251 50.8114 53.3229 29.3048 53.5159 28.1221Z" fill="#C4D4F9"/>
<path fill-rule="evenodd" clip-rule="evenodd" d="M58.908 51.2704C58.908 51.2704 58.2581 22.6185 58.5711 20.5712C58.5711 20.5712 63.0711 19.7992 64.1071 19.8233C64.1071 19.8233 65.07 49.3922 65.238 51.058L58.908 51.2704Z" fill="#D6E3FC"/>
<path fill-rule="evenodd" clip-rule="evenodd" d="M64.324 26.8185C64.324 26.8185 66.8509 24.8155 67.6699 24.0908C67.6699 24.0908 82.8099 47.7222 83.6769 49.2903C83.6769 49.2903 80.2589 51.2219 79.6569 51.3658L64.324 26.8185Z" fill="#D6E3FC"/>
<path fill-rule="evenodd" clip-rule="evenodd" d="M87.9629 41.3036C87.9629 41.3036 96.6769 39.2281 99.4449 39.6861C102.213 40.1441 100.119 47.4586 99.7579 49.0277C99.6004 49.581 99.4876 50.1461 99.4209 50.7177L90.5149 50.7902C90.4879 50.7882 87.9129 41.8814 87.9629 41.3036Z" fill="#D6E3FC"/>
<path fill-rule="evenodd" clip-rule="evenodd" d="M93.2569 40.2155C93.2569 40.2155 87.528 37.2462 86.589 33.6982C85.65 30.126 88.659 30.5598 90.589 32.591C91.2755 33.264 91.9264 33.9729 92.539 34.7148C92.539 34.7148 91.2629 26.9182 93.4539 25.1074C95.6449 23.2967 97.738 27.352 96.607 33.5311C95.476 39.686 95.4069 40.9412 95.4069 40.9412L93.2569 40.2155Z" fill="#60C02B"/>
<path fill-rule="evenodd" clip-rule="evenodd" d="M53.949 135.075L47.474 136.547L46.15 136.862L42.708 137.658C41.0074 134.362 39.0769 131.192 36.931 128.171C35.031 125.588 34.644 121.847 35.39 118.178C35.49 117.743 35.583 117.286 35.703 116.851C36.2053 115.047 36.9591 113.324 37.942 111.733C41.119 106.64 36.233 98.9888 33.682 93.5334C33.4155 92.9658 33.198 92.3762 33.032 91.771C32.8631 91.1132 32.7424 90.4436 32.671 89.768C32.262 85.6885 33.971 81.4883 38.159 80.7404C38.6123 80.6621 39.0711 80.6217 39.531 80.6196C39.932 80.6206 40.3327 80.6448 40.731 80.6921C48.458 81.6574 50.263 94.2098 46.725 101.185C46.0714 102.373 45.6853 103.692 45.594 105.047C45.5669 105.722 45.6401 106.397 45.811 107.05C46.678 110.261 49.759 112.626 51.711 116.271C54.696 121.728 53.949 135.075 53.949 135.075Z" fill="#AFE290"/>
<path fill-rule="evenodd" clip-rule="evenodd" d="M47.4739 136.55L46.15 136.864C45.5966 132.133 45.0509 127.41 44.5129 122.695C44.1519 122.594 43.9839 122.139 43.6949 121.802C41.7689 119.386 38.351 118.471 35.395 118.157C35.495 117.722 35.5869 117.264 35.7079 116.83C38.0351 117.06 40.2893 117.775 42.327 118.929C43.0288 119.335 43.676 119.83 44.2529 120.402C43.9399 117.698 43.6529 115.019 43.3619 112.34C42.9049 108.139 42.207 103.964 41.509 99.7881C41.4536 99.686 41.3894 99.5889 41.317 99.4982C39.7423 97.3557 37.8605 95.4602 35.733 93.8738C34.842 93.1501 33.952 92.4253 33.061 91.75C32.8921 91.0921 32.7714 90.4226 32.7 89.747C35.33 91.6234 37.8091 93.7057 40.114 95.9744C40.427 96.2884 40.7399 96.6014 41.0289 96.9396C40.1143 91.5084 39.1676 86.1017 38.189 80.7194C38.6422 80.6411 39.1011 80.6007 39.561 80.5986C41.198 89.5296 42.7869 98.4142 44.0859 107.372C44.5345 106.545 45.0584 105.761 45.6509 105.031C45.6238 105.706 45.6969 106.381 45.8679 107.034C45.3754 107.78 44.9562 108.572 44.616 109.4C44.5563 109.491 44.483 109.572 44.3989 109.641C44.6159 111.283 44.7839 112.923 44.9769 114.565C45.7409 121.849 46.6079 129.187 47.4739 136.55Z" fill="white"/>
<path fill-rule="evenodd" clip-rule="evenodd" d="M143.685 5.81922C143.685 5.81922 132.348 8.47447 131.722 20.6646C131.096 32.8547 143.492 37.996 152.832 30.6816C162.171 23.3439 160.222 9.60883 153.025 6.78552C145.852 3.96018 143.685 5.81922 143.685 5.81922Z" fill="#F6A1FE" fill-opacity="0.15"/>
<path fill-rule="evenodd" clip-rule="evenodd" d="M142.963 10.9354C143.134 10.9519 143.293 11.029 143.412 11.153C143.531 11.277 143.602 11.4397 143.613 11.6118L143.83 21.9187L150.473 21.7738C150.473 21.7738 151.412 22.112 151.099 22.739C151.041 22.8504 150.955 22.9446 150.85 23.0123C150.745 23.0801 150.624 23.1191 150.499 23.1256L143.182 23.2947C143.091 23.3004 143 23.2839 142.917 23.2463C142.796 23.1897 142.692 23.1016 142.616 22.9913C142.54 22.8809 142.494 22.7522 142.484 22.6183L142.243 11.6118C142.237 11.5206 142.254 11.4294 142.291 11.3461C142.353 11.2206 142.449 11.1153 142.568 11.0426C142.687 10.9699 142.824 10.9327 142.963 10.9354Z" fill="white"/>
</svg>
