<svg width="411" height="440" viewBox="0 0 411 440" fill="none" xmlns="http://www.w3.org/2000/svg">
<g clip-path="url(#clip0_67_112596)">
<path d="M152.472 42.7727C148.89 64.4682 155.182 86.3906 158.343 108.152C161.504 129.913 160.704 154.427 145.924 170.734C128.354 190.116 98.7388 190.484 73.4293 197.203C43.5001 205.148 15.6478 225.351 4.54919 254.204C-6.54938 283.057 2.95852 320.134 29.8053 335.55C53.2433 349.011 83.1882 343.953 107.85 332.889C132.511 321.824 154.523 305.297 179.684 295.397C204.844 285.497 235.726 283.42 257.013 300.065C280.788 318.653 287.245 356.057 315 367.942C329.948 374.342 347.8 371.072 361.611 362.497C375.422 353.921 385.694 340.662 393.986 326.697C404.251 309.409 412.087 289.814 410.876 269.756C409.665 249.698 397.591 229.364 378.44 223.158C358.844 216.808 335.911 225.737 317.556 216.398C298.29 206.593 293.142 180.711 297.685 159.616C302.228 138.522 313.825 119.547 319.515 98.7292C325.204 77.9118 323.179 52.2423 305.773 39.4388C288.624 26.8184 263.802 32.1151 245.83 43.5381C238.033 48.4951 230.613 54.5932 221.607 56.6859C212.601 58.7786 201.288 55.0549 198.878 46.1504C197.453 40.8788 199.454 35.3504 201.559 30.3042C207.858 15.2374 203.685 -2.88783 184.039 2.54347C166.833 7.308 155.218 26.1329 152.472 42.7727Z" fill="#D8E8FD"/>
<path d="M341.941 304.735C352.034 296.8 363.912 291.526 375.274 285.535C386.636 279.543 397.882 272.5 405.426 262.119C398.356 282.739 391.082 303.745 377.927 321.14C371.271 330.085 362.872 337.595 353.234 343.219C346.983 346.782 329.118 355.667 321.808 351.077C307.975 342.394 334.278 310.763 341.941 304.735Z" fill="#92D96C"/>
<path d="M388.947 286.105L319.846 349.405" stroke="#7AD945" stroke-miterlimit="10"/>
<path d="M350.897 298.564L341.878 329.22L377.924 321.143" fill="#92D96C"/>
<path d="M350.897 298.564L341.878 329.22L377.924 321.143" stroke="white" stroke-miterlimit="10"/>
<path d="M309.627 297.368C315.602 292.627 313.505 283.256 310.882 276.1C308.259 268.943 306.283 259.508 312.354 254.893C319.292 249.615 331.41 255.5 337.061 248.866C340.545 244.773 339.04 238.655 339.186 233.288C339.378 226.293 343.292 219.148 349.781 216.496C356.271 213.845 364.957 217.022 367.037 223.704C370.082 233.469 359.063 243.477 361.92 253.299C363.467 258.621 368.567 261.931 372.826 265.483C377.085 269.034 381.079 274.442 379.285 279.682C376.016 289.243 359.545 285.532 353.711 293.798C348.948 300.547 354.586 309.393 356.938 317.307C367.282 352.13 325.288 358.222 302.123 348.067C292.201 343.715 287.176 336.423 285.701 325.725C284.745 318.791 285.199 311.951 290.119 306.52C295.655 300.401 303.676 302.093 309.627 297.368Z" fill="#E6F7DE"/>
<path d="M315.472 352.485C355.189 280.8 349.789 216.501 349.789 216.501" stroke="white" stroke-miterlimit="10"/>
<path d="M312.363 254.893L333.633 312.637" stroke="white" stroke-miterlimit="10"/>
<path d="M379.296 279.682L342.655 283.451" stroke="white" stroke-miterlimit="10"/>
<path d="M290.119 306.52L322.784 338.353L358.55 327.577" stroke="white" stroke-miterlimit="10"/>
<path d="M114.751 121.631C143.44 121.631 166.697 98.4261 166.697 69.8009C166.697 41.1756 143.44 17.9703 114.751 17.9703C86.0616 17.9703 62.8046 41.1756 62.8046 69.8009C62.8046 98.4261 86.0616 121.631 114.751 121.631Z" fill="#5598F6"/>
<path d="M335.326 202.857C338.692 202.857 341.42 200.134 341.42 196.776C341.42 193.418 338.692 190.695 335.326 190.695C331.96 190.695 329.231 193.418 329.231 196.776C329.231 200.134 331.96 202.857 335.326 202.857Z" fill="#C4C8E5"/>
<path d="M24.9518 211.863C24.9518 213.066 24.5943 214.241 23.9247 215.241C23.255 216.241 22.3032 217.021 21.1896 217.481C20.076 217.941 18.8506 218.062 17.6684 217.827C16.4862 217.592 15.4003 217.013 14.548 216.163C13.6956 215.312 13.1152 214.229 12.88 213.049C12.6449 211.87 12.7656 210.647 13.2269 209.536C13.6881 208.425 14.4693 207.475 15.4715 206.807C16.4737 206.139 17.652 205.782 18.8574 205.782C20.4737 205.782 22.0238 206.423 23.1668 207.563C24.3097 208.704 24.9518 210.25 24.9518 211.863Z" fill="#C6C7E5"/>
<path d="M286.367 53.3614H323.256V139.7" stroke="#212529" stroke-width="0.893" stroke-miterlimit="10"/>
<path d="M115.554 75.7315V53.3614H260.143" stroke="#212529" stroke-width="0.893" stroke-miterlimit="10"/>
<path d="M169.428 353.575H115.554V121.652" stroke="#212529" stroke-width="0.893" stroke-miterlimit="10"/>
<path d="M323.256 264.611V353.565H245.392" stroke="#212529" stroke-width="0.893" stroke-miterlimit="10"/>
<path d="M316.541 61.3612H122.269V345.569H316.541V61.3612Z" fill="white" stroke="#212529"/>
<path d="M300.725 109.65H141.899V131.757H300.725V109.65Z" fill="#5598F6"/>
<path d="M273.252 189.456C275.465 189.456 277.656 189.021 279.701 188.176C281.745 187.331 283.602 186.093 285.167 184.532C286.732 182.971 287.973 181.117 288.82 179.077C289.666 177.038 290.102 174.851 290.102 172.644V172.644C290.102 170.436 289.666 168.25 288.819 166.21C287.972 164.17 286.731 162.317 285.167 160.756C283.602 159.195 281.744 157.957 279.7 157.112C277.656 156.268 275.465 155.833 273.252 155.833V155.833C271.04 155.833 268.849 156.268 266.804 157.112C264.76 157.957 262.903 159.195 261.338 160.756C259.773 162.317 258.532 164.17 257.685 166.21C256.839 168.25 256.403 170.436 256.403 172.644V172.644C256.403 174.851 256.838 177.038 257.685 179.077C258.532 181.117 259.773 182.971 261.337 184.532C262.902 186.093 264.76 187.331 266.804 188.176C268.848 189.021 271.04 189.456 273.252 189.456V189.456Z" stroke="white" stroke-width="2" stroke-miterlimit="10"/>
<path d="M265.197 169.418L273.252 178.397L300.058 157.412" stroke="#0D6CF2" stroke-width="3" stroke-linecap="round" stroke-linejoin="round"/>
<path d="M138.752 172.643H248.351" stroke="white" stroke-width="2" stroke-linecap="round" stroke-linejoin="round"/>
<path d="M138.752 183.137H248.351" stroke="black" stroke-width="2" stroke-miterlimit="10"/>
<path d="M273.252 243.368C277.72 243.368 282.004 241.597 285.164 238.446C288.323 235.294 290.099 231.02 290.1 226.562C290.1 224.354 289.664 222.168 288.818 220.129C287.971 218.089 286.73 216.236 285.165 214.675C283.6 213.114 281.743 211.876 279.699 211.031C277.654 210.186 275.463 209.751 273.251 209.752V209.752C271.038 209.751 268.847 210.186 266.803 211.031C264.759 211.876 262.901 213.114 261.336 214.675C259.772 216.236 258.531 218.089 257.684 220.129C256.837 222.168 256.401 224.354 256.401 226.562V226.562C256.402 231.02 258.179 235.295 261.339 238.447C264.499 241.599 268.784 243.369 273.252 243.368Z" stroke="white" stroke-width="2" stroke-miterlimit="10"/>
<path d="M265.197 223.332L273.252 232.311L300.058 211.326" stroke="#0D6CF2" stroke-width="3" stroke-linecap="round" stroke-linejoin="round"/>
<path d="M138.752 224.244H248.351" stroke="#212528" stroke-width="2"/>
<path d="M138.752 234.736H248.351" stroke="black" stroke-width="2" stroke-miterlimit="10"/>
<path d="M273.252 297.279C275.465 297.279 277.656 296.844 279.7 295.999C281.744 295.155 283.602 293.917 285.167 292.356C286.731 290.795 287.972 288.941 288.819 286.902C289.666 284.862 290.102 282.676 290.102 280.468C290.102 278.26 289.666 276.074 288.82 274.034C287.973 271.994 286.732 270.141 285.167 268.58C283.602 267.019 281.745 265.78 279.701 264.936C277.656 264.091 275.465 263.656 273.252 263.656V263.656C271.04 263.656 268.848 264.091 266.804 264.936C264.76 265.78 262.902 267.019 261.337 268.58C259.773 270.141 258.532 271.994 257.685 274.034C256.838 276.074 256.403 278.26 256.403 280.468C256.403 282.676 256.839 284.862 257.685 286.902C258.532 288.941 259.773 290.795 261.338 292.356C262.903 293.917 264.76 295.155 266.804 295.999C268.849 296.844 271.04 297.279 273.252 297.279V297.279Z" stroke="white" stroke-width="2" stroke-miterlimit="10"/>
<path d="M265.197 277.242L273.252 286.222L300.058 265.237" stroke="#0D6CF2" stroke-width="3" stroke-linecap="round" stroke-linejoin="round"/>
<path d="M138.752 279.078H248.351" stroke="white" stroke-width="2" stroke-miterlimit="10"/>
<path d="M138.752 289.57H248.351" stroke="#212529" stroke-width="2" stroke-miterlimit="10"/>
<path d="M345.921 335.526H306.735V374.625H345.921V335.526Z" fill="#5598F6"/>
<path d="M363.34 166.625C372.378 166.625 379.704 159.315 379.704 150.297C379.704 141.279 372.378 133.969 363.34 133.969C354.302 133.969 346.975 141.279 346.975 150.297C346.975 159.315 354.302 166.625 363.34 166.625Z" stroke="#0D6CF2" stroke-width="2" stroke-miterlimit="10"/>
<path d="M226.723 26.2925C228.022 26.2925 229.076 25.2414 229.076 23.9447C229.076 22.648 228.022 21.5969 226.723 21.5969C225.423 21.5969 224.37 22.648 224.37 23.9447C224.37 25.2414 225.423 26.2925 226.723 26.2925Z" fill="#0D6CF2"/>
<path d="M237.704 21.5969C238.169 21.5969 238.624 21.7346 239.011 21.9925C239.398 22.2505 239.7 22.6172 239.878 23.0462C240.056 23.4752 240.103 23.9473 240.012 24.4027C239.921 24.8582 239.697 25.2765 239.368 25.6049C239.039 25.9332 238.619 26.1568 238.163 26.2474C237.706 26.338 237.233 26.2915 236.803 26.1138C236.373 25.9361 236.006 25.6352 235.747 25.2491C235.489 24.863 235.351 24.409 235.351 23.9447C235.351 23.322 235.599 22.7248 236.04 22.2845C236.481 21.8442 237.08 21.5969 237.704 21.5969V21.5969Z" fill="#0D6CF2"/>
<path d="M250.253 21.5969C250.719 21.5969 251.174 21.7346 251.561 21.9925C251.948 22.2505 252.249 22.6172 252.427 23.0462C252.605 23.4752 252.652 23.9473 252.561 24.4027C252.47 24.8582 252.246 25.2765 251.917 25.6049C251.588 25.9332 251.169 26.1568 250.713 26.2474C250.256 26.338 249.783 26.2915 249.353 26.1138C248.923 25.9361 248.556 25.6352 248.297 25.2491C248.038 24.863 247.9 24.409 247.9 23.9447C247.9 23.322 248.148 22.7248 248.59 22.2845C249.031 21.8442 249.629 21.5969 250.253 21.5969V21.5969Z" fill="#0D6CF2"/>
<path d="M262.803 26.2925C264.103 26.2925 265.156 25.2414 265.156 23.9447C265.156 22.648 264.103 21.5969 262.803 21.5969C261.504 21.5969 260.45 22.648 260.45 23.9447C260.45 25.2414 261.504 26.2925 262.803 26.2925Z" fill="#0D6CF2"/>
<path d="M275.353 26.2925C276.652 26.2925 277.706 25.2414 277.706 23.9447C277.706 22.648 276.652 21.5969 275.353 21.5969C274.053 21.5969 273 22.648 273 23.9447C273 25.2414 274.053 26.2925 275.353 26.2925Z" fill="#0D6CF2"/>
<path d="M287.902 26.2925C289.202 26.2925 290.255 25.2414 290.255 23.9447C290.255 22.648 289.202 21.5969 287.902 21.5969C286.603 21.5969 285.549 22.648 285.549 23.9447C285.549 25.2414 286.603 26.2925 287.902 26.2925Z" fill="#0D6CF2"/>
<path d="M300.452 26.2925C301.751 26.2925 302.805 25.2414 302.805 23.9447C302.805 22.648 301.751 21.5969 300.452 21.5969C299.152 21.5969 298.099 22.648 298.099 23.9447C298.099 25.2414 299.152 26.2925 300.452 26.2925Z" fill="#0D6CF2"/>
<path d="M311.433 26.2925C312.732 26.2925 313.786 25.2414 313.786 23.9447C313.786 22.648 312.732 21.5969 311.433 21.5969C310.133 21.5969 309.08 22.648 309.08 23.9447C309.08 25.2414 310.133 26.2925 311.433 26.2925Z" fill="#0D6CF2"/>
<path d="M323.982 26.2925C325.282 26.2925 326.336 25.2414 326.336 23.9447C326.336 22.648 325.282 21.5969 323.982 21.5969C322.683 21.5969 321.629 22.648 321.629 23.9447C321.629 25.2414 322.683 26.2925 323.982 26.2925Z" fill="#0D6CF2"/>
<path d="M226.723 38.8142C228.022 38.8142 229.076 37.7631 229.076 36.4664C229.076 35.1697 228.022 34.1186 226.723 34.1186C225.423 34.1186 224.37 35.1697 224.37 36.4664C224.37 37.7631 225.423 38.8142 226.723 38.8142Z" fill="#0D6CF2"/>
<path d="M237.704 34.1186C238.169 34.1186 238.624 34.2563 239.011 34.5143C239.398 34.7723 239.7 35.1389 239.878 35.5679C240.056 35.997 240.103 36.469 240.012 36.9245C239.921 37.3799 239.697 37.7982 239.368 38.1266C239.039 38.4549 238.619 38.6785 238.163 38.7691C237.706 38.8597 237.233 38.8132 236.803 38.6355C236.373 38.4578 236.006 38.1569 235.747 37.7708C235.489 37.3847 235.351 36.9308 235.351 36.4664C235.351 35.8437 235.599 35.2466 236.04 34.8063C236.481 34.366 237.08 34.1186 237.704 34.1186V34.1186Z" fill="#0D6CF2"/>
<path d="M250.253 34.1186C250.719 34.1186 251.174 34.2563 251.561 34.5143C251.948 34.7723 252.249 35.1389 252.427 35.5679C252.605 35.997 252.652 36.469 252.561 36.9245C252.47 37.3799 252.246 37.7982 251.917 38.1266C251.588 38.4549 251.169 38.6785 250.713 38.7691C250.256 38.8597 249.783 38.8132 249.353 38.6355C248.923 38.4578 248.556 38.1569 248.297 37.7708C248.038 37.3847 247.9 36.9308 247.9 36.4664C247.9 35.8437 248.148 35.2466 248.59 34.8063C249.031 34.366 249.629 34.1186 250.253 34.1186V34.1186Z" fill="#0D6CF2"/>
<path d="M262.803 38.8142C264.103 38.8142 265.156 37.7631 265.156 36.4664C265.156 35.1697 264.103 34.1186 262.803 34.1186C261.504 34.1186 260.45 35.1697 260.45 36.4664C260.45 37.7631 261.504 38.8142 262.803 38.8142Z" fill="#0D6CF2"/>
<path d="M275.353 38.8142C276.652 38.8142 277.706 37.7631 277.706 36.4664C277.706 35.1697 276.652 34.1186 275.353 34.1186C274.053 34.1186 273 35.1697 273 36.4664C273 37.7631 274.053 38.8142 275.353 38.8142Z" fill="#0D6CF2"/>
<path d="M287.902 38.8142C289.202 38.8142 290.255 37.7631 290.255 36.4664C290.255 35.1697 289.202 34.1186 287.902 34.1186C286.603 34.1186 285.549 35.1697 285.549 36.4664C285.549 37.7631 286.603 38.8142 287.902 38.8142Z" fill="#0D6CF2"/>
<path d="M300.452 38.8142C301.751 38.8142 302.805 37.7631 302.805 36.4664C302.805 35.1697 301.751 34.1186 300.452 34.1186C299.152 34.1186 298.099 35.1697 298.099 36.4664C298.099 37.7631 299.152 38.8142 300.452 38.8142Z" fill="#0D6CF2"/>
<path d="M311.433 38.8142C312.732 38.8142 313.786 37.7631 313.786 36.4664C313.786 35.1697 312.732 34.1186 311.433 34.1186C310.133 34.1186 309.08 35.1697 309.08 36.4664C309.08 37.7631 310.133 38.8142 311.433 38.8142Z" fill="#0D6CF2"/>
<path d="M323.982 38.8142C325.282 38.8142 326.336 37.7631 326.336 36.4664C326.336 35.1697 325.282 34.1186 323.982 34.1186C322.683 34.1186 321.629 35.1697 321.629 36.4664C321.629 37.7631 322.683 38.8142 323.982 38.8142Z" fill="#0D6CF2"/>
<path d="M226.723 51.336C228.022 51.336 229.076 50.2848 229.076 48.9881C229.076 47.6915 228.022 46.6403 226.723 46.6403C225.423 46.6403 224.37 47.6915 224.37 48.9881C224.37 50.2848 225.423 51.336 226.723 51.336Z" fill="#0D6CF2"/>
<path d="M237.704 46.6403C238.169 46.6403 238.624 46.778 239.011 47.036C239.398 47.294 239.7 47.6607 239.878 48.0897C240.056 48.5187 240.103 48.9908 240.012 49.4462C239.921 49.9016 239.697 50.32 239.368 50.6483C239.039 50.9767 238.619 51.2003 238.163 51.2909C237.706 51.3815 237.233 51.335 236.803 51.1573C236.373 50.9796 236.006 50.6786 235.747 50.2925C235.489 49.9064 235.351 49.4525 235.351 48.9881C235.351 48.3655 235.599 47.7683 236.04 47.328C236.481 46.8877 237.08 46.6403 237.704 46.6403V46.6403Z" fill="#0D6CF2"/>
<path d="M250.253 46.6403C250.719 46.6403 251.174 46.778 251.561 47.036C251.948 47.294 252.249 47.6607 252.427 48.0897C252.605 48.5187 252.652 48.9908 252.561 49.4462C252.47 49.9016 252.246 50.32 251.917 50.6483C251.588 50.9767 251.169 51.2003 250.713 51.2909C250.256 51.3815 249.783 51.335 249.353 51.1573C248.923 50.9796 248.556 50.6786 248.297 50.2925C248.038 49.9064 247.9 49.4525 247.9 48.9881C247.9 48.3655 248.148 47.7683 248.59 47.328C249.031 46.8877 249.629 46.6403 250.253 46.6403V46.6403Z" fill="#0D6CF2"/>
<path d="M262.803 51.336C264.103 51.336 265.156 50.2848 265.156 48.9881C265.156 47.6915 264.103 46.6403 262.803 46.6403C261.504 46.6403 260.45 47.6915 260.45 48.9881C260.45 50.2848 261.504 51.336 262.803 51.336Z" fill="#0D6CF2"/>
<path d="M275.353 51.336C276.652 51.336 277.706 50.2848 277.706 48.9881C277.706 47.6915 276.652 46.6403 275.353 46.6403C274.053 46.6403 273 47.6915 273 48.9881C273 50.2848 274.053 51.336 275.353 51.336Z" fill="#0D6CF2"/>
<path d="M287.902 51.336C289.202 51.336 290.255 50.2848 290.255 48.9881C290.255 47.6915 289.202 46.6403 287.902 46.6403C286.603 46.6403 285.549 47.6915 285.549 48.9881C285.549 50.2848 286.603 51.336 287.902 51.336Z" fill="#0D6CF2"/>
<path d="M300.452 51.336C301.751 51.336 302.805 50.2848 302.805 48.9881C302.805 47.6915 301.751 46.6403 300.452 46.6403C299.152 46.6403 298.099 47.6915 298.099 48.9881C298.099 50.2848 299.152 51.336 300.452 51.336Z" fill="#0D6CF2"/>
<path d="M311.433 51.336C312.732 51.336 313.786 50.2848 313.786 48.9881C313.786 47.6915 312.732 46.6403 311.433 46.6403C310.133 46.6403 309.08 47.6915 309.08 48.9881C309.08 50.2848 310.133 51.336 311.433 51.336Z" fill="#0D6CF2"/>
<path d="M323.982 51.336C325.282 51.336 326.336 50.2848 326.336 48.9881C326.336 47.6915 325.282 46.6403 323.982 46.6403C322.683 46.6403 321.629 47.6915 321.629 48.9881C321.629 50.2848 322.683 51.336 323.982 51.336Z" fill="#0D6CF2"/>
<path d="M226.723 63.8578C228.022 63.8578 229.076 62.8066 229.076 61.5099C229.076 60.2133 228.022 59.1621 226.723 59.1621C225.423 59.1621 224.37 60.2133 224.37 61.5099C224.37 62.8066 225.423 63.8578 226.723 63.8578Z" fill="#0D6CF2"/>
<path d="M237.704 59.1621C238.169 59.1621 238.624 59.2998 239.011 59.5578C239.398 59.8158 239.7 60.1825 239.878 60.6115C240.056 61.0405 240.103 61.5125 240.012 61.968C239.921 62.4234 239.697 62.8417 239.368 63.1701C239.039 63.4984 238.619 63.7221 238.163 63.8126C237.706 63.9032 237.233 63.8567 236.803 63.679C236.373 63.5013 236.006 63.2004 235.747 62.8143C235.489 62.4282 235.351 61.9743 235.351 61.5099C235.351 60.8873 235.599 60.2901 236.04 59.8498C236.481 59.4095 237.08 59.1621 237.704 59.1621V59.1621Z" fill="#0D6CF2"/>
<path d="M250.253 59.1621C250.719 59.1621 251.174 59.2998 251.561 59.5578C251.948 59.8158 252.249 60.1825 252.427 60.6115C252.605 61.0405 252.652 61.5125 252.561 61.968C252.47 62.4234 252.246 62.8417 251.917 63.1701C251.588 63.4984 251.169 63.7221 250.713 63.8126C250.256 63.9032 249.783 63.8567 249.353 63.679C248.923 63.5013 248.556 63.2004 248.297 62.8143C248.038 62.4282 247.9 61.9743 247.9 61.5099C247.9 60.8873 248.148 60.2901 248.59 59.8498C249.031 59.4095 249.629 59.1621 250.253 59.1621V59.1621Z" fill="#0D6CF2"/>
<path d="M262.803 63.8578C264.103 63.8578 265.156 62.8066 265.156 61.5099C265.156 60.2133 264.103 59.1621 262.803 59.1621C261.504 59.1621 260.45 60.2133 260.45 61.5099C260.45 62.8066 261.504 63.8578 262.803 63.8578Z" fill="#0D6CF2"/>
<path d="M275.353 63.8578C276.652 63.8578 277.706 62.8066 277.706 61.5099C277.706 60.2133 276.652 59.1621 275.353 59.1621C274.053 59.1621 273 60.2133 273 61.5099C273 62.8066 274.053 63.8578 275.353 63.8578Z" fill="#0D6CF2"/>
<path d="M287.902 63.8578C289.202 63.8578 290.255 62.8066 290.255 61.5099C290.255 60.2133 289.202 59.1621 287.902 59.1621C286.603 59.1621 285.549 60.2133 285.549 61.5099C285.549 62.8066 286.603 63.8578 287.902 63.8578Z" fill="#0D6CF2"/>
<path d="M300.452 63.8578C301.751 63.8578 302.805 62.8066 302.805 61.5099C302.805 60.2133 301.751 59.1621 300.452 59.1621C299.152 59.1621 298.099 60.2133 298.099 61.5099C298.099 62.8066 299.152 63.8578 300.452 63.8578Z" fill="#0D6CF2"/>
<path d="M311.433 63.8578C312.732 63.8578 313.786 62.8066 313.786 61.5099C313.786 60.2133 312.732 59.1621 311.433 59.1621C310.133 59.1621 309.08 60.2133 309.08 61.5099C309.08 62.8066 310.133 63.8578 311.433 63.8578Z" fill="#0D6CF2"/>
<path d="M323.982 63.8578C325.282 63.8578 326.336 62.8066 326.336 61.5099C326.336 60.2133 325.282 59.1621 323.982 59.1621C322.683 59.1621 321.629 60.2133 321.629 61.5099C321.629 62.8066 322.683 63.8578 323.982 63.8578Z" fill="#0D6CF2"/>
<path d="M226.723 76.3795C228.022 76.3795 229.076 75.3283 229.076 74.0317C229.076 72.735 228.022 71.6838 226.723 71.6838C225.423 71.6838 224.37 72.735 224.37 74.0317C224.37 75.3283 225.423 76.3795 226.723 76.3795Z" fill="#0D6CF2"/>
<path d="M237.704 71.6838C238.169 71.6838 238.624 71.8215 239.011 72.0795C239.398 72.3375 239.7 72.7042 239.878 73.1332C240.056 73.5622 240.103 74.0343 240.012 74.4897C239.921 74.9451 239.697 75.3635 239.368 75.6918C239.039 76.0202 238.619 76.2438 238.163 76.3344C237.706 76.425 237.233 76.3785 236.803 76.2008C236.373 76.0231 236.006 75.7221 235.747 75.336C235.489 74.9499 235.351 74.496 235.351 74.0317C235.351 73.409 235.599 72.8118 236.04 72.3715C236.481 71.9312 237.08 71.6838 237.704 71.6838V71.6838Z" fill="#0D6CF2"/>
<path d="M250.253 71.6838C250.719 71.6838 251.174 71.8215 251.561 72.0795C251.948 72.3375 252.249 72.7042 252.427 73.1332C252.605 73.5622 252.652 74.0343 252.561 74.4897C252.47 74.9451 252.246 75.3635 251.917 75.6918C251.588 76.0202 251.169 76.2438 250.713 76.3344C250.256 76.425 249.783 76.3785 249.353 76.2008C248.923 76.0231 248.556 75.7221 248.297 75.336C248.038 74.9499 247.9 74.496 247.9 74.0317C247.9 73.409 248.148 72.8118 248.59 72.3715C249.031 71.9312 249.629 71.6838 250.253 71.6838V71.6838Z" fill="#0D6CF2"/>
<path d="M262.803 76.3795C264.103 76.3795 265.156 75.3283 265.156 74.0317C265.156 72.735 264.103 71.6838 262.803 71.6838C261.504 71.6838 260.45 72.735 260.45 74.0317C260.45 75.3283 261.504 76.3795 262.803 76.3795Z" fill="#0D6CF2"/>
<path d="M275.353 76.3795C276.652 76.3795 277.706 75.3283 277.706 74.0317C277.706 72.735 276.652 71.6838 275.353 71.6838C274.053 71.6838 273 72.735 273 74.0317C273 75.3283 274.053 76.3795 275.353 76.3795Z" fill="#0D6CF2"/>
<path d="M287.902 76.3795C289.202 76.3795 290.255 75.3283 290.255 74.0317C290.255 72.735 289.202 71.6838 287.902 71.6838C286.603 71.6838 285.549 72.735 285.549 74.0317C285.549 75.3283 286.603 76.3795 287.902 76.3795Z" fill="#0D6CF2"/>
<path d="M300.452 76.3795C301.751 76.3795 302.805 75.3283 302.805 74.0317C302.805 72.735 301.751 71.6838 300.452 71.6838C299.152 71.6838 298.099 72.735 298.099 74.0317C298.099 75.3283 299.152 76.3795 300.452 76.3795Z" fill="#0D6CF2"/>
<path d="M311.433 76.3795C312.732 76.3795 313.786 75.3283 313.786 74.0317C313.786 72.735 312.732 71.6838 311.433 71.6838C310.133 71.6838 309.08 72.735 309.08 74.0317C309.08 75.3283 310.133 76.3795 311.433 76.3795Z" fill="#0D6CF2"/>
<path d="M323.982 76.3795C325.282 76.3795 326.336 75.3283 326.336 74.0317C326.336 72.735 325.282 71.6838 323.982 71.6838C322.683 71.6838 321.629 72.735 321.629 74.0317C321.629 75.3283 322.683 76.3795 323.982 76.3795Z" fill="#0D6CF2"/>
<path d="M226.723 88.9012C228.022 88.9012 229.076 87.8501 229.076 86.5534C229.076 85.2567 228.022 84.2056 226.723 84.2056C225.423 84.2056 224.37 85.2567 224.37 86.5534C224.37 87.8501 225.423 88.9012 226.723 88.9012Z" fill="#0D6CF2"/>
<path d="M237.704 84.2056C238.169 84.2056 238.624 84.3433 239.011 84.6012C239.398 84.8592 239.7 85.2259 239.878 85.6549C240.056 86.0839 240.103 86.556 240.012 87.0114C239.921 87.4669 239.697 87.8852 239.368 88.2136C239.039 88.5419 238.619 88.7655 238.163 88.8561C237.706 88.9467 237.233 88.9002 236.803 88.7225C236.373 88.5448 236.006 88.2439 235.747 87.8578C235.489 87.4717 235.351 87.0177 235.351 86.5534C235.351 85.9307 235.599 85.3335 236.04 84.8932C236.481 84.4529 237.08 84.2056 237.704 84.2056V84.2056Z" fill="#0D6CF2"/>
<path d="M250.253 84.2056C250.719 84.2056 251.174 84.3433 251.561 84.6012C251.948 84.8592 252.249 85.2259 252.427 85.6549C252.605 86.0839 252.652 86.556 252.561 87.0114C252.47 87.4669 252.246 87.8852 251.917 88.2136C251.588 88.5419 251.169 88.7655 250.713 88.8561C250.256 88.9467 249.783 88.9002 249.353 88.7225C248.923 88.5448 248.556 88.2439 248.297 87.8578C248.038 87.4717 247.9 87.0177 247.9 86.5534C247.9 85.9307 248.148 85.3335 248.59 84.8932C249.031 84.4529 249.629 84.2056 250.253 84.2056V84.2056Z" fill="#0D6CF2"/>
<path d="M262.803 88.9012C264.103 88.9012 265.156 87.8501 265.156 86.5534C265.156 85.2567 264.103 84.2056 262.803 84.2056C261.504 84.2056 260.45 85.2567 260.45 86.5534C260.45 87.8501 261.504 88.9012 262.803 88.9012Z" fill="#0D6CF2"/>
<path d="M275.353 88.9012C276.652 88.9012 277.706 87.8501 277.706 86.5534C277.706 85.2567 276.652 84.2056 275.353 84.2056C274.053 84.2056 273 85.2567 273 86.5534C273 87.8501 274.053 88.9012 275.353 88.9012Z" fill="#0D6CF2"/>
<path d="M287.902 88.9012C289.202 88.9012 290.255 87.8501 290.255 86.5534C290.255 85.2567 289.202 84.2056 287.902 84.2056C286.603 84.2056 285.549 85.2567 285.549 86.5534C285.549 87.8501 286.603 88.9012 287.902 88.9012Z" fill="#0D6CF2"/>
<path d="M300.452 88.9012C301.751 88.9012 302.805 87.8501 302.805 86.5534C302.805 85.2567 301.751 84.2056 300.452 84.2056C299.152 84.2056 298.099 85.2567 298.099 86.5534C298.099 87.8501 299.152 88.9012 300.452 88.9012Z" fill="#0D6CF2"/>
<path d="M311.433 88.9012C312.732 88.9012 313.786 87.8501 313.786 86.5534C313.786 85.2567 312.732 84.2056 311.433 84.2056C310.133 84.2056 309.08 85.2567 309.08 86.5534C309.08 87.8501 310.133 88.9012 311.433 88.9012Z" fill="#0D6CF2"/>
<path d="M323.982 88.9012C325.282 88.9012 326.336 87.8501 326.336 86.5534C326.336 85.2567 325.282 84.2056 323.982 84.2056C322.683 84.2056 321.629 85.2567 321.629 86.5534C321.629 87.8501 322.683 88.9012 323.982 88.9012Z" fill="#0D6CF2"/>
<path d="M64.88 230.018V271.027L87.0395 381.746H92.2539L85.0849 268.267L96.4109 225.286L64.88 230.018Z" fill="#6C757D"/>
<path d="M77.7888 130.409C77.7888 130.905 77.6416 131.389 77.3658 131.801C77.09 132.212 76.698 132.533 76.2394 132.723C75.7807 132.912 75.2761 132.962 74.7892 132.865C74.3023 132.769 73.8551 132.53 73.5041 132.18C73.153 131.83 72.914 131.384 72.8171 130.898C72.7203 130.412 72.77 129.908 72.96 129.451C73.1499 128.993 73.4717 128.602 73.8844 128.327C74.2972 128.052 74.7824 127.905 75.2788 127.905C75.9445 127.905 76.5829 128.169 77.0536 128.638C77.5243 129.108 77.7888 129.745 77.7888 130.409Z" fill="#E073EB"/>
<path d="M94.6225 123.726C94.6225 124.221 94.4753 124.705 94.1995 125.117C93.9237 125.529 93.5317 125.85 93.0731 126.039C92.6145 126.229 92.1098 126.279 91.6229 126.182C91.136 126.085 90.6888 125.847 90.3378 125.497C89.9868 125.146 89.7477 124.7 89.6509 124.214C89.554 123.729 89.6037 123.225 89.7937 122.767C89.9837 122.31 90.3054 121.919 90.7181 121.643C91.1309 121.368 91.6162 121.221 92.1126 121.221C92.7783 121.221 93.4167 121.485 93.8874 121.955C94.3581 122.425 94.6225 123.062 94.6225 123.726Z" fill="#E073EB"/>
<path d="M90.3619 130.639L94.6225 144.784L81.0234 147.359L82.1325 133.137L90.3619 130.639Z" fill="#F6A1FE"/>
<path d="M70.441 117.682L78.5371 138.681L93.8288 133.295L90.831 109.661L70.441 117.682Z" fill="#F6A1FE"/>
<path d="M74.6482 128.435L65.9231 115.735L68.6699 112.963L67.5718 106.826L95.4555 93.949L90.7588 106.826L93.7487 108.758L92.2098 120.633L90.7604 109.676L73.0246 118.235L74.6482 128.435Z" fill="#FFCC66"/>
<path d="M83.0753 121.264L87.8191 128.351L84.4071 130.176L83.0753 121.264Z" fill="#E073EB"/>
<path d="M100.937 395.998C135.027 395.998 162.662 393.001 162.662 389.302C162.662 385.604 135.027 382.606 100.937 382.606C66.8467 382.606 39.2113 385.604 39.2113 389.302C39.2113 393.001 66.8467 395.998 100.937 395.998Z" fill="#EDF0F5"/>
<path d="M53.1476 151.147L115.714 139.298L120.928 222.028L64.8862 229.959L53.1476 151.147Z" fill="#5598F6"/>
<path d="M96.4093 225.484L104.634 281.005V381.744H109.848L122.883 277.438L120.928 221.801L96.4093 225.484Z" fill="#6C757D"/>
<path d="M74.9243 145.288L39.5438 116.116L29.1527 122.654L56.0967 169.223L74.9243 145.288Z" fill="#5598F6"/>
<path d="M104.098 139.538L129.024 108.911L139.596 115.001L117.913 172.24L104.098 139.538Z" fill="#5598F6"/>
<path d="M87.0378 156.663L92.1189 215.889" stroke="#0D6CF2" stroke-width="1.258" stroke-miterlimit="10"/>
<path d="M39.5642 116.127L19.7798 86.7005C19.7798 86.7005 20.8606 77.9651 19.6762 75.6704C18.4919 73.3758 15.0407 77.519 15.0407 77.519C15.0407 77.519 12.0602 69.6538 9.37614 70.4974C6.69209 71.3411 3.16722 77.0713 4.32178 80.8936C5.47635 84.7158 13.9975 85.7708 13.9975 85.7708L29.1543 122.674L39.5642 116.127Z" fill="#F6A1FE"/>
<path d="M129.029 108.966L157.689 59.7756C157.689 59.7756 150.354 54.9031 150.04 53.28C149.726 51.6569 156.433 53.28 156.433 53.28C156.433 53.28 155.164 47.1099 157.688 45.5102C160.212 43.9106 164.866 43.4582 166.54 46.8829C168.214 50.3076 164.383 59.2106 164.383 59.2106L139.597 115.089L129.029 108.966Z" fill="#F6A1FE"/>
<path d="M91.6279 131.81L81.2839 141.001L81.7294 135.301L91.6279 131.81Z" fill="#4831BA"/>
<path d="M81.025 144.831L74.9243 145.986L86.4574 151.778L81.025 144.831Z" fill="white"/>
<path d="M94.6226 142.13L90.7322 150.64L100.929 140.935L94.6226 142.13Z" fill="white"/>
<path d="M56.1568 168.934L37.0874 135.975L64.186 158.722L56.1568 168.934Z" fill="#0D6CF2" stroke="#0D6CF2"/>
<path d="M67.5545 155.907L56.103 170.473" stroke="white" stroke-miterlimit="10"/>
<path d="M117.889 171.665L112.658 159.283L132.18 133.941L117.889 171.665Z" fill="#0D6CF2" stroke="#0D6CF2"/>
<path d="M108.452 151.233L117.915 173.631" stroke="white" stroke-miterlimit="10"/>
<path d="M87.0378 381.75C83.3639 383.868 67.553 389.304 67.553 389.304L92.1189 387.218V381.75H87.0378Z" fill="#4831BA"/>
<path d="M109.848 381.75C113.524 383.868 129.332 389.304 129.332 389.304L104.766 387.218V381.75H109.848Z" fill="#4831BA"/>
<path d="M92.6061 241.888L84.8134 271.204L80.0347 272.979" stroke="white" stroke-width="0.8" stroke-miterlimit="10"/>
<path d="M104.767 373.179H110.984" stroke="#4831BA" stroke-width="1.258" stroke-miterlimit="10"/>
<path d="M92.1189 375.502L85.8865 376.33" stroke="#4831BA" stroke-width="1.258" stroke-miterlimit="10"/>
<path d="M97.2024 225.301L103.725 279.762L111.107 283.766" stroke="white" stroke-width="0.800116" stroke-miterlimit="10"/>
</g>
<path d="M140.155 422.638C140.098 422.065 139.854 421.62 139.423 421.303C138.992 420.985 138.408 420.827 137.669 420.827C137.167 420.827 136.743 420.898 136.398 421.04C136.052 421.177 135.787 421.369 135.602 421.615C135.422 421.861 135.332 422.141 135.332 422.453C135.323 422.714 135.377 422.941 135.496 423.135C135.619 423.329 135.787 423.497 136 423.639C136.213 423.777 136.459 423.897 136.739 424.001C137.018 424.101 137.316 424.186 137.634 424.257L138.94 424.57C139.575 424.712 140.157 424.901 140.688 425.138C141.218 425.375 141.677 425.666 142.065 426.011C142.454 426.357 142.754 426.764 142.967 427.233C143.185 427.702 143.296 428.239 143.301 428.845C143.296 429.735 143.069 430.507 142.619 431.161C142.174 431.809 141.53 432.313 140.688 432.673C139.849 433.028 138.839 433.206 137.655 433.206C136.481 433.206 135.458 433.026 134.587 432.666C133.72 432.306 133.043 431.774 132.555 431.068C132.072 430.358 131.819 429.48 131.795 428.433H134.771C134.804 428.921 134.944 429.328 135.19 429.655C135.441 429.977 135.775 430.221 136.192 430.386C136.613 430.547 137.089 430.628 137.619 430.628C138.14 430.628 138.592 430.552 138.976 430.401C139.364 430.249 139.665 430.038 139.878 429.768C140.091 429.499 140.197 429.188 140.197 428.838C140.197 428.511 140.1 428.237 139.906 428.014C139.717 427.792 139.438 427.602 139.068 427.446C138.704 427.29 138.256 427.148 137.726 427.02L136.142 426.622C134.916 426.324 133.947 425.857 133.237 425.223C132.527 424.589 132.174 423.734 132.179 422.659C132.174 421.778 132.409 421.009 132.882 420.351C133.36 419.693 134.016 419.179 134.849 418.81C135.683 418.44 136.63 418.256 137.69 418.256C138.77 418.256 139.712 418.44 140.517 418.81C141.327 419.179 141.956 419.693 142.406 420.351C142.856 421.009 143.088 421.771 143.102 422.638H140.155ZM150.284 433.213C149.162 433.213 148.196 432.986 147.387 432.531C146.582 432.072 145.962 431.423 145.526 430.585C145.09 429.742 144.873 428.746 144.873 427.595C144.873 426.473 145.09 425.488 145.526 424.641C145.962 423.793 146.575 423.133 147.365 422.659C148.161 422.186 149.094 421.949 150.164 421.949C150.883 421.949 151.553 422.065 152.174 422.297C152.799 422.524 153.343 422.867 153.807 423.327C154.276 423.786 154.641 424.364 154.901 425.06C155.161 425.751 155.292 426.561 155.292 427.489V428.32H146.08V426.445H152.444C152.444 426.009 152.349 425.623 152.159 425.287C151.97 424.951 151.707 424.688 151.371 424.499C151.04 424.304 150.654 424.207 150.213 424.207C149.754 424.207 149.347 424.314 148.992 424.527C148.641 424.735 148.367 425.017 148.168 425.372C147.969 425.723 147.867 426.113 147.863 426.544V428.327C147.863 428.866 147.962 429.333 148.161 429.726C148.364 430.119 148.651 430.422 149.02 430.635C149.39 430.848 149.828 430.955 150.334 430.955C150.67 430.955 150.978 430.907 151.257 430.812C151.537 430.718 151.776 430.576 151.975 430.386C152.174 430.197 152.325 429.965 152.429 429.69L155.228 429.875C155.086 430.547 154.794 431.134 154.354 431.636C153.918 432.134 153.355 432.522 152.664 432.801C151.977 433.076 151.184 433.213 150.284 433.213ZM157.266 422.091H160.292V433.54C160.292 434.383 160.126 435.064 159.794 435.585C159.463 436.106 158.987 436.487 158.367 436.729C157.751 436.97 157.015 437.091 156.158 437.091C156.054 437.091 155.954 437.089 155.86 437.084C155.76 437.084 155.656 437.081 155.547 437.077V434.712C155.628 434.716 155.699 434.719 155.76 434.719C155.817 434.723 155.879 434.726 155.945 434.726C156.433 434.726 156.774 434.622 156.968 434.413C157.167 434.21 157.266 433.902 157.266 433.49V422.091ZM158.772 420.685C158.327 420.685 157.943 420.536 157.621 420.237C157.299 419.934 157.138 419.572 157.138 419.151C157.138 418.734 157.299 418.376 157.621 418.078C157.943 417.775 158.327 417.624 158.772 417.624C159.226 417.624 159.612 417.775 159.929 418.078C160.251 418.376 160.412 418.734 160.412 419.151C160.412 419.572 160.251 419.934 159.929 420.237C159.612 420.536 159.226 420.685 158.772 420.685ZM165.826 433.206C165.13 433.206 164.51 433.085 163.965 432.844C163.421 432.598 162.99 432.235 162.673 431.757C162.36 431.274 162.204 430.673 162.204 429.953C162.204 429.347 162.315 428.838 162.538 428.426C162.76 428.014 163.063 427.683 163.447 427.432C163.83 427.181 164.266 426.991 164.754 426.864C165.246 426.736 165.762 426.646 166.302 426.594C166.936 426.527 167.448 426.466 167.836 426.409C168.224 426.348 168.506 426.258 168.681 426.139C168.856 426.021 168.944 425.846 168.944 425.614V425.571C168.944 425.121 168.802 424.773 168.518 424.527C168.238 424.281 167.841 424.158 167.325 424.158C166.78 424.158 166.347 424.278 166.025 424.52C165.703 424.757 165.49 425.055 165.386 425.415L162.587 425.188C162.729 424.525 163.009 423.952 163.425 423.469C163.842 422.981 164.379 422.607 165.038 422.347C165.701 422.081 166.468 421.949 167.339 421.949C167.945 421.949 168.525 422.02 169.079 422.162C169.638 422.304 170.132 422.524 170.563 422.822C170.999 423.121 171.342 423.504 171.593 423.973C171.844 424.437 171.969 424.993 171.969 425.642V433H169.1V431.487H169.015C168.84 431.828 168.605 432.129 168.312 432.389C168.018 432.645 167.665 432.846 167.254 432.993C166.842 433.135 166.366 433.206 165.826 433.206ZM166.692 431.118C167.138 431.118 167.531 431.03 167.871 430.855C168.212 430.675 168.48 430.434 168.674 430.131C168.868 429.828 168.965 429.484 168.965 429.101V427.943C168.871 428.005 168.74 428.062 168.575 428.114C168.414 428.161 168.231 428.206 168.028 428.249C167.824 428.286 167.621 428.322 167.417 428.355C167.213 428.384 167.029 428.41 166.863 428.433C166.508 428.485 166.198 428.568 165.933 428.682C165.667 428.795 165.461 428.949 165.315 429.143C165.168 429.333 165.094 429.57 165.094 429.854C165.094 430.266 165.244 430.58 165.542 430.798C165.845 431.011 166.228 431.118 166.692 431.118ZM179.002 433V418.455H182.028V423.923H182.12C182.253 423.63 182.445 423.331 182.696 423.028C182.951 422.721 183.283 422.465 183.69 422.261C184.102 422.053 184.613 421.949 185.224 421.949C186.02 421.949 186.753 422.157 187.426 422.574C188.098 422.986 188.636 423.608 189.038 424.442C189.44 425.27 189.642 426.31 189.642 427.56C189.642 428.777 189.445 429.804 189.052 430.642C188.664 431.475 188.134 432.107 187.461 432.538C186.794 432.964 186.046 433.178 185.217 433.178C184.63 433.178 184.13 433.08 183.718 432.886C183.311 432.692 182.977 432.448 182.717 432.155C182.457 431.857 182.258 431.556 182.12 431.253H181.985V433H179.002ZM181.964 427.545C181.964 428.194 182.054 428.76 182.234 429.243C182.414 429.726 182.674 430.102 183.015 430.372C183.356 430.637 183.77 430.77 184.258 430.77C184.751 430.77 185.167 430.635 185.508 430.365C185.849 430.09 186.107 429.712 186.282 429.229C186.462 428.741 186.552 428.18 186.552 427.545C186.552 426.916 186.465 426.362 186.289 425.884C186.114 425.405 185.856 425.031 185.515 424.761C185.174 424.491 184.755 424.357 184.258 424.357C183.766 424.357 183.349 424.487 183.008 424.747C182.672 425.008 182.414 425.377 182.234 425.855C182.054 426.333 181.964 426.897 181.964 427.545ZM196.632 433.213C195.51 433.213 194.544 432.986 193.734 432.531C192.929 432.072 192.309 431.423 191.874 430.585C191.438 429.742 191.22 428.746 191.22 427.595C191.22 426.473 191.438 425.488 191.874 424.641C192.309 423.793 192.922 423.133 193.713 422.659C194.509 422.186 195.441 421.949 196.511 421.949C197.231 421.949 197.901 422.065 198.521 422.297C199.146 422.524 199.691 422.867 200.155 423.327C200.624 423.786 200.988 424.364 201.249 425.06C201.509 425.751 201.639 426.561 201.639 427.489V428.32H192.428V426.445H198.791C198.791 426.009 198.696 425.623 198.507 425.287C198.318 424.951 198.055 424.688 197.719 424.499C197.387 424.304 197.001 424.207 196.561 424.207C196.102 424.207 195.695 424.314 195.339 424.527C194.989 424.735 194.714 425.017 194.516 425.372C194.317 425.723 194.215 426.113 194.21 426.544V428.327C194.21 428.866 194.31 429.333 194.509 429.726C194.712 430.119 194.999 430.422 195.368 430.635C195.737 430.848 196.175 430.955 196.682 430.955C197.018 430.955 197.326 430.907 197.605 430.812C197.884 430.718 198.124 430.576 198.322 430.386C198.521 430.197 198.673 429.965 198.777 429.69L201.575 429.875C201.433 430.547 201.142 431.134 200.702 431.636C200.266 432.134 199.703 432.522 199.011 432.801C198.325 433.076 197.532 433.213 196.632 433.213ZM203.614 433V422.091H206.497V424.016H206.625C206.852 423.376 207.231 422.872 207.761 422.503C208.292 422.134 208.926 421.949 209.665 421.949C210.413 421.949 211.05 422.136 211.575 422.51C212.101 422.879 212.451 423.381 212.626 424.016H212.74C212.963 423.391 213.365 422.891 213.947 422.517C214.535 422.138 215.228 421.949 216.028 421.949C217.046 421.949 217.873 422.273 218.507 422.922C219.146 423.566 219.466 424.48 219.466 425.663V433H216.447V426.26C216.447 425.654 216.286 425.199 215.964 424.896C215.643 424.593 215.24 424.442 214.757 424.442C214.208 424.442 213.779 424.617 213.472 424.967C213.164 425.313 213.01 425.77 213.01 426.338V433H210.077V426.196C210.077 425.661 209.923 425.235 209.615 424.918C209.312 424.6 208.912 424.442 208.415 424.442C208.079 424.442 207.776 424.527 207.506 424.697C207.241 424.863 207.03 425.098 206.874 425.401C206.717 425.699 206.639 426.049 206.639 426.452V433H203.614ZM236.655 422.091L232.841 433H229.432L225.618 422.091H228.814L231.08 429.896H231.194L233.452 422.091H236.655ZM238.203 433V422.091H241.229V433H238.203ZM239.723 420.685C239.274 420.685 238.888 420.536 238.566 420.237C238.248 419.934 238.09 419.572 238.09 419.151C238.09 418.734 238.248 418.376 238.566 418.078C238.888 417.775 239.274 417.624 239.723 417.624C240.173 417.624 240.557 417.775 240.874 418.078C241.196 418.376 241.357 418.734 241.357 419.151C241.357 419.572 241.196 419.934 240.874 420.237C240.557 420.536 240.173 420.685 239.723 420.685ZM246.678 426.693V433H243.653V422.091H246.536V424.016H246.664C246.906 423.381 247.31 422.879 247.879 422.51C248.447 422.136 249.136 421.949 249.945 421.949C250.703 421.949 251.363 422.115 251.927 422.446C252.49 422.777 252.928 423.251 253.241 423.866C253.553 424.477 253.71 425.206 253.71 426.054V433H250.684V426.594C250.689 425.926 250.518 425.405 250.173 425.031C249.827 424.652 249.351 424.463 248.745 424.463C248.338 424.463 247.978 424.551 247.665 424.726C247.358 424.901 247.116 425.157 246.941 425.493C246.771 425.824 246.683 426.224 246.678 426.693ZM260.114 433.178C259.285 433.178 258.535 432.964 257.863 432.538C257.195 432.107 256.665 431.475 256.272 430.642C255.883 429.804 255.689 428.777 255.689 427.56C255.689 426.31 255.891 425.27 256.293 424.442C256.695 423.608 257.23 422.986 257.898 422.574C258.57 422.157 259.307 421.949 260.107 421.949C260.718 421.949 261.227 422.053 261.634 422.261C262.046 422.465 262.377 422.721 262.628 423.028C262.884 423.331 263.078 423.63 263.211 423.923H263.303V418.455H266.321V433H263.338V431.253H263.211C263.069 431.556 262.867 431.857 262.607 432.155C262.351 432.448 262.017 432.692 261.605 432.886C261.198 433.08 260.701 433.178 260.114 433.178ZM261.073 430.77C261.56 430.77 261.972 430.637 262.309 430.372C262.65 430.102 262.91 429.726 263.09 429.243C263.275 428.76 263.367 428.194 263.367 427.545C263.367 426.897 263.277 426.333 263.097 425.855C262.917 425.377 262.657 425.008 262.316 424.747C261.975 424.487 261.56 424.357 261.073 424.357C260.576 424.357 260.157 424.491 259.816 424.761C259.475 425.031 259.217 425.405 259.042 425.884C258.866 426.362 258.779 426.916 258.779 427.545C258.779 428.18 258.866 428.741 259.042 429.229C259.221 429.712 259.48 430.09 259.816 430.365C260.157 430.635 260.576 430.77 261.073 430.77ZM273.738 433.213C272.635 433.213 271.681 432.979 270.876 432.51C270.076 432.036 269.458 431.378 269.022 430.536C268.586 429.688 268.369 428.705 268.369 427.588C268.369 426.461 268.586 425.476 269.022 424.634C269.458 423.786 270.076 423.128 270.876 422.659C271.681 422.186 272.635 421.949 273.738 421.949C274.841 421.949 275.793 422.186 276.593 422.659C277.398 423.128 278.018 423.786 278.454 424.634C278.889 425.476 279.107 426.461 279.107 427.588C279.107 428.705 278.889 429.688 278.454 430.536C278.018 431.378 277.398 432.036 276.593 432.51C275.793 432.979 274.841 433.213 273.738 433.213ZM273.752 430.869C274.254 430.869 274.673 430.727 275.009 430.443C275.345 430.154 275.599 429.761 275.769 429.264C275.944 428.767 276.032 428.201 276.032 427.567C276.032 426.932 275.944 426.366 275.769 425.869C275.599 425.372 275.345 424.979 275.009 424.69C274.673 424.402 274.254 424.257 273.752 424.257C273.246 424.257 272.819 424.402 272.474 424.69C272.133 424.979 271.875 425.372 271.7 425.869C271.529 426.366 271.444 426.932 271.444 427.567C271.444 428.201 271.529 428.767 271.7 429.264C271.875 429.761 272.133 430.154 272.474 430.443C272.819 430.727 273.246 430.869 273.752 430.869Z" fill="#4A5056"/>
<defs>
<clipPath id="clip0_67_112596">
<rect width="411" height="396" fill="white"/>
</clipPath>
</defs>
</svg>
