<svg width="432" height="48" viewBox="0 0 432 48" fill="none" xmlns="http://www.w3.org/2000/svg">
<path d="M106.695 6.36364V18H104.82L99.3366 10.0739H99.2401V18H97.1321V6.36364H99.0185L104.496 14.2955H104.598V6.36364H106.695ZM112.764 18.1705C111.889 18.1705 111.134 17.9886 110.497 17.625C109.865 17.2576 109.378 16.7386 109.037 16.0682C108.696 15.3939 108.526 14.6004 108.526 13.6875C108.526 12.7898 108.696 12.0019 109.037 11.3239C109.382 10.642 109.863 10.1117 110.48 9.73295C111.098 9.35038 111.823 9.15909 112.656 9.15909C113.194 9.15909 113.702 9.24621 114.179 9.42045C114.66 9.59091 115.084 9.85606 115.452 10.2159C115.823 10.5758 116.115 11.0341 116.327 11.5909C116.539 12.1439 116.645 12.803 116.645 13.5682V14.1989H109.491V12.8125H114.673C114.67 12.4186 114.584 12.0682 114.418 11.7614C114.251 11.4508 114.018 11.2064 113.719 11.0284C113.423 10.8504 113.079 10.7614 112.685 10.7614C112.264 10.7614 111.895 10.8636 111.577 11.0682C111.259 11.2689 111.01 11.5341 110.832 11.8636C110.658 12.1894 110.569 12.5473 110.565 12.9375V14.1477C110.565 14.6553 110.658 15.0909 110.844 15.4545C111.029 15.8144 111.289 16.0909 111.622 16.2841C111.955 16.4735 112.346 16.5682 112.793 16.5682C113.092 16.5682 113.363 16.5265 113.605 16.4432C113.848 16.3561 114.058 16.2292 114.236 16.0625C114.414 15.8958 114.548 15.6894 114.639 15.4432L116.56 15.6591C116.438 16.1667 116.207 16.6098 115.866 16.9886C115.529 17.3636 115.098 17.6553 114.571 17.8636C114.045 18.0682 113.442 18.1705 112.764 18.1705ZM120.442 12.8864V18H118.385V9.27273H120.351V10.7557H120.453C120.654 10.267 120.974 9.87879 121.413 9.59091C121.857 9.30303 122.404 9.15909 123.055 9.15909C123.658 9.15909 124.182 9.28788 124.629 9.54545C125.08 9.80303 125.429 10.1761 125.675 10.6648C125.925 11.1534 126.048 11.7462 126.044 12.4432V18H123.987V12.7614C123.987 12.178 123.836 11.7216 123.533 11.392C123.233 11.0625 122.819 10.8977 122.288 10.8977C121.929 10.8977 121.608 10.9773 121.328 11.1364C121.052 11.2917 120.834 11.517 120.675 11.8125C120.519 12.108 120.442 12.4659 120.442 12.8864ZM130.192 12.8864V18H128.135V6.36364H130.146V10.7557H130.249C130.453 10.2633 130.769 9.875 131.197 9.59091C131.629 9.30303 132.179 9.15909 132.845 9.15909C133.451 9.15909 133.98 9.28598 134.43 9.53977C134.881 9.79356 135.23 10.1648 135.476 10.6534C135.726 11.142 135.851 11.7386 135.851 12.4432V18H133.794V12.7614C133.794 12.1742 133.643 11.7178 133.339 11.392C133.04 11.0625 132.62 10.8977 132.078 10.8977C131.714 10.8977 131.389 10.9773 131.101 11.1364C130.817 11.2917 130.593 11.517 130.43 11.8125C130.271 12.108 130.192 12.4659 130.192 12.8864ZM143.51 14.3295V9.27273H145.567V18H143.572V16.4489H143.482C143.285 16.9375 142.961 17.3371 142.51 17.6477C142.063 17.9583 141.512 18.1136 140.857 18.1136C140.285 18.1136 139.779 17.9867 139.339 17.733C138.904 17.4754 138.563 17.1023 138.317 16.6136C138.071 16.1212 137.947 15.5265 137.947 14.8295V9.27273H140.004V14.5114C140.004 15.0644 140.156 15.5038 140.459 15.8295C140.762 16.1553 141.16 16.3182 141.652 16.3182C141.955 16.3182 142.249 16.2443 142.533 16.0966C142.817 15.9489 143.05 15.7292 143.232 15.4375C143.417 15.142 143.51 14.7727 143.51 14.3295ZM147.682 18V9.27273H149.648V10.7557H149.75C149.932 10.2557 150.233 9.86553 150.653 9.58523C151.074 9.30114 151.576 9.15909 152.159 9.15909C152.75 9.15909 153.248 9.30303 153.653 9.59091C154.063 9.875 154.35 10.2633 154.517 10.7557H154.608C154.801 10.2708 155.127 9.88447 155.585 9.59659C156.047 9.30492 156.595 9.15909 157.227 9.15909C158.03 9.15909 158.686 9.41288 159.193 9.92045C159.701 10.428 159.955 11.1686 159.955 12.142V18H157.892V12.4602C157.892 11.9186 157.748 11.5227 157.46 11.2727C157.172 11.0189 156.82 10.892 156.403 10.892C155.907 10.892 155.519 11.0473 155.239 11.358C154.962 11.6648 154.824 12.0644 154.824 12.5568V18H152.807V12.375C152.807 11.9242 152.67 11.5644 152.398 11.2955C152.129 11.0265 151.777 10.892 151.341 10.892C151.045 10.892 150.777 10.9678 150.534 11.1193C150.292 11.267 150.098 11.4773 149.955 11.75C149.811 12.0189 149.739 12.3333 149.739 12.6932V18H147.682ZM166.01 18V9.27273H168.004V10.7273H168.095C168.254 10.2235 168.527 9.83523 168.913 9.5625C169.304 9.28598 169.749 9.14773 170.249 9.14773C170.362 9.14773 170.489 9.15341 170.629 9.16477C170.773 9.17235 170.893 9.18561 170.987 9.20455V11.0966C170.9 11.0663 170.762 11.0398 170.572 11.017C170.387 10.9905 170.207 10.9773 170.033 10.9773C169.658 10.9773 169.321 11.0587 169.021 11.2216C168.726 11.3807 168.493 11.6023 168.322 11.8864C168.152 12.1705 168.067 12.4981 168.067 12.8693V18H166.01ZM175.858 18.1705C174.983 18.1705 174.227 17.9886 173.591 17.625C172.958 17.2576 172.472 16.7386 172.131 16.0682C171.79 15.3939 171.619 14.6004 171.619 13.6875C171.619 12.7898 171.79 12.0019 172.131 11.3239C172.475 10.642 172.956 10.1117 173.574 9.73295C174.191 9.35038 174.917 9.15909 175.75 9.15909C176.288 9.15909 176.795 9.24621 177.273 9.42045C177.754 9.59091 178.178 9.85606 178.545 10.2159C178.917 10.5758 179.208 11.0341 179.42 11.5909C179.633 12.1439 179.739 12.803 179.739 13.5682V14.1989H172.585V12.8125H177.767C177.763 12.4186 177.678 12.0682 177.511 11.7614C177.345 11.4508 177.112 11.2064 176.812 11.0284C176.517 10.8504 176.172 10.7614 175.778 10.7614C175.358 10.7614 174.989 10.8636 174.67 11.0682C174.352 11.2689 174.104 11.5341 173.926 11.8636C173.752 12.1894 173.663 12.5473 173.659 12.9375V14.1477C173.659 14.6553 173.752 15.0909 173.938 15.4545C174.123 15.8144 174.383 16.0909 174.716 16.2841C175.049 16.4735 175.439 16.5682 175.886 16.5682C176.186 16.5682 176.456 16.5265 176.699 16.4432C176.941 16.3561 177.152 16.2292 177.33 16.0625C177.508 15.8958 177.642 15.6894 177.733 15.4432L179.653 15.6591C179.532 16.1667 179.301 16.6098 178.96 16.9886C178.623 17.3636 178.191 17.6553 177.665 17.8636C177.138 18.0682 176.536 18.1705 175.858 18.1705ZM188.376 11.5795L186.501 11.7841C186.448 11.5947 186.356 11.4167 186.223 11.25C186.094 11.0833 185.92 10.9489 185.7 10.8466C185.481 10.7443 185.212 10.6932 184.893 10.6932C184.465 10.6932 184.106 10.786 183.814 10.9716C183.526 11.1572 183.384 11.3977 183.388 11.6932C183.384 11.947 183.477 12.1534 183.666 12.3125C183.859 12.4716 184.178 12.6023 184.621 12.7045L186.109 13.0227C186.935 13.2008 187.549 13.483 187.95 13.8693C188.356 14.2557 188.56 14.7614 188.564 15.3864C188.56 15.9356 188.399 16.4205 188.081 16.8409C187.767 17.2576 187.329 17.5833 186.768 17.8182C186.208 18.053 185.564 18.1705 184.837 18.1705C183.768 18.1705 182.909 17.947 182.257 17.5C181.606 17.0492 181.217 16.4223 181.092 15.6193L183.098 15.4261C183.189 15.8201 183.382 16.1174 183.678 16.3182C183.973 16.5189 184.357 16.6193 184.831 16.6193C185.32 16.6193 185.712 16.5189 186.007 16.3182C186.306 16.1174 186.456 15.8693 186.456 15.5739C186.456 15.3239 186.359 15.1174 186.166 14.9545C185.977 14.7917 185.681 14.6667 185.28 14.5795L183.791 14.267C182.954 14.0928 182.335 13.7992 181.933 13.3864C181.532 12.9697 181.333 12.4432 181.337 11.8068C181.333 11.2689 181.479 10.803 181.774 10.4091C182.073 10.0114 182.488 9.70455 183.018 9.48864C183.553 9.26894 184.168 9.15909 184.865 9.15909C185.888 9.15909 186.693 9.37689 187.28 9.8125C187.871 10.2481 188.236 10.8371 188.376 11.5795ZM195.822 14.3295V9.27273H197.879V18H195.885V16.4489H195.794C195.597 16.9375 195.273 17.3371 194.822 17.6477C194.375 17.9583 193.824 18.1136 193.169 18.1136C192.597 18.1136 192.091 17.9867 191.652 17.733C191.216 17.4754 190.875 17.1023 190.629 16.6136C190.383 16.1212 190.26 15.5265 190.26 14.8295V9.27273H192.317V14.5114C192.317 15.0644 192.468 15.5038 192.771 15.8295C193.074 16.1553 193.472 16.3182 193.964 16.3182C194.268 16.3182 194.561 16.2443 194.845 16.0966C195.129 15.9489 195.362 15.7292 195.544 15.4375C195.73 15.142 195.822 14.7727 195.822 14.3295ZM202.051 6.36364V18H199.994V6.36364H202.051ZM208.524 9.27273V10.8636H203.507V9.27273H208.524ZM204.746 7.18182H206.803V15.375C206.803 15.6515 206.844 15.8636 206.928 16.0114C207.015 16.1553 207.128 16.2538 207.268 16.3068C207.409 16.3598 207.564 16.3864 207.734 16.3864C207.863 16.3864 207.981 16.3769 208.087 16.358C208.196 16.339 208.28 16.322 208.337 16.3068L208.683 17.9148C208.573 17.9527 208.416 17.9943 208.212 18.0398C208.011 18.0852 207.765 18.1117 207.473 18.1193C206.958 18.1345 206.494 18.0568 206.081 17.8864C205.668 17.7121 205.34 17.4432 205.098 17.0795C204.859 16.7159 204.742 16.2614 204.746 15.7159V7.18182ZM212.756 18.1761C212.203 18.1761 211.705 18.0777 211.261 17.8807C210.822 17.6799 210.473 17.3845 210.216 16.9943C209.962 16.6042 209.835 16.1231 209.835 15.5511C209.835 15.0587 209.926 14.6515 210.108 14.3295C210.29 14.0076 210.538 13.75 210.852 13.5568C211.167 13.3636 211.521 13.2178 211.915 13.1193C212.313 13.017 212.723 12.9432 213.148 12.8977C213.659 12.8447 214.074 12.7973 214.392 12.7557C214.71 12.7102 214.941 12.642 215.085 12.5511C215.233 12.4564 215.307 12.3106 215.307 12.1136V12.0795C215.307 11.6515 215.18 11.3201 214.926 11.0852C214.672 10.8504 214.307 10.733 213.83 10.733C213.326 10.733 212.926 10.8428 212.631 11.0625C212.339 11.2822 212.142 11.5417 212.04 11.8409L210.119 11.5682C210.271 11.0379 210.521 10.5947 210.869 10.2386C211.218 9.87879 211.644 9.60985 212.148 9.43182C212.652 9.25 213.208 9.15909 213.818 9.15909C214.239 9.15909 214.657 9.20833 215.074 9.30682C215.491 9.4053 215.871 9.56818 216.216 9.79545C216.561 10.0189 216.837 10.3239 217.045 10.7102C217.258 11.0966 217.364 11.5795 217.364 12.1591V18H215.386V16.8011H215.318C215.193 17.0436 215.017 17.2708 214.79 17.483C214.566 17.6913 214.284 17.8598 213.943 17.9886C213.606 18.1136 213.21 18.1761 212.756 18.1761ZM213.29 16.6648C213.703 16.6648 214.061 16.5833 214.364 16.4205C214.667 16.2538 214.9 16.0341 215.062 15.7614C215.229 15.4886 215.312 15.1913 215.312 14.8693V13.8409C215.248 13.8939 215.138 13.9432 214.983 13.9886C214.831 14.0341 214.661 14.0739 214.472 14.108C214.282 14.142 214.095 14.1723 213.909 14.1989C213.723 14.2254 213.563 14.2481 213.426 14.267C213.119 14.3087 212.845 14.3769 212.602 14.4716C212.36 14.5663 212.169 14.6989 212.028 14.8693C211.888 15.036 211.818 15.2519 211.818 15.517C211.818 15.8958 211.956 16.1818 212.233 16.375C212.509 16.5682 212.862 16.6648 213.29 16.6648ZM222.67 18.1534C221.985 18.1534 221.371 17.9773 220.83 17.625C220.288 17.2727 219.86 16.7614 219.545 16.0909C219.231 15.4205 219.074 14.6061 219.074 13.6477C219.074 12.678 219.233 11.8598 219.551 11.1932C219.873 10.5227 220.307 10.017 220.852 9.67614C221.398 9.33144 222.006 9.15909 222.676 9.15909C223.188 9.15909 223.608 9.24621 223.938 9.42045C224.267 9.59091 224.528 9.79735 224.722 10.0398C224.915 10.2784 225.064 10.5038 225.17 10.7159H225.256V6.36364H227.318V18H225.295V16.625H225.17C225.064 16.8371 224.911 17.0625 224.71 17.3011C224.509 17.536 224.244 17.7367 223.915 17.9034C223.585 18.0701 223.17 18.1534 222.67 18.1534ZM223.244 16.4659C223.68 16.4659 224.051 16.3485 224.358 16.1136C224.665 15.875 224.898 15.5436 225.057 15.1193C225.216 14.6951 225.295 14.2008 225.295 13.6364C225.295 13.072 225.216 12.5814 225.057 12.1648C224.902 11.7481 224.67 11.4242 224.364 11.1932C224.061 10.9621 223.688 10.8466 223.244 10.8466C222.786 10.8466 222.403 10.9659 222.097 11.2045C221.79 11.4432 221.559 11.7727 221.403 12.1932C221.248 12.6136 221.17 13.0947 221.17 13.6364C221.17 14.1818 221.248 14.6686 221.403 15.0966C221.563 15.5208 221.795 15.8561 222.102 16.1023C222.413 16.3447 222.794 16.4659 223.244 16.4659ZM233.317 18.1705C232.464 18.1705 231.726 17.983 231.101 17.608C230.476 17.233 229.991 16.7083 229.646 16.0341C229.305 15.3598 229.135 14.572 229.135 13.6705C229.135 12.7689 229.305 11.9792 229.646 11.3011C229.991 10.6231 230.476 10.0966 231.101 9.72159C231.726 9.34659 232.464 9.15909 233.317 9.15909C234.169 9.15909 234.908 9.34659 235.533 9.72159C236.158 10.0966 236.641 10.6231 236.982 11.3011C237.326 11.9792 237.499 12.7689 237.499 13.6705C237.499 14.572 237.326 15.3598 236.982 16.0341C236.641 16.7083 236.158 17.233 235.533 17.608C234.908 17.983 234.169 18.1705 233.317 18.1705ZM233.328 16.5227C233.79 16.5227 234.177 16.3958 234.487 16.142C234.798 15.8845 235.029 15.5398 235.18 15.108C235.336 14.6761 235.413 14.1951 235.413 13.6648C235.413 13.1307 235.336 12.6477 235.18 12.2159C235.029 11.7803 234.798 11.4337 234.487 11.1761C234.177 10.9186 233.79 10.7898 233.328 10.7898C232.855 10.7898 232.461 10.9186 232.146 11.1761C231.836 11.4337 231.603 11.7803 231.447 12.2159C231.296 12.6477 231.22 13.1307 231.22 13.6648C231.22 14.1951 231.296 14.6761 231.447 15.108C231.603 15.5398 231.836 15.8845 232.146 16.142C232.461 16.3958 232.855 16.5227 233.328 16.5227ZM247.077 18.1705C246.202 18.1705 245.446 17.9886 244.81 17.625C244.177 17.2576 243.69 16.7386 243.349 16.0682C243.009 15.3939 242.838 14.6004 242.838 13.6875C242.838 12.7898 243.009 12.0019 243.349 11.3239C243.694 10.642 244.175 10.1117 244.793 9.73295C245.41 9.35038 246.135 9.15909 246.969 9.15909C247.507 9.15909 248.014 9.24621 248.491 9.42045C248.973 9.59091 249.397 9.85606 249.764 10.2159C250.135 10.5758 250.427 11.0341 250.639 11.5909C250.851 12.1439 250.957 12.803 250.957 13.5682V14.1989H243.804V12.8125H248.986C248.982 12.4186 248.897 12.0682 248.73 11.7614C248.563 11.4508 248.33 11.2064 248.031 11.0284C247.736 10.8504 247.391 10.7614 246.997 10.7614C246.577 10.7614 246.207 10.8636 245.889 11.0682C245.571 11.2689 245.323 11.5341 245.145 11.8636C244.971 12.1894 244.882 12.5473 244.878 12.9375V14.1477C244.878 14.6553 244.971 15.0909 245.156 15.4545C245.342 15.8144 245.601 16.0909 245.935 16.2841C246.268 16.4735 246.658 16.5682 247.105 16.5682C247.404 16.5682 247.675 16.5265 247.918 16.4432C248.16 16.3561 248.37 16.2292 248.548 16.0625C248.726 15.8958 248.861 15.6894 248.952 15.4432L250.872 15.6591C250.751 16.1667 250.52 16.6098 250.179 16.9886C249.842 17.3636 249.41 17.6553 248.884 17.8636C248.357 18.0682 247.755 18.1705 247.077 18.1705ZM254.754 12.8864V18H252.697V9.27273H254.663V10.7557H254.766C254.966 10.267 255.286 9.87879 255.726 9.59091C256.169 9.30303 256.716 9.15909 257.368 9.15909C257.97 9.15909 258.495 9.28788 258.942 9.54545C259.393 9.80303 259.741 10.1761 259.987 10.6648C260.237 11.1534 260.36 11.7462 260.357 12.4432V18H258.3V12.7614C258.3 12.178 258.148 11.7216 257.845 11.392C257.546 11.0625 257.131 10.8977 256.601 10.8977C256.241 10.8977 255.921 10.9773 255.641 11.1364C255.364 11.2917 255.146 11.517 254.987 11.8125C254.832 12.108 254.754 12.4659 254.754 12.8864ZM266.254 18.1705C265.383 18.1705 264.635 17.9792 264.01 17.5966C263.389 17.214 262.91 16.6856 262.572 16.0114C262.239 15.3333 262.072 14.553 262.072 13.6705C262.072 12.7841 262.243 12.0019 262.584 11.3239C262.925 10.642 263.406 10.1117 264.027 9.73295C264.652 9.35038 265.391 9.15909 266.243 9.15909C266.951 9.15909 267.578 9.28977 268.124 9.55114C268.673 9.80871 269.11 10.1742 269.436 10.6477C269.762 11.1174 269.947 11.6667 269.993 12.2955H268.027C267.947 11.875 267.758 11.5246 267.459 11.2443C267.163 10.9602 266.768 10.8182 266.271 10.8182C265.851 10.8182 265.482 10.9318 265.163 11.1591C264.845 11.3826 264.597 11.7045 264.419 12.125C264.245 12.5455 264.158 13.0492 264.158 13.6364C264.158 14.2311 264.245 14.7424 264.419 15.1705C264.593 15.5947 264.838 15.9223 265.152 16.1534C265.47 16.3807 265.843 16.4943 266.271 16.4943C266.574 16.4943 266.845 16.4375 267.084 16.3239C267.326 16.2064 267.529 16.0379 267.692 15.8182C267.855 15.5985 267.966 15.3314 268.027 15.017H269.993C269.944 15.6345 269.762 16.1818 269.447 16.6591C269.133 17.1326 268.705 17.5038 268.163 17.7727C267.622 18.0379 266.985 18.1705 266.254 18.1705ZM275.489 18.1705C274.636 18.1705 273.898 17.983 273.273 17.608C272.648 17.233 272.163 16.7083 271.818 16.0341C271.477 15.3598 271.307 14.572 271.307 13.6705C271.307 12.7689 271.477 11.9792 271.818 11.3011C272.163 10.6231 272.648 10.0966 273.273 9.72159C273.898 9.34659 274.636 9.15909 275.489 9.15909C276.341 9.15909 277.08 9.34659 277.705 9.72159C278.33 10.0966 278.813 10.6231 279.153 11.3011C279.498 11.9792 279.67 12.7689 279.67 13.6705C279.67 14.572 279.498 15.3598 279.153 16.0341C278.813 16.7083 278.33 17.233 277.705 17.608C277.08 17.983 276.341 18.1705 275.489 18.1705ZM275.5 16.5227C275.962 16.5227 276.348 16.3958 276.659 16.142C276.97 15.8845 277.201 15.5398 277.352 15.108C277.508 14.6761 277.585 14.1951 277.585 13.6648C277.585 13.1307 277.508 12.6477 277.352 12.2159C277.201 11.7803 276.97 11.4337 276.659 11.1761C276.348 10.9186 275.962 10.7898 275.5 10.7898C275.027 10.7898 274.633 10.9186 274.318 11.1761C274.008 11.4337 273.775 11.7803 273.619 12.2159C273.468 12.6477 273.392 13.1307 273.392 13.6648C273.392 14.1951 273.468 14.6761 273.619 15.108C273.775 15.5398 274.008 15.8845 274.318 16.142C274.633 16.3958 275.027 16.5227 275.5 16.5227ZM283.473 12.8864V18H281.416V9.27273H283.382V10.7557H283.484C283.685 10.267 284.005 9.87879 284.445 9.59091C284.888 9.30303 285.435 9.15909 286.087 9.15909C286.689 9.15909 287.214 9.28788 287.661 9.54545C288.111 9.80303 288.46 10.1761 288.706 10.6648C288.956 11.1534 289.079 11.7462 289.075 12.4432V18H287.018V12.7614C287.018 12.178 286.867 11.7216 286.564 11.392C286.265 11.0625 285.85 10.8977 285.32 10.8977C284.96 10.8977 284.64 10.9773 284.359 11.1364C284.083 11.2917 283.865 11.517 283.706 11.8125C283.551 12.108 283.473 12.4659 283.473 12.8864ZM295.524 9.27273V10.8636H290.507V9.27273H295.524ZM291.746 7.18182H293.803V15.375C293.803 15.6515 293.844 15.8636 293.928 16.0114C294.015 16.1553 294.128 16.2538 294.268 16.3068C294.409 16.3598 294.564 16.3864 294.734 16.3864C294.863 16.3864 294.981 16.3769 295.087 16.358C295.196 16.339 295.28 16.322 295.337 16.3068L295.683 17.9148C295.573 17.9527 295.416 17.9943 295.212 18.0398C295.011 18.0852 294.765 18.1117 294.473 18.1193C293.958 18.1345 293.494 18.0568 293.081 17.8864C292.668 17.7121 292.34 17.4432 292.098 17.0795C291.859 16.7159 291.742 16.2614 291.746 15.7159V7.18182ZM297.244 18V9.27273H299.239V10.7273H299.33C299.489 10.2235 299.761 9.83523 300.148 9.5625C300.538 9.28598 300.983 9.14773 301.483 9.14773C301.597 9.14773 301.723 9.15341 301.864 9.16477C302.008 9.17235 302.127 9.18561 302.222 9.20455V11.0966C302.134 11.0663 301.996 11.0398 301.807 11.017C301.621 10.9905 301.441 10.9773 301.267 10.9773C300.892 10.9773 300.555 11.0587 300.256 11.2216C299.96 11.3807 299.727 11.6023 299.557 11.8864C299.386 12.1705 299.301 12.4981 299.301 12.8693V18H297.244ZM305.943 18.1761C305.39 18.1761 304.892 18.0777 304.449 17.8807C304.009 17.6799 303.661 17.3845 303.403 16.9943C303.15 16.6042 303.023 16.1231 303.023 15.5511C303.023 15.0587 303.114 14.6515 303.295 14.3295C303.477 14.0076 303.725 13.75 304.04 13.5568C304.354 13.3636 304.708 13.2178 305.102 13.1193C305.5 13.017 305.911 12.9432 306.335 12.8977C306.847 12.8447 307.261 12.7973 307.58 12.7557C307.898 12.7102 308.129 12.642 308.273 12.5511C308.42 12.4564 308.494 12.3106 308.494 12.1136V12.0795C308.494 11.6515 308.367 11.3201 308.114 11.0852C307.86 10.8504 307.494 10.733 307.017 10.733C306.513 10.733 306.114 10.8428 305.818 11.0625C305.527 11.2822 305.33 11.5417 305.227 11.8409L303.307 11.5682C303.458 11.0379 303.708 10.5947 304.057 10.2386C304.405 9.87879 304.831 9.60985 305.335 9.43182C305.839 9.25 306.396 9.15909 307.006 9.15909C307.426 9.15909 307.845 9.20833 308.261 9.30682C308.678 9.4053 309.059 9.56818 309.403 9.79545C309.748 10.0189 310.025 10.3239 310.233 10.7102C310.445 11.0966 310.551 11.5795 310.551 12.1591V18H308.574V16.8011H308.506C308.381 17.0436 308.205 17.2708 307.977 17.483C307.754 17.6913 307.472 17.8598 307.131 17.9886C306.794 18.1136 306.398 18.1761 305.943 18.1761ZM306.477 16.6648C306.89 16.6648 307.248 16.5833 307.551 16.4205C307.854 16.2538 308.087 16.0341 308.25 15.7614C308.417 15.4886 308.5 15.1913 308.5 14.8693V13.8409C308.436 13.8939 308.326 13.9432 308.17 13.9886C308.019 14.0341 307.848 14.0739 307.659 14.108C307.47 14.142 307.282 14.1723 307.097 14.1989C306.911 14.2254 306.75 14.2481 306.614 14.267C306.307 14.3087 306.032 14.3769 305.79 14.4716C305.547 14.5663 305.356 14.6989 305.216 14.8693C305.076 15.036 305.006 15.2519 305.006 15.517C305.006 15.8958 305.144 16.1818 305.42 16.375C305.697 16.5682 306.049 16.6648 306.477 16.6648ZM315.858 18.1534C315.172 18.1534 314.559 17.9773 314.017 17.625C313.475 17.2727 313.047 16.7614 312.733 16.0909C312.419 15.4205 312.261 14.6061 312.261 13.6477C312.261 12.678 312.42 11.8598 312.739 11.1932C313.061 10.5227 313.494 10.017 314.04 9.67614C314.585 9.33144 315.193 9.15909 315.864 9.15909C316.375 9.15909 316.795 9.24621 317.125 9.42045C317.455 9.59091 317.716 9.79735 317.909 10.0398C318.102 10.2784 318.252 10.5038 318.358 10.7159H318.443V6.36364H320.506V18H318.483V16.625H318.358C318.252 16.8371 318.098 17.0625 317.898 17.3011C317.697 17.536 317.432 17.7367 317.102 17.9034C316.773 18.0701 316.358 18.1534 315.858 18.1534ZM316.432 16.4659C316.867 16.4659 317.239 16.3485 317.545 16.1136C317.852 15.875 318.085 15.5436 318.244 15.1193C318.403 14.6951 318.483 14.2008 318.483 13.6364C318.483 13.072 318.403 12.5814 318.244 12.1648C318.089 11.7481 317.858 11.4242 317.551 11.1932C317.248 10.9621 316.875 10.8466 316.432 10.8466C315.973 10.8466 315.591 10.9659 315.284 11.2045C314.977 11.4432 314.746 11.7727 314.591 12.1932C314.436 12.6136 314.358 13.0947 314.358 13.6364C314.358 14.1818 314.436 14.6686 314.591 15.0966C314.75 15.5208 314.983 15.8561 315.29 16.1023C315.6 16.3447 315.981 16.4659 316.432 16.4659ZM326.504 18.1705C325.652 18.1705 324.913 17.983 324.288 17.608C323.663 17.233 323.179 16.7083 322.834 16.0341C322.493 15.3598 322.322 14.572 322.322 13.6705C322.322 12.7689 322.493 11.9792 322.834 11.3011C323.179 10.6231 323.663 10.0966 324.288 9.72159C324.913 9.34659 325.652 9.15909 326.504 9.15909C327.357 9.15909 328.095 9.34659 328.72 9.72159C329.345 10.0966 329.828 10.6231 330.169 11.3011C330.514 11.9792 330.686 12.7689 330.686 13.6705C330.686 14.572 330.514 15.3598 330.169 16.0341C329.828 16.7083 329.345 17.233 328.72 17.608C328.095 17.983 327.357 18.1705 326.504 18.1705ZM326.516 16.5227C326.978 16.5227 327.364 16.3958 327.675 16.142C327.985 15.8845 328.216 15.5398 328.368 15.108C328.523 14.6761 328.601 14.1951 328.601 13.6648C328.601 13.1307 328.523 12.6477 328.368 12.2159C328.216 11.7803 327.985 11.4337 327.675 11.1761C327.364 10.9186 326.978 10.7898 326.516 10.7898C326.042 10.7898 325.648 10.9186 325.334 11.1761C325.023 11.4337 324.79 11.7803 324.635 12.2159C324.483 12.6477 324.408 13.1307 324.408 13.6648C324.408 14.1951 324.483 14.6761 324.635 15.108C324.79 15.5398 325.023 15.8845 325.334 16.142C325.648 16.3958 326.042 16.5227 326.516 16.5227ZM333.699 18.125C333.354 18.125 333.059 18.0038 332.812 17.7614C332.566 17.5189 332.445 17.2235 332.449 16.875C332.445 16.5341 332.566 16.2424 332.812 16C333.059 15.7576 333.354 15.6364 333.699 15.6364C334.032 15.6364 334.322 15.7576 334.568 16C334.818 16.2424 334.945 16.5341 334.949 16.875C334.945 17.1061 334.884 17.3163 334.767 17.5057C334.653 17.6951 334.502 17.8466 334.312 17.9602C334.127 18.0701 333.922 18.125 333.699 18.125Z" fill="#212529"/>
<path d="M63.2124 32.8182H64.684L68.1443 41.2699H68.2636L71.7238 32.8182H73.1954V43H72.042V35.2642H71.9426L68.7607 43H67.6471L64.4653 35.2642H64.3659V43H63.2124V32.8182ZM78.6107 43.1591C77.9213 43.1591 77.3164 42.995 76.7961 42.6669C76.279 42.3388 75.8747 41.8797 75.583 41.2898C75.2947 40.6998 75.1505 40.0104 75.1505 39.2216C75.1505 38.4261 75.2947 37.7318 75.583 37.1385C75.8747 36.5452 76.279 36.0845 76.7961 35.7564C77.3164 35.4283 77.9213 35.2642 78.6107 35.2642C79.3001 35.2642 79.9033 35.4283 80.4204 35.7564C80.9407 36.0845 81.3451 36.5452 81.6334 37.1385C81.9251 37.7318 82.0709 38.4261 82.0709 39.2216C82.0709 40.0104 81.9251 40.6998 81.6334 41.2898C81.3451 41.8797 80.9407 42.3388 80.4204 42.6669C79.9033 42.995 79.3001 43.1591 78.6107 43.1591ZM78.6107 42.1051C79.1344 42.1051 79.5653 41.9709 79.9033 41.7024C80.2414 41.4339 80.4916 41.081 80.654 40.6435C80.8164 40.206 80.8976 39.732 80.8976 39.2216C80.8976 38.7112 80.8164 38.2356 80.654 37.7947C80.4916 37.3539 80.2414 36.9976 79.9033 36.7259C79.5653 36.4541 79.1344 36.3182 78.6107 36.3182C78.087 36.3182 77.6562 36.4541 77.3181 36.7259C76.98 36.9976 76.7298 37.3539 76.5674 37.7947C76.405 38.2356 76.3238 38.7112 76.3238 39.2216C76.3238 39.732 76.405 40.206 76.5674 40.6435C76.7298 41.081 76.98 41.4339 77.3181 41.7024C77.6562 41.9709 78.087 42.1051 78.6107 42.1051ZM86.7455 43.1591C86.1091 43.1591 85.5473 42.9983 85.0601 42.6768C84.5729 42.352 84.1917 41.8946 83.9166 41.3047C83.6415 40.7114 83.504 40.0104 83.504 39.2017C83.504 38.3996 83.6415 37.7036 83.9166 37.1136C84.1917 36.5237 84.5745 36.0679 85.0651 35.7464C85.5556 35.425 86.1224 35.2642 86.7654 35.2642C87.2625 35.2642 87.6553 35.3471 87.9436 35.5128C88.2353 35.6752 88.4574 35.8608 88.6098 36.0696C88.7656 36.2751 88.8866 36.4441 88.9727 36.5767H89.0722V32.8182H90.2455V43H89.1119V41.8267H88.9727C88.8866 41.9659 88.7639 42.1416 88.6048 42.3537C88.4458 42.5625 88.2187 42.7498 87.9237 42.9155C87.6288 43.0779 87.236 43.1591 86.7455 43.1591ZM86.9046 42.1051C87.3752 42.1051 87.7729 41.9825 88.0977 41.7372C88.4226 41.4886 88.6695 41.1456 88.8385 40.7081C89.0075 40.2673 89.0921 39.7585 89.0921 39.1818C89.0921 38.6117 89.0092 38.1129 88.8435 37.6854C88.6778 37.2545 88.4325 36.9197 88.1077 36.6811C87.7829 36.4392 87.3818 36.3182 86.9046 36.3182C86.4074 36.3182 85.9931 36.4458 85.6617 36.701C85.3335 36.9529 85.0866 37.2959 84.9209 37.7301C84.7585 38.161 84.6773 38.6449 84.6773 39.1818C84.6773 39.7254 84.7602 40.2192 84.9259 40.6634C85.0949 41.1042 85.3435 41.4555 85.6716 41.7173C86.003 41.9759 86.414 42.1051 86.9046 42.1051ZM92.5573 43V35.3636H93.7306V43H92.5573ZM93.1539 34.0909C92.9252 34.0909 92.728 34.013 92.5622 33.8572C92.3998 33.7015 92.3186 33.5142 92.3186 33.2955C92.3186 33.0767 92.3998 32.8894 92.5622 32.7337C92.728 32.5779 92.9252 32.5 93.1539 32.5C93.3825 32.5 93.5781 32.5779 93.7405 32.7337C93.9062 32.8894 93.9891 33.0767 93.9891 33.2955C93.9891 33.5142 93.9062 33.7015 93.7405 33.8572C93.5781 34.013 93.3825 34.0909 93.1539 34.0909ZM99.2801 35.3636V36.358H95.1636V35.3636H99.2801ZM96.3966 43V34.3097C96.3966 33.8722 96.4993 33.5076 96.7048 33.2159C96.9103 32.9242 97.1771 32.7055 97.5052 32.5597C97.8334 32.4138 98.1797 32.3409 98.5443 32.3409C98.8327 32.3409 99.068 32.3641 99.2503 32.4105C99.4326 32.4569 99.5684 32.5 99.6579 32.5398L99.3199 33.554C99.2602 33.5341 99.1773 33.5092 99.0713 33.4794C98.9685 33.4496 98.8327 33.4347 98.6636 33.4347C98.2758 33.4347 97.9958 33.5324 97.8234 33.728C97.6544 33.9235 97.5699 34.2102 97.5699 34.5881V43H96.3966ZM100.924 43V35.3636H102.098V43H100.924ZM101.521 34.0909C101.292 34.0909 101.095 34.013 100.929 33.8572C100.767 33.7015 100.686 33.5142 100.686 33.2955C100.686 33.0767 100.767 32.8894 100.929 32.7337C101.095 32.5779 101.292 32.5 101.521 32.5C101.75 32.5 101.945 32.5779 102.108 32.7337C102.273 32.8894 102.356 33.0767 102.356 33.2955C102.356 33.5142 102.273 33.7015 102.108 33.8572C101.945 34.013 101.75 34.0909 101.521 34.0909ZM109.457 45.8636V41.8267H109.358C109.271 41.9659 109.149 42.1416 108.99 42.3537C108.831 42.5625 108.603 42.7498 108.309 42.9155C108.014 43.0779 107.621 43.1591 107.13 43.1591C106.494 43.1591 105.932 42.9983 105.445 42.6768C104.958 42.352 104.576 41.8946 104.301 41.3047C104.026 40.7114 103.889 40.0104 103.889 39.2017C103.889 38.3996 104.026 37.7036 104.301 37.1136C104.576 36.5237 104.959 36.0679 105.45 35.7464C105.94 35.425 106.507 35.2642 107.15 35.2642C107.647 35.2642 108.04 35.3471 108.328 35.5128C108.62 35.6752 108.842 35.8608 108.995 36.0696C109.15 36.2751 109.271 36.4441 109.358 36.5767H109.497V35.3636H110.63V45.8636H109.457ZM107.289 42.1051C107.76 42.1051 108.158 41.9825 108.483 41.7372C108.807 41.4886 109.054 41.1456 109.223 40.7081C109.392 40.2673 109.477 39.7585 109.477 39.1818C109.477 38.6117 109.394 38.1129 109.228 37.6854C109.063 37.2545 108.817 36.9197 108.492 36.6811C108.168 36.4392 107.767 36.3182 107.289 36.3182C106.792 36.3182 106.378 36.4458 106.046 36.701C105.718 36.9529 105.471 37.2959 105.306 37.7301C105.143 38.161 105.062 38.6449 105.062 39.1818C105.062 39.7254 105.145 40.2192 105.311 40.6634C105.48 41.1042 105.728 41.4555 106.056 41.7173C106.388 41.9759 106.799 42.1051 107.289 42.1051ZM117.59 39.8778V35.3636H118.764V43H117.59V41.7074H117.511C117.332 42.0952 117.054 42.425 116.676 42.6967C116.298 42.9652 115.821 43.0994 115.244 43.0994C114.767 43.0994 114.342 42.995 113.971 42.7862C113.6 42.5741 113.308 42.2559 113.096 41.8317C112.884 41.4041 112.778 40.8655 112.778 40.2159V35.3636H113.951V40.1364C113.951 40.6932 114.107 41.1373 114.419 41.4688C114.733 41.8002 115.134 41.9659 115.622 41.9659C115.913 41.9659 116.21 41.8913 116.512 41.7422C116.817 41.593 117.072 41.3643 117.277 41.0561C117.486 40.7479 117.59 40.3551 117.59 39.8778ZM124.114 43.1591C123.379 43.1591 122.744 42.9967 122.21 42.6719C121.68 42.3438 121.271 41.8864 120.982 41.2997C120.697 40.7098 120.555 40.0237 120.555 39.2415C120.555 38.4593 120.697 37.7699 120.982 37.1733C121.271 36.5734 121.672 36.1061 122.185 35.7713C122.703 35.4332 123.306 35.2642 123.995 35.2642C124.393 35.2642 124.786 35.3305 125.173 35.4631C125.561 35.5956 125.914 35.8111 126.232 36.1094C126.551 36.4044 126.804 36.7955 126.993 37.2827C127.182 37.7699 127.276 38.3698 127.276 39.0824V39.5795H121.39V38.5653H126.083C126.083 38.1345 125.997 37.75 125.825 37.4119C125.656 37.0739 125.414 36.8071 125.099 36.6115C124.787 36.416 124.419 36.3182 123.995 36.3182C123.528 36.3182 123.123 36.4342 122.782 36.6662C122.444 36.8949 122.184 37.1932 122.002 37.5611C121.819 37.929 121.728 38.3234 121.728 38.7443V39.4205C121.728 39.9972 121.828 40.486 122.026 40.8871C122.229 41.2848 122.509 41.5881 122.867 41.7969C123.225 42.0024 123.64 42.1051 124.114 42.1051C124.423 42.1051 124.701 42.062 124.95 41.9759C125.202 41.8864 125.419 41.7538 125.601 41.5781C125.783 41.3991 125.924 41.1771 126.024 40.9119L127.157 41.2301C127.038 41.6146 126.837 41.9527 126.555 42.2443C126.274 42.5327 125.926 42.758 125.511 42.9205C125.097 43.0795 124.631 43.1591 124.114 43.1591ZM138.408 37.0739L137.354 37.3722C137.287 37.1965 137.19 37.0258 137.06 36.8601C136.935 36.6911 136.762 36.5518 136.543 36.4425C136.325 36.3331 136.045 36.2784 135.703 36.2784C135.236 36.2784 134.846 36.3861 134.535 36.6016C134.227 36.8137 134.073 37.0838 134.073 37.4119C134.073 37.7036 134.179 37.9339 134.391 38.103C134.603 38.272 134.934 38.4129 135.385 38.5256L136.519 38.804C137.201 38.9697 137.71 39.2232 138.045 39.5646C138.38 39.9027 138.547 40.3385 138.547 40.8722C138.547 41.3097 138.421 41.7008 138.169 42.0455C137.921 42.3902 137.573 42.6619 137.125 42.8608C136.678 43.0597 136.157 43.1591 135.564 43.1591C134.785 43.1591 134.14 42.9901 133.63 42.652C133.12 42.3139 132.796 41.8201 132.661 41.1705L133.774 40.892C133.88 41.303 134.081 41.6113 134.376 41.8168C134.674 42.0223 135.064 42.125 135.544 42.125C136.091 42.125 136.525 42.009 136.847 41.777C137.171 41.5417 137.334 41.2599 137.334 40.9318C137.334 40.6667 137.241 40.4446 137.055 40.2656C136.87 40.0833 136.585 39.9474 136.2 39.858L134.928 39.5597C134.228 39.3939 133.715 39.1371 133.386 38.7891C133.062 38.4377 132.899 37.9986 132.899 37.4716C132.899 37.0407 133.02 36.6596 133.262 36.3281C133.507 35.9967 133.841 35.7365 134.261 35.5476C134.686 35.3587 135.166 35.2642 135.703 35.2642C136.459 35.2642 137.052 35.4299 137.483 35.7614C137.917 36.0928 138.225 36.5303 138.408 37.0739ZM143.515 43.1591C142.779 43.1591 142.144 42.9967 141.611 42.6719C141.08 42.3438 140.671 41.8864 140.383 41.2997C140.098 40.7098 139.955 40.0237 139.955 39.2415C139.955 38.4593 140.098 37.7699 140.383 37.1733C140.671 36.5734 141.072 36.1061 141.586 35.7713C142.103 35.4332 142.706 35.2642 143.396 35.2642C143.793 35.2642 144.186 35.3305 144.574 35.4631C144.962 35.5956 145.315 35.8111 145.633 36.1094C145.951 36.4044 146.204 36.7955 146.393 37.2827C146.582 37.7699 146.677 38.3698 146.677 39.0824V39.5795H140.79V38.5653H145.484C145.484 38.1345 145.397 37.75 145.225 37.4119C145.056 37.0739 144.814 36.8071 144.499 36.6115C144.188 36.416 143.82 36.3182 143.396 36.3182C142.928 36.3182 142.524 36.4342 142.182 36.6662C141.844 36.8949 141.584 37.1932 141.402 37.5611C141.22 37.929 141.128 38.3234 141.128 38.7443V39.4205C141.128 39.9972 141.228 40.486 141.427 40.8871C141.629 41.2848 141.909 41.5881 142.267 41.7969C142.625 42.0024 143.041 42.1051 143.515 42.1051C143.823 42.1051 144.101 42.062 144.35 41.9759C144.602 41.8864 144.819 41.7538 145.001 41.5781C145.184 41.3991 145.324 41.1771 145.424 40.9119L146.557 41.2301C146.438 41.6146 146.238 41.9527 145.956 42.2443C145.674 42.5327 145.326 42.758 144.912 42.9205C144.498 43.0795 144.032 43.1591 143.515 43.1591ZM153.274 39.8778V35.3636H154.447V43H153.274V41.7074H153.195C153.016 42.0952 152.737 42.425 152.359 42.6967C151.981 42.9652 151.504 43.0994 150.927 43.0994C150.45 43.0994 150.026 42.995 149.655 42.7862C149.284 42.5741 148.992 42.2559 148.78 41.8317C148.568 41.4041 148.462 40.8655 148.462 40.2159V35.3636H149.635V40.1364C149.635 40.6932 149.791 41.1373 150.102 41.4688C150.417 41.8002 150.818 41.9659 151.305 41.9659C151.597 41.9659 151.894 41.8913 152.195 41.7422C152.5 41.593 152.755 41.3643 152.961 41.0561C153.17 40.7479 153.274 40.3551 153.274 39.8778ZM162.005 37.0739L160.951 37.3722C160.885 37.1965 160.787 37.0258 160.658 36.8601C160.532 36.6911 160.36 36.5518 160.141 36.4425C159.922 36.3331 159.642 36.2784 159.301 36.2784C158.834 36.2784 158.444 36.3861 158.133 36.6016C157.824 36.8137 157.67 37.0838 157.67 37.4119C157.67 37.7036 157.776 37.9339 157.988 38.103C158.2 38.272 158.532 38.4129 158.983 38.5256L160.116 38.804C160.799 38.9697 161.308 39.2232 161.642 39.5646C161.977 39.9027 162.145 40.3385 162.145 40.8722C162.145 41.3097 162.019 41.7008 161.767 42.0455C161.518 42.3902 161.17 42.6619 160.723 42.8608C160.275 43.0597 159.755 43.1591 159.162 43.1591C158.383 43.1591 157.738 42.9901 157.228 42.652C156.717 42.3139 156.394 41.8201 156.258 41.1705L157.372 40.892C157.478 41.303 157.678 41.6113 157.973 41.8168C158.272 42.0223 158.661 42.125 159.142 42.125C159.689 42.125 160.123 42.009 160.444 41.777C160.769 41.5417 160.932 41.2599 160.932 40.9318C160.932 40.6667 160.839 40.4446 160.653 40.2656C160.468 40.0833 160.182 39.9474 159.798 39.858L158.525 39.5597C157.826 39.3939 157.312 39.1371 156.984 38.7891C156.659 38.4377 156.497 37.9986 156.497 37.4716C156.497 37.0407 156.618 36.6596 156.86 36.3281C157.105 35.9967 157.438 35.7365 157.859 35.5476C158.283 35.3587 158.764 35.2642 159.301 35.2642C160.057 35.2642 160.65 35.4299 161.081 35.7614C161.515 36.0928 161.823 36.5303 162.005 37.0739ZM170.951 43.1591C170.235 43.1591 169.618 42.9901 169.101 42.652C168.584 42.3139 168.186 41.8482 167.908 41.255C167.63 40.6617 167.49 39.9839 167.49 39.2216C167.49 38.446 167.633 37.7616 167.918 37.1683C168.206 36.5717 168.607 36.1061 169.121 35.7713C169.638 35.4332 170.241 35.2642 170.931 35.2642C171.468 35.2642 171.951 35.3636 172.382 35.5625C172.813 35.7614 173.166 36.0398 173.441 36.3977C173.716 36.7557 173.887 37.1733 173.953 37.6506H172.78C172.691 37.3026 172.492 36.9943 172.184 36.7259C171.879 36.4541 171.468 36.3182 170.951 36.3182C170.493 36.3182 170.092 36.4375 169.747 36.6761C169.406 36.9115 169.139 37.2446 168.947 37.6754C168.758 38.103 168.664 38.6051 168.664 39.1818C168.664 39.7718 168.756 40.2855 168.942 40.723C169.131 41.1605 169.396 41.5002 169.737 41.7422C170.082 41.9841 170.487 42.1051 170.951 42.1051C171.255 42.1051 171.532 42.0521 171.781 41.946C172.029 41.84 172.24 41.6875 172.412 41.4886C172.585 41.2898 172.707 41.0511 172.78 40.7727H173.953C173.887 41.2235 173.723 41.6295 173.461 41.9908C173.203 42.3487 172.86 42.6338 172.432 42.8459C172.008 43.0547 171.514 43.1591 170.951 43.1591ZM175.669 43V35.3636H176.802V36.517H176.882C177.021 36.1392 177.273 35.8326 177.637 35.5973C178.002 35.362 178.413 35.2443 178.87 35.2443C178.956 35.2443 179.064 35.246 179.193 35.2493C179.323 35.2526 179.42 35.2576 179.487 35.2642V36.4574C179.447 36.4474 179.356 36.4325 179.213 36.4126C179.074 36.3894 178.927 36.3778 178.771 36.3778C178.4 36.3778 178.068 36.4557 177.777 36.6115C177.488 36.764 177.259 36.9761 177.09 37.2479C176.925 37.5163 176.842 37.8229 176.842 38.1676V43H175.669ZM180.878 43V35.3636H182.051V43H180.878ZM181.474 34.0909C181.245 34.0909 181.048 34.013 180.883 33.8572C180.72 33.7015 180.639 33.5142 180.639 33.2955C180.639 33.0767 180.72 32.8894 180.883 32.7337C181.048 32.5779 181.245 32.5 181.474 32.5C181.703 32.5 181.898 32.5779 182.061 32.7337C182.227 32.8894 182.309 33.0767 182.309 33.2955C182.309 33.5142 182.227 33.7015 182.061 33.8572C181.898 34.013 181.703 34.0909 181.474 34.0909ZM187.521 35.3636V36.358H183.563V35.3636H187.521ZM184.717 33.5341H185.89V40.8125C185.89 41.1439 185.938 41.3925 186.034 41.5582C186.134 41.7206 186.26 41.83 186.412 41.8864C186.568 41.9394 186.732 41.9659 186.904 41.9659C187.034 41.9659 187.14 41.9593 187.223 41.946C187.305 41.9295 187.372 41.9162 187.421 41.9062L187.66 42.9602C187.581 42.9901 187.469 43.0199 187.327 43.0497C187.184 43.0829 187.004 43.0994 186.785 43.0994C186.454 43.0994 186.129 43.0282 185.811 42.8857C185.496 42.7431 185.234 42.526 185.025 42.2344C184.82 41.9427 184.717 41.5748 184.717 41.1307V33.5341ZM192.405 43.1591C191.67 43.1591 191.035 42.9967 190.501 42.6719C189.971 42.3438 189.562 41.8864 189.273 41.2997C188.988 40.7098 188.846 40.0237 188.846 39.2415C188.846 38.4593 188.988 37.7699 189.273 37.1733C189.562 36.5734 189.963 36.1061 190.476 35.7713C190.994 35.4332 191.597 35.2642 192.286 35.2642C192.684 35.2642 193.077 35.3305 193.464 35.4631C193.852 35.5956 194.205 35.8111 194.523 36.1094C194.842 36.4044 195.095 36.7955 195.284 37.2827C195.473 37.7699 195.567 38.3698 195.567 39.0824V39.5795H189.681V38.5653H194.374C194.374 38.1345 194.288 37.75 194.116 37.4119C193.947 37.0739 193.705 36.8071 193.39 36.6115C193.078 36.416 192.71 36.3182 192.286 36.3182C191.819 36.3182 191.414 36.4342 191.073 36.6662C190.735 36.8949 190.475 37.1932 190.293 37.5611C190.11 37.929 190.019 38.3234 190.019 38.7443V39.4205C190.019 39.9972 190.119 40.486 190.317 40.8871C190.52 41.2848 190.8 41.5881 191.158 41.7969C191.516 42.0024 191.931 42.1051 192.405 42.1051C192.714 42.1051 192.992 42.062 193.241 41.9759C193.493 41.8864 193.71 41.7538 193.892 41.5781C194.074 41.3991 194.215 41.1771 194.315 40.9119L195.448 41.2301C195.329 41.6146 195.128 41.9527 194.847 42.2443C194.565 42.5327 194.217 42.758 193.802 42.9205C193.388 43.0795 192.922 43.1591 192.405 43.1591ZM191.69 34.3295L192.903 32.0227H194.275L192.724 34.3295H191.69ZM197.352 43V35.3636H198.486V36.517H198.565C198.704 36.1392 198.956 35.8326 199.321 35.5973C199.686 35.362 200.097 35.2443 200.554 35.2443C200.64 35.2443 200.748 35.246 200.877 35.2493C201.006 35.2526 201.104 35.2576 201.17 35.2642V36.4574C201.131 36.4474 201.039 36.4325 200.897 36.4126C200.758 36.3894 200.61 36.3778 200.454 36.3778C200.083 36.3778 199.752 36.4557 199.46 36.6115C199.172 36.764 198.943 36.9761 198.774 37.2479C198.608 37.5163 198.525 37.8229 198.525 38.1676V43H197.352ZM202.561 43V35.3636H203.734V43H202.561ZM203.158 34.0909C202.929 34.0909 202.732 34.013 202.566 33.8572C202.404 33.7015 202.323 33.5142 202.323 33.2955C202.323 33.0767 202.404 32.8894 202.566 32.7337C202.732 32.5779 202.929 32.5 203.158 32.5C203.386 32.5 203.582 32.5779 203.744 32.7337C203.91 32.8894 203.993 33.0767 203.993 33.2955C203.993 33.5142 203.91 33.7015 203.744 33.8572C203.582 34.013 203.386 34.0909 203.158 34.0909ZM208.986 43.1591C208.296 43.1591 207.691 42.995 207.171 42.6669C206.654 42.3388 206.25 41.8797 205.958 41.2898C205.67 40.6998 205.525 40.0104 205.525 39.2216C205.525 38.4261 205.67 37.7318 205.958 37.1385C206.25 36.5452 206.654 36.0845 207.171 35.7564C207.691 35.4283 208.296 35.2642 208.986 35.2642C209.675 35.2642 210.278 35.4283 210.795 35.7564C211.316 36.0845 211.72 36.5452 212.008 37.1385C212.3 37.7318 212.446 38.4261 212.446 39.2216C212.446 40.0104 212.3 40.6998 212.008 41.2898C211.72 41.8797 211.316 42.3388 210.795 42.6669C210.278 42.995 209.675 43.1591 208.986 43.1591ZM208.986 42.1051C209.509 42.1051 209.94 41.9709 210.278 41.7024C210.616 41.4339 210.867 41.081 211.029 40.6435C211.191 40.206 211.273 39.732 211.273 39.2216C211.273 38.7112 211.191 38.2356 211.029 37.7947C210.867 37.3539 210.616 36.9976 210.278 36.7259C209.94 36.4541 209.509 36.3182 208.986 36.3182C208.462 36.3182 208.031 36.4541 207.693 36.7259C207.355 36.9976 207.105 37.3539 206.942 37.7947C206.78 38.2356 206.699 38.7112 206.699 39.2216C206.699 39.732 206.78 40.206 206.942 40.6435C207.105 41.081 207.355 41.4339 207.693 41.7024C208.031 41.9709 208.462 42.1051 208.986 42.1051ZM219.646 37.0739L218.592 37.3722C218.526 37.1965 218.428 37.0258 218.299 36.8601C218.173 36.6911 218 36.5518 217.782 36.4425C217.563 36.3331 217.283 36.2784 216.941 36.2784C216.474 36.2784 216.085 36.3861 215.773 36.6016C215.465 36.8137 215.311 37.0838 215.311 37.4119C215.311 37.7036 215.417 37.9339 215.629 38.103C215.841 38.272 216.173 38.4129 216.623 38.5256L217.757 38.804C218.44 38.9697 218.948 39.2232 219.283 39.5646C219.618 39.9027 219.785 40.3385 219.785 40.8722C219.785 41.3097 219.659 41.7008 219.407 42.0455C219.159 42.3902 218.811 42.6619 218.363 42.8608C217.916 43.0597 217.396 43.1591 216.802 43.1591C216.023 43.1591 215.379 42.9901 214.868 42.652C214.358 42.3139 214.035 41.8201 213.899 41.1705L215.013 40.892C215.119 41.303 215.319 41.6113 215.614 41.8168C215.912 42.0223 216.302 42.125 216.782 42.125C217.329 42.125 217.763 42.009 218.085 41.777C218.41 41.5417 218.572 41.2599 218.572 40.9318C218.572 40.6667 218.479 40.4446 218.294 40.2656C218.108 40.0833 217.823 39.9474 217.439 39.858L216.166 39.5597C215.467 39.3939 214.953 39.1371 214.625 38.7891C214.3 38.4377 214.138 37.9986 214.138 37.4716C214.138 37.0407 214.258 36.6596 214.5 36.3281C214.746 35.9967 215.079 35.7365 215.5 35.5476C215.924 35.3587 216.405 35.2642 216.941 35.2642C217.697 35.2642 218.29 35.4299 218.721 35.7614C219.156 36.0928 219.464 36.5303 219.646 37.0739ZM228.372 43.1591C227.736 43.1591 227.174 42.9983 226.687 42.6768C226.2 42.352 225.819 41.8946 225.544 41.3047C225.268 40.7114 225.131 40.0104 225.131 39.2017C225.131 38.3996 225.268 37.7036 225.544 37.1136C225.819 36.5237 226.201 36.0679 226.692 35.7464C227.183 35.425 227.749 35.2642 228.392 35.2642C228.889 35.2642 229.282 35.3471 229.571 35.5128C229.862 35.6752 230.084 35.8608 230.237 36.0696C230.393 36.2751 230.514 36.4441 230.6 36.5767H230.699V32.8182H231.872V43H230.739V41.8267H230.6C230.514 41.9659 230.391 42.1416 230.232 42.3537C230.073 42.5625 229.846 42.7498 229.551 42.9155C229.256 43.0779 228.863 43.1591 228.372 43.1591ZM228.532 42.1051C229.002 42.1051 229.4 41.9825 229.725 41.7372C230.05 41.4886 230.296 41.1456 230.465 40.7081C230.634 40.2673 230.719 39.7585 230.719 39.1818C230.719 38.6117 230.636 38.1129 230.47 37.6854C230.305 37.2545 230.059 36.9197 229.735 36.6811C229.41 36.4392 229.009 36.3182 228.532 36.3182C228.034 36.3182 227.62 36.4458 227.289 36.701C226.96 36.9529 226.714 37.2959 226.548 37.7301C226.385 38.161 226.304 38.6449 226.304 39.1818C226.304 39.7254 226.387 40.2192 226.553 40.6634C226.722 41.1042 226.97 41.4555 227.299 41.7173C227.63 41.9759 228.041 42.1051 228.532 42.1051ZM237.386 43.1591C236.65 43.1591 236.015 42.9967 235.482 42.6719C234.951 42.3438 234.542 41.8864 234.254 41.2997C233.969 40.7098 233.826 40.0237 233.826 39.2415C233.826 38.4593 233.969 37.7699 234.254 37.1733C234.542 36.5734 234.943 36.1061 235.457 35.7713C235.974 35.4332 236.577 35.2642 237.267 35.2642C237.664 35.2642 238.057 35.3305 238.445 35.4631C238.833 35.5956 239.186 35.8111 239.504 36.1094C239.822 36.4044 240.076 36.7955 240.264 37.2827C240.453 37.7699 240.548 38.3698 240.548 39.0824V39.5795H234.661V38.5653H239.355C239.355 38.1345 239.268 37.75 239.096 37.4119C238.927 37.0739 238.685 36.8071 238.37 36.6115C238.059 36.416 237.691 36.3182 237.267 36.3182C236.799 36.3182 236.395 36.4342 236.054 36.6662C235.715 36.8949 235.455 37.1932 235.273 37.5611C235.091 37.929 235 38.3234 235 38.7443V39.4205C235 39.9972 235.099 40.486 235.298 40.8871C235.5 41.2848 235.78 41.5881 236.138 41.7969C236.496 42.0024 236.912 42.1051 237.386 42.1051C237.694 42.1051 237.973 42.062 238.221 41.9759C238.473 41.8864 238.69 41.7538 238.872 41.5781C239.055 41.3991 239.196 41.1771 239.295 40.9119L240.429 41.2301C240.309 41.6146 240.109 41.9527 239.827 42.2443C239.545 42.5327 239.197 42.758 238.783 42.9205C238.369 43.0795 237.903 43.1591 237.386 43.1591ZM246.27 45.8636V35.3636H247.404V36.5767H247.543C247.629 36.4441 247.748 36.2751 247.901 36.0696C248.057 35.8608 248.279 35.6752 248.567 35.5128C248.859 35.3471 249.253 35.2642 249.75 35.2642C250.393 35.2642 250.96 35.425 251.451 35.7464C251.941 36.0679 252.324 36.5237 252.599 37.1136C252.874 37.7036 253.012 38.3996 253.012 39.2017C253.012 40.0104 252.874 40.7114 252.599 41.3047C252.324 41.8946 251.943 42.352 251.456 42.6768C250.968 42.9983 250.407 43.1591 249.77 43.1591C249.28 43.1591 248.887 43.0779 248.592 42.9155C248.297 42.7498 248.07 42.5625 247.911 42.3537C247.752 42.1416 247.629 41.9659 247.543 41.8267H247.443V45.8636H246.27ZM247.424 39.1818C247.424 39.7585 247.508 40.2673 247.677 40.7081C247.846 41.1456 248.093 41.4886 248.418 41.7372C248.743 41.9825 249.14 42.1051 249.611 42.1051C250.102 42.1051 250.511 41.9759 250.839 41.7173C251.17 41.4555 251.419 41.1042 251.585 40.6634C251.754 40.2192 251.838 39.7254 251.838 39.1818C251.838 38.6449 251.755 38.161 251.59 37.7301C251.427 37.2959 251.18 36.9529 250.849 36.701C250.521 36.4458 250.108 36.3182 249.611 36.3182C249.134 36.3182 248.733 36.4392 248.408 36.6811C248.083 36.9197 247.838 37.2545 247.672 37.6854C247.506 38.1129 247.424 38.6117 247.424 39.1818ZM258.003 43.1591C257.267 43.1591 256.633 42.9967 256.099 42.6719C255.569 42.3438 255.159 41.8864 254.871 41.2997C254.586 40.7098 254.443 40.0237 254.443 39.2415C254.443 38.4593 254.586 37.7699 254.871 37.1733C255.159 36.5734 255.56 36.1061 256.074 35.7713C256.591 35.4332 257.194 35.2642 257.884 35.2642C258.282 35.2642 258.674 35.3305 259.062 35.4631C259.45 35.5956 259.803 35.8111 260.121 36.1094C260.439 36.4044 260.693 36.7955 260.882 37.2827C261.071 37.7699 261.165 38.3698 261.165 39.0824V39.5795H255.279V38.5653H259.972C259.972 38.1345 259.886 37.75 259.713 37.4119C259.544 37.0739 259.302 36.8071 258.987 36.6115C258.676 36.416 258.308 36.3182 257.884 36.3182C257.416 36.3182 257.012 36.4342 256.671 36.6662C256.333 36.8949 256.072 37.1932 255.89 37.5611C255.708 37.929 255.617 38.3234 255.617 38.7443V39.4205C255.617 39.9972 255.716 40.486 255.915 40.8871C256.117 41.2848 256.397 41.5881 256.755 41.7969C257.113 42.0024 257.529 42.1051 258.003 42.1051C258.311 42.1051 258.59 42.062 258.838 41.9759C259.09 41.8864 259.307 41.7538 259.49 41.5781C259.672 41.3991 259.813 41.1771 259.912 40.9119L261.046 41.2301C260.926 41.6146 260.726 41.9527 260.444 42.2443C260.162 42.5327 259.814 42.758 259.4 42.9205C258.986 43.0795 258.52 43.1591 258.003 43.1591ZM268.359 37.0739L267.305 37.3722C267.239 37.1965 267.141 37.0258 267.012 36.8601C266.886 36.6911 266.713 36.5518 266.495 36.4425C266.276 36.3331 265.996 36.2784 265.654 36.2784C265.187 36.2784 264.798 36.3861 264.486 36.6016C264.178 36.8137 264.024 37.0838 264.024 37.4119C264.024 37.7036 264.13 37.9339 264.342 38.103C264.554 38.272 264.885 38.4129 265.336 38.5256L266.47 38.804C267.152 38.9697 267.661 39.2232 267.996 39.5646C268.331 39.9027 268.498 40.3385 268.498 40.8722C268.498 41.3097 268.372 41.7008 268.12 42.0455C267.872 42.3902 267.524 42.6619 267.076 42.8608C266.629 43.0597 266.108 43.1591 265.515 43.1591C264.736 43.1591 264.092 42.9901 263.581 42.652C263.071 42.3139 262.748 41.8201 262.612 41.1705L263.725 40.892C263.831 41.303 264.032 41.6113 264.327 41.8168C264.625 42.0223 265.015 42.125 265.495 42.125C266.042 42.125 266.476 42.009 266.798 41.777C267.123 41.5417 267.285 41.2599 267.285 40.9318C267.285 40.6667 267.192 40.4446 267.007 40.2656C266.821 40.0833 266.536 39.9474 266.152 39.858L264.879 39.5597C264.179 39.3939 263.666 39.1371 263.338 38.7891C263.013 38.4377 262.85 37.9986 262.85 37.4716C262.85 37.0407 262.971 36.6596 263.213 36.3281C263.459 35.9967 263.792 35.7365 264.213 35.5476C264.637 35.3587 265.117 35.2642 265.654 35.2642C266.41 35.2642 267.003 35.4299 267.434 35.7614C267.868 36.0928 268.177 36.5303 268.359 37.0739ZM275.475 45.8636V41.8267H275.375C275.289 41.9659 275.166 42.1416 275.007 42.3537C274.848 42.5625 274.621 42.7498 274.326 42.9155C274.031 43.0779 273.638 43.1591 273.148 43.1591C272.511 43.1591 271.95 42.9983 271.462 42.6768C270.975 42.352 270.594 41.8946 270.319 41.3047C270.044 40.7114 269.906 40.0104 269.906 39.2017C269.906 38.3996 270.044 37.7036 270.319 37.1136C270.594 36.5237 270.977 36.0679 271.467 35.7464C271.958 35.425 272.525 35.2642 273.168 35.2642C273.665 35.2642 274.058 35.3471 274.346 35.5128C274.638 35.6752 274.86 35.8608 275.012 36.0696C275.168 36.2751 275.289 36.4441 275.375 36.5767H275.514V35.3636H276.648V45.8636H275.475ZM273.307 42.1051C273.778 42.1051 274.175 41.9825 274.5 41.7372C274.825 41.4886 275.072 41.1456 275.241 40.7081C275.41 40.2673 275.494 39.7585 275.494 39.1818C275.494 38.6117 275.412 38.1129 275.246 37.6854C275.08 37.2545 274.835 36.9197 274.51 36.6811C274.185 36.4392 273.784 36.3182 273.307 36.3182C272.81 36.3182 272.395 36.4458 272.064 36.701C271.736 36.9529 271.489 37.2959 271.323 37.7301C271.161 38.161 271.08 38.6449 271.08 39.1818C271.08 39.7254 271.162 40.2192 271.328 40.6634C271.497 41.1042 271.746 41.4555 272.074 41.7173C272.405 41.9759 272.816 42.1051 273.307 42.1051ZM283.608 39.8778V35.3636H284.781V43H283.608V41.7074H283.528C283.35 42.0952 283.071 42.425 282.693 42.6967C282.315 42.9652 281.838 43.0994 281.261 43.0994C280.784 43.0994 280.36 42.995 279.989 42.7862C279.618 42.5741 279.326 42.2559 279.114 41.8317C278.902 41.4041 278.796 40.8655 278.796 40.2159V35.3636H279.969V40.1364C279.969 40.6932 280.125 41.1373 280.436 41.4688C280.751 41.8002 281.152 41.9659 281.639 41.9659C281.931 41.9659 282.228 41.8913 282.529 41.7422C282.834 41.593 283.089 41.3643 283.295 41.0561C283.504 40.7479 283.608 40.3551 283.608 39.8778ZM286.93 43V35.3636H288.104V43H286.93ZM287.527 34.0909C287.298 34.0909 287.101 34.013 286.935 33.8572C286.773 33.7015 286.692 33.5142 286.692 33.2955C286.692 33.0767 286.773 32.8894 286.935 32.7337C287.101 32.5779 287.298 32.5 287.527 32.5C287.756 32.5 287.951 32.5779 288.114 32.7337C288.279 32.8894 288.362 33.0767 288.362 33.2955C288.362 33.5142 288.279 33.7015 288.114 33.8572C287.951 34.013 287.756 34.0909 287.527 34.0909ZM295.662 37.0739L294.608 37.3722C294.541 37.1965 294.444 37.0258 294.314 36.8601C294.188 36.6911 294.016 36.5518 293.797 36.4425C293.579 36.3331 293.299 36.2784 292.957 36.2784C292.49 36.2784 292.1 36.3861 291.789 36.6016C291.481 36.8137 291.326 37.0838 291.326 37.4119C291.326 37.7036 291.432 37.9339 291.645 38.103C291.857 38.272 292.188 38.4129 292.639 38.5256L293.772 38.804C294.455 38.9697 294.964 39.2232 295.299 39.5646C295.633 39.9027 295.801 40.3385 295.801 40.8722C295.801 41.3097 295.675 41.7008 295.423 42.0455C295.174 42.3902 294.826 42.6619 294.379 42.8608C293.932 43.0597 293.411 43.1591 292.818 43.1591C292.039 43.1591 291.394 42.9901 290.884 42.652C290.374 42.3139 290.05 41.8201 289.915 41.1705L291.028 40.892C291.134 41.303 291.335 41.6113 291.63 41.8168C291.928 42.0223 292.317 42.125 292.798 42.125C293.345 42.125 293.779 42.009 294.101 41.777C294.425 41.5417 294.588 41.2599 294.588 40.9318C294.588 40.6667 294.495 40.4446 294.309 40.2656C294.124 40.0833 293.839 39.9474 293.454 39.858L292.182 39.5597C291.482 39.3939 290.968 39.1371 290.64 38.7891C290.316 38.4377 290.153 37.9986 290.153 37.4716C290.153 37.0407 290.274 36.6596 290.516 36.3281C290.761 35.9967 291.094 35.7365 291.515 35.5476C291.94 35.3587 292.42 35.2642 292.957 35.2642C293.713 35.2642 294.306 35.4299 294.737 35.7614C295.171 36.0928 295.479 36.5303 295.662 37.0739ZM299.814 43.179C299.33 43.179 298.891 43.0878 298.497 42.9055C298.102 42.7199 297.789 42.4531 297.557 42.1051C297.325 41.7538 297.209 41.3295 297.209 40.8324C297.209 40.3949 297.295 40.0402 297.468 39.7685C297.64 39.4934 297.87 39.2779 298.159 39.1222C298.447 38.9664 298.765 38.8504 299.113 38.7741C299.465 38.6946 299.818 38.6316 300.172 38.5852C300.636 38.5256 301.012 38.4808 301.301 38.451C301.592 38.4179 301.804 38.3632 301.937 38.2869C302.073 38.2107 302.141 38.0781 302.141 37.8892V37.8494C302.141 37.3589 302.007 36.9777 301.738 36.706C301.473 36.4342 301.07 36.2983 300.53 36.2983C299.97 36.2983 299.531 36.4209 299.213 36.6662C298.894 36.9115 298.671 37.1733 298.541 37.4517L297.428 37.054C297.627 36.59 297.892 36.2287 298.223 35.9702C298.558 35.7083 298.923 35.526 299.317 35.4233C299.715 35.3172 300.106 35.2642 300.49 35.2642C300.736 35.2642 301.017 35.294 301.335 35.3537C301.657 35.41 301.967 35.5277 302.265 35.7067C302.567 35.8857 302.817 36.1558 303.016 36.517C303.215 36.8783 303.314 37.3622 303.314 37.9688V43H302.141V41.9659H302.081C302.002 42.1316 301.869 42.3089 301.684 42.4979C301.498 42.6868 301.251 42.8475 300.943 42.9801C300.634 43.1127 300.258 43.179 299.814 43.179ZM299.993 42.125C300.457 42.125 300.848 42.0339 301.166 41.8516C301.488 41.6693 301.73 41.4339 301.892 41.1456C302.058 40.8572 302.141 40.554 302.141 40.2358V39.1619C302.091 39.2216 301.982 39.2763 301.813 39.326C301.647 39.3724 301.455 39.4138 301.236 39.4503C301.021 39.4834 300.81 39.5133 300.605 39.5398C300.402 39.563 300.238 39.5829 300.112 39.5994C299.808 39.6392 299.523 39.7038 299.257 39.7933C298.996 39.8795 298.783 40.0104 298.621 40.1861C298.462 40.3584 298.382 40.5937 298.382 40.892C298.382 41.2997 298.533 41.608 298.835 41.8168C299.14 42.0223 299.526 42.125 299.993 42.125ZM312.495 43.1591C311.806 43.1591 311.201 42.995 310.681 42.6669C310.164 42.3388 309.759 41.8797 309.468 41.2898C309.179 40.6998 309.035 40.0104 309.035 39.2216C309.035 38.4261 309.179 37.7318 309.468 37.1385C309.759 36.5452 310.164 36.0845 310.681 35.7564C311.201 35.4283 311.806 35.2642 312.495 35.2642C313.185 35.2642 313.788 35.4283 314.305 35.7564C314.825 36.0845 315.23 36.5452 315.518 37.1385C315.81 37.7318 315.956 38.4261 315.956 39.2216C315.956 40.0104 315.81 40.6998 315.518 41.2898C315.23 41.8797 314.825 42.3388 314.305 42.6669C313.788 42.995 313.185 43.1591 312.495 43.1591ZM312.495 42.1051C313.019 42.1051 313.45 41.9709 313.788 41.7024C314.126 41.4339 314.376 41.081 314.539 40.6435C314.701 40.206 314.782 39.732 314.782 39.2216C314.782 38.7112 314.701 38.2356 314.539 37.7947C314.376 37.3539 314.126 36.9976 313.788 36.7259C313.45 36.4541 313.019 36.3182 312.495 36.3182C311.972 36.3182 311.541 36.4541 311.203 36.7259C310.865 36.9976 310.615 37.3539 310.452 37.7947C310.29 38.2356 310.209 38.7112 310.209 39.2216C310.209 39.732 310.29 40.206 310.452 40.6435C310.615 41.081 310.865 41.4339 311.203 41.7024C311.541 41.9709 311.972 42.1051 312.495 42.1051ZM322.559 39.8778V35.3636H323.733V43H322.559V41.7074H322.48C322.301 42.0952 322.022 42.425 321.644 42.6967C321.267 42.9652 320.789 43.0994 320.213 43.0994C319.735 43.0994 319.311 42.995 318.94 42.7862C318.569 42.5741 318.277 42.2559 318.065 41.8317C317.853 41.4041 317.747 40.8655 317.747 40.2159V35.3636H318.92V40.1364C318.92 40.6932 319.076 41.1373 319.387 41.4688C319.702 41.8002 320.103 41.9659 320.59 41.9659C320.882 41.9659 321.179 41.8913 321.48 41.7422C321.785 41.593 322.041 41.3643 322.246 41.0561C322.455 40.7479 322.559 40.3551 322.559 39.8778ZM333.22 35.3636V36.358H329.103V35.3636H333.22ZM330.336 43V34.3097C330.336 33.8722 330.439 33.5076 330.644 33.2159C330.85 32.9242 331.117 32.7055 331.445 32.5597C331.773 32.4138 332.119 32.3409 332.484 32.3409C332.772 32.3409 333.007 32.3641 333.19 32.4105C333.372 32.4569 333.508 32.5 333.597 32.5398L333.259 33.554C333.2 33.5341 333.117 33.5092 333.011 33.4794C332.908 33.4496 332.772 33.4347 332.603 33.4347C332.215 33.4347 331.935 33.5324 331.763 33.728C331.594 33.9235 331.509 34.2102 331.509 34.5881V43H330.336ZM334.864 43V35.3636H336.037V43H334.864ZM335.46 34.0909C335.232 34.0909 335.035 34.013 334.869 33.8572C334.706 33.7015 334.625 33.5142 334.625 33.2955C334.625 33.0767 334.706 32.8894 334.869 32.7337C335.035 32.5779 335.232 32.5 335.46 32.5C335.689 32.5 335.885 32.5779 336.047 32.7337C336.213 32.8894 336.296 33.0767 336.296 33.2955C336.296 33.5142 336.213 33.7015 336.047 33.8572C335.885 34.013 335.689 34.0909 335.46 34.0909ZM339.359 32.8182V43H338.186V32.8182H339.359ZM344.829 35.3636V36.358H340.872V35.3636H344.829ZM342.025 33.5341H343.199V40.8125C343.199 41.1439 343.247 41.3925 343.343 41.5582C343.442 41.7206 343.568 41.83 343.721 41.8864C343.877 41.9394 344.041 41.9659 344.213 41.9659C344.342 41.9659 344.448 41.9593 344.531 41.946C344.614 41.9295 344.68 41.9162 344.73 41.9062L344.969 42.9602C344.889 42.9901 344.778 43.0199 344.636 43.0497C344.493 43.0829 344.312 43.0994 344.094 43.0994C343.762 43.0994 343.437 43.0282 343.119 42.8857C342.804 42.7431 342.543 42.526 342.334 42.2344C342.128 41.9427 342.025 41.5748 342.025 41.1307V33.5341ZM346.594 43V35.3636H347.728V36.517H347.807C347.947 36.1392 348.199 35.8326 348.563 35.5973C348.928 35.362 349.339 35.2443 349.796 35.2443C349.882 35.2443 349.99 35.246 350.119 35.2493C350.248 35.2526 350.346 35.2576 350.413 35.2642V36.4574C350.373 36.4474 350.282 36.4325 350.139 36.4126C350 36.3894 349.852 36.3778 349.697 36.3778C349.325 36.3778 348.994 36.4557 348.702 36.6115C348.414 36.764 348.185 36.9761 348.016 37.2479C347.851 37.5163 347.768 37.8229 347.768 38.1676V43H346.594ZM354.673 43.1591C353.984 43.1591 353.379 42.995 352.859 42.6669C352.342 42.3388 351.937 41.8797 351.646 41.2898C351.357 40.6998 351.213 40.0104 351.213 39.2216C351.213 38.4261 351.357 37.7318 351.646 37.1385C351.937 36.5452 352.342 36.0845 352.859 35.7564C353.379 35.4283 353.984 35.2642 354.673 35.2642C355.363 35.2642 355.966 35.4283 356.483 35.7564C357.003 36.0845 357.408 36.5452 357.696 37.1385C357.988 37.7318 358.133 38.4261 358.133 39.2216C358.133 40.0104 357.988 40.6998 357.696 41.2898C357.408 41.8797 357.003 42.3388 356.483 42.6669C355.966 42.995 355.363 43.1591 354.673 43.1591ZM354.673 42.1051C355.197 42.1051 355.628 41.9709 355.966 41.7024C356.304 41.4339 356.554 41.081 356.717 40.6435C356.879 40.206 356.96 39.732 356.96 39.2216C356.96 38.7112 356.879 38.2356 356.717 37.7947C356.554 37.3539 356.304 36.9976 355.966 36.7259C355.628 36.4541 355.197 36.3182 354.673 36.3182C354.15 36.3182 353.719 36.4541 353.381 36.7259C353.043 36.9976 352.792 37.3539 352.63 37.7947C352.467 38.2356 352.386 38.7112 352.386 39.2216C352.386 39.732 352.467 40.206 352.63 40.6435C352.792 41.081 353.043 41.4339 353.381 41.7024C353.719 41.9709 354.15 42.1051 354.673 42.1051ZM365.334 37.0739L364.28 37.3722C364.213 37.1965 364.116 37.0258 363.986 36.8601C363.86 36.6911 363.688 36.5518 363.469 36.4425C363.25 36.3331 362.97 36.2784 362.629 36.2784C362.162 36.2784 361.772 36.3861 361.461 36.6016C361.152 36.8137 360.998 37.0838 360.998 37.4119C360.998 37.7036 361.104 37.9339 361.316 38.103C361.529 38.272 361.86 38.4129 362.311 38.5256L363.444 38.804C364.127 38.9697 364.636 39.2232 364.971 39.5646C365.305 39.9027 365.473 40.3385 365.473 40.8722C365.473 41.3097 365.347 41.7008 365.095 42.0455C364.846 42.3902 364.498 42.6619 364.051 42.8608C363.603 43.0597 363.083 43.1591 362.49 43.1591C361.711 43.1591 361.066 42.9901 360.556 42.652C360.045 42.3139 359.722 41.8201 359.586 41.1705L360.7 40.892C360.806 41.303 361.007 41.6113 361.302 41.8168C361.6 42.0223 361.989 42.125 362.47 42.125C363.017 42.125 363.451 42.009 363.772 41.777C364.097 41.5417 364.26 41.2599 364.26 40.9318C364.26 40.6667 364.167 40.4446 363.981 40.2656C363.796 40.0833 363.511 39.9474 363.126 39.858L361.853 39.5597C361.154 39.3939 360.64 39.1371 360.312 38.7891C359.987 38.4377 359.825 37.9986 359.825 37.4716C359.825 37.0407 359.946 36.6596 360.188 36.3281C360.433 35.9967 360.766 35.7365 361.187 35.5476C361.611 35.3587 362.092 35.2642 362.629 35.2642C363.385 35.2642 363.978 35.4299 364.409 35.7614C364.843 36.0928 365.151 36.5303 365.334 37.0739ZM368.094 43.0795C367.849 43.0795 367.638 42.9917 367.463 42.8161C367.287 42.6404 367.199 42.4299 367.199 42.1847C367.199 41.9394 367.287 41.7289 367.463 41.5533C367.638 41.3776 367.849 41.2898 368.094 41.2898C368.339 41.2898 368.55 41.3776 368.725 41.5533C368.901 41.7289 368.989 41.9394 368.989 42.1847C368.989 42.3471 368.947 42.4962 368.865 42.6321C368.785 42.768 368.677 42.8774 368.541 42.9602C368.409 43.0398 368.26 43.0795 368.094 43.0795Z" fill="#4A5056"/>
</svg>
