<svg width="217" height="12" viewBox="0 0 217 12" fill="none" xmlns="http://www.w3.org/2000/svg">
<path d="M8.83825 0.818182V11H7.19762L2.40004 4.06463H2.31552V11H0.471058V0.818182H2.12163L6.91424 7.75852H7.00373V0.818182H8.83825ZM14.1491 11.1491C13.3835 11.1491 12.7223 10.9901 12.1655 10.6719C11.612 10.3504 11.1861 9.89631 10.8878 9.30966C10.5895 8.7197 10.4403 8.02533 10.4403 7.22656C10.4403 6.44105 10.5895 5.75166 10.8878 5.15838C11.1894 4.56179 11.6103 4.09777 12.1506 3.76633C12.6908 3.43158 13.3255 3.2642 14.0547 3.2642C14.5253 3.2642 14.9695 3.34044 15.3871 3.4929C15.808 3.64205 16.1792 3.87405 16.5007 4.18892C16.8255 4.50379 17.0807 4.90483 17.2663 5.39205C17.4519 5.87595 17.5447 6.45265 17.5447 7.12216V7.67401H11.2855V6.46094H15.8196C15.8163 6.11624 15.7417 5.80966 15.5959 5.54119C15.45 5.26941 15.2462 5.05563 14.9844 4.89986C14.7259 4.74408 14.4242 4.66619 14.0795 4.66619C13.7116 4.66619 13.3885 4.75568 13.1101 4.93466C12.8317 5.11032 12.6146 5.34233 12.4588 5.63068C12.3063 5.91572 12.2285 6.22893 12.2251 6.57031V7.62926C12.2251 8.07339 12.3063 8.45455 12.4688 8.77273C12.6312 9.08759 12.8582 9.32955 13.1499 9.49858C13.4415 9.6643 13.7829 9.74716 14.174 9.74716C14.4358 9.74716 14.6728 9.7107 14.8849 9.63778C15.0971 9.56155 15.281 9.45052 15.4368 9.30469C15.5926 9.15885 15.7102 8.97822 15.7898 8.76278L17.4702 8.9517C17.3641 9.39583 17.1619 9.78362 16.8636 10.1151C16.5687 10.4432 16.1908 10.6984 15.7301 10.8807C15.2694 11.0597 14.7424 11.1491 14.1491 11.1491ZM20.867 6.52557V11H19.0673V3.36364H20.7875V4.66122H20.877C21.0526 4.23366 21.3327 3.89394 21.7172 3.64205C22.1049 3.39015 22.5839 3.2642 23.1539 3.2642C23.6809 3.2642 24.14 3.37689 24.5311 3.60227C24.9255 3.82765 25.2304 4.15412 25.4458 4.58168C25.6646 5.00923 25.7723 5.52794 25.769 6.13778V11H23.9693V6.41619C23.9693 5.90578 23.8367 5.50639 23.5716 5.21804C23.3097 4.92969 22.9468 4.78551 22.4828 4.78551C22.1679 4.78551 21.8878 4.85511 21.6426 4.99432C21.4006 5.13021 21.21 5.32741 21.0708 5.58594C20.935 5.84446 20.867 6.15767 20.867 6.52557ZM29.3983 6.52557V11H27.5985V0.818182H29.3585V4.66122H29.448C29.627 4.23035 29.9037 3.89062 30.2782 3.64205C30.6561 3.39015 31.1367 3.2642 31.72 3.2642C32.2503 3.2642 32.7127 3.37524 33.1071 3.5973C33.5015 3.81937 33.8064 4.14418 34.0218 4.57173C34.2406 4.99929 34.35 5.52131 34.35 6.13778V11H32.5502V6.41619C32.5502 5.90246 32.4177 5.50308 32.1525 5.21804C31.8907 4.92969 31.5228 4.78551 31.0488 4.78551C30.7306 4.78551 30.4456 4.85511 30.1937 4.99432C29.9451 5.13021 29.7496 5.32741 29.6071 5.58594C29.4679 5.84446 29.3983 6.15767 29.3983 6.52557ZM41.0517 7.78835V3.36364H42.8514V11H41.1064V9.64276H41.0268C40.8545 10.0703 40.5711 10.42 40.1767 10.6918C39.7856 10.9635 39.3033 11.0994 38.7299 11.0994C38.2295 11.0994 37.787 10.9884 37.4025 10.7663C37.0214 10.541 36.7231 10.2145 36.5076 9.78693C36.2922 9.35606 36.1845 8.8357 36.1845 8.22585V3.36364H37.9842V7.94744C37.9842 8.43134 38.1168 8.81581 38.3819 9.10085C38.6471 9.38589 38.9951 9.52841 39.426 9.52841C39.6911 9.52841 39.948 9.46378 40.1966 9.33452C40.4451 9.20526 40.649 9.01302 40.8081 8.75781C40.9705 8.49929 41.0517 8.17614 41.0517 7.78835ZM44.7021 11V3.36364H46.4222V4.66122H46.5117C46.6708 4.22372 46.9343 3.88234 47.3022 3.63707C47.6701 3.38849 48.1093 3.2642 48.6197 3.2642C49.1367 3.2642 49.5726 3.39015 49.9272 3.64205C50.2852 3.89062 50.5371 4.23035 50.6829 4.66122H50.7624C50.9315 4.23698 51.2165 3.89891 51.6175 3.64702C52.0219 3.39181 52.5008 3.2642 53.0543 3.2642C53.757 3.2642 54.3304 3.48627 54.7745 3.9304C55.2186 4.37453 55.4407 5.02249 55.4407 5.87429V11H53.636V6.1527C53.636 5.67874 53.5101 5.33239 53.2582 5.11364C53.0063 4.89157 52.698 4.78054 52.3335 4.78054C51.8993 4.78054 51.5595 4.91643 51.3143 5.18821C51.0723 5.45668 50.9513 5.80634 50.9513 6.23722V11H49.1864V6.07812C49.1864 5.68371 49.0671 5.36884 48.8285 5.13352C48.5932 4.8982 48.2849 4.78054 47.9038 4.78054C47.6452 4.78054 47.4099 4.84683 47.1978 4.9794C46.9857 5.10866 46.8166 5.29261 46.6907 5.53125C46.5647 5.76657 46.5018 6.04167 46.5018 6.35653V11H44.7021ZM64.5524 3.36364V4.75568H60.1625V3.36364H64.5524ZM61.2463 1.53409H63.046V8.70312C63.046 8.94508 63.0824 9.13068 63.1554 9.25994C63.2316 9.38589 63.331 9.47206 63.4537 9.51847C63.5763 9.56487 63.7122 9.58807 63.8613 9.58807C63.974 9.58807 64.0768 9.57978 64.1696 9.56321C64.2657 9.54664 64.3386 9.53172 64.3883 9.51847L64.6916 10.9254C64.5955 10.9586 64.4579 10.995 64.2789 11.0348C64.1033 11.0746 63.8878 11.0978 63.6326 11.1044C63.1819 11.1177 62.7759 11.0497 62.4146 10.9006C62.0533 10.7481 61.7666 10.5128 61.5545 10.1946C61.3457 9.87642 61.243 9.47869 61.2463 9.00142V1.53409ZM66.0575 11V3.36364H67.8572V11H66.0575ZM66.2713 2.35938L67.3849 0.0873579H69.1449L67.6186 2.35938H66.2713ZM73.5211 3.36364V4.75568H69.1312V3.36364H73.5211ZM70.215 1.53409H72.0147V8.70312C72.0147 8.94508 72.0512 9.13068 72.1241 9.25994C72.2003 9.38589 72.2998 9.47206 72.4224 9.51847C72.545 9.56487 72.6809 9.58807 72.8301 9.58807C72.9428 9.58807 73.0455 9.57978 73.1383 9.56321C73.2344 9.54664 73.3074 9.53172 73.3571 9.51847L73.6603 10.9254C73.5642 10.9586 73.4267 10.995 73.2477 11.0348C73.072 11.0746 72.8566 11.0978 72.6014 11.1044C72.1506 11.1177 71.7446 11.0497 71.3833 10.9006C71.0221 10.7481 70.7354 10.5128 70.5233 10.1946C70.3145 9.87642 70.2117 9.47869 70.215 9.00142V1.53409ZM79.8935 7.78835V3.36364H81.6932V11H79.9482V9.64276H79.8686C79.6963 10.0703 79.4129 10.42 79.0185 10.6918C78.6274 10.9635 78.1451 11.0994 77.5717 11.0994C77.0713 11.0994 76.6288 10.9884 76.2443 10.7663C75.8632 10.541 75.5649 10.2145 75.3494 9.78693C75.134 9.35606 75.0263 8.8357 75.0263 8.22585V3.36364H76.826V7.94744C76.826 8.43134 76.9586 8.81581 77.2237 9.10085C77.4889 9.38589 77.8369 9.52841 78.2678 9.52841C78.5329 9.52841 78.7898 9.46378 79.0384 9.33452C79.2869 9.20526 79.4908 9.01302 79.6499 8.75781C79.8123 8.49929 79.8935 8.17614 79.8935 7.78835ZM85.3436 0.818182V11H83.5439V0.818182H85.3436ZM90.5252 11.1491C89.7795 11.1491 89.1332 10.9851 88.5863 10.657C88.0394 10.3288 87.6152 9.86979 87.3136 9.27983C87.0153 8.68987 86.8661 8.00047 86.8661 7.21165C86.8661 6.42282 87.0153 5.73177 87.3136 5.13849C87.6152 4.54522 88.0394 4.08452 88.5863 3.75639C89.1332 3.42827 89.7795 3.2642 90.5252 3.2642C91.271 3.2642 91.9173 3.42827 92.4641 3.75639C93.011 4.08452 93.4336 4.54522 93.7319 5.13849C94.0335 5.73177 94.1843 6.42282 94.1843 7.21165C94.1843 8.00047 94.0335 8.68987 93.7319 9.27983C93.4336 9.86979 93.011 10.3288 92.4641 10.657C91.9173 10.9851 91.271 11.1491 90.5252 11.1491ZM90.5352 9.70739C90.9395 9.70739 91.2776 9.59635 91.5494 9.37429C91.8211 9.14891 92.0233 8.8473 92.1559 8.46946C92.2918 8.09162 92.3597 7.67069 92.3597 7.20668C92.3597 6.73935 92.2918 6.31676 92.1559 5.93892C92.0233 5.55777 91.8211 5.2545 91.5494 5.02912C91.2776 4.80374 90.9395 4.69105 90.5352 4.69105C90.1209 4.69105 89.7762 4.80374 89.5011 5.02912C89.2293 5.2545 89.0254 5.55777 88.8896 5.93892C88.757 6.31676 88.6907 6.73935 88.6907 7.20668C88.6907 7.67069 88.757 8.09162 88.8896 8.46946C89.0254 8.8473 89.2293 9.14891 89.5011 9.37429C89.7762 9.59635 90.1209 9.70739 90.5352 9.70739ZM101.382 11.1541C100.898 11.1541 100.462 11.0679 100.074 10.8956C99.6899 10.7199 99.385 10.4614 99.1596 10.12C98.9376 9.77865 98.8265 9.35772 98.8265 8.85724C98.8265 8.42637 98.9061 8.07008 99.0652 7.78835C99.2243 7.50663 99.4413 7.28125 99.7164 7.11222C99.9915 6.94318 100.301 6.81558 100.646 6.7294C100.994 6.63991 101.354 6.57528 101.725 6.53551C102.172 6.48911 102.535 6.44768 102.814 6.41122C103.092 6.37145 103.294 6.31179 103.42 6.23224C103.55 6.14938 103.614 6.02178 103.614 5.84943V5.8196C103.614 5.44508 103.503 5.15507 103.281 4.94957C103.059 4.74408 102.739 4.64134 102.322 4.64134C101.881 4.64134 101.531 4.73745 101.273 4.92969C101.017 5.12192 100.845 5.34896 100.756 5.6108L99.0751 5.37216C99.2077 4.90814 99.4264 4.52036 99.7314 4.20881C100.036 3.89394 100.409 3.65862 100.85 3.50284C101.291 3.34375 101.778 3.2642 102.312 3.2642C102.68 3.2642 103.046 3.30729 103.41 3.39347C103.775 3.47964 104.108 3.62216 104.41 3.82102C104.711 4.01657 104.953 4.28338 105.135 4.62145C105.321 4.95952 105.414 5.3821 105.414 5.8892V11H103.684V9.95099H103.624C103.515 10.1631 103.361 10.362 103.162 10.5476C102.966 10.7299 102.719 10.8774 102.421 10.9901C102.126 11.0994 101.78 11.1541 101.382 11.1541ZM101.849 9.83168C102.211 9.83168 102.524 9.76042 102.789 9.6179C103.054 9.47206 103.258 9.27983 103.4 9.04119C103.546 8.80256 103.619 8.54238 103.619 8.26065V7.3608C103.563 7.4072 103.467 7.45028 103.331 7.49006C103.198 7.52983 103.049 7.56463 102.883 7.59446C102.718 7.62429 102.554 7.6508 102.391 7.67401C102.229 7.69721 102.088 7.71709 101.969 7.73366C101.7 7.77012 101.46 7.82978 101.248 7.91264C101.036 7.9955 100.868 8.11151 100.746 8.26065C100.623 8.40649 100.562 8.59541 100.562 8.82741C100.562 9.15885 100.683 9.40909 100.925 9.57812C101.166 9.74716 101.475 9.83168 101.849 9.83168ZM110.057 11.1342C109.457 11.1342 108.921 10.9801 108.447 10.6719C107.973 10.3636 107.598 9.91619 107.323 9.32955C107.048 8.7429 106.91 8.0303 106.91 7.19176C106.91 6.34328 107.05 5.62737 107.328 5.04403C107.61 4.45739 107.989 4.01491 108.466 3.71662C108.944 3.41501 109.476 3.2642 110.062 3.2642C110.51 3.2642 110.878 3.34044 111.166 3.4929C111.454 3.64205 111.683 3.82268 111.852 4.0348C112.021 4.24361 112.152 4.44081 112.245 4.62642H112.319V0.818182H114.124V11H112.354V9.79688H112.245C112.152 9.98248 112.018 10.1797 111.842 10.3885C111.666 10.594 111.434 10.7696 111.146 10.9155C110.858 11.0613 110.495 11.1342 110.057 11.1342ZM110.559 9.65767C110.941 9.65767 111.265 9.55492 111.534 9.34943C111.802 9.14062 112.006 8.85062 112.145 8.4794C112.285 8.10819 112.354 7.67566 112.354 7.18182C112.354 6.68797 112.285 6.25876 112.145 5.89418C112.01 5.52959 111.807 5.24621 111.539 5.04403C111.274 4.84186 110.947 4.74077 110.559 4.74077C110.158 4.74077 109.824 4.84517 109.555 5.05398C109.287 5.26278 109.085 5.55114 108.949 5.91903C108.813 6.28693 108.745 6.70786 108.745 7.18182C108.745 7.65909 108.813 8.08499 108.949 8.45952C109.088 8.83073 109.292 9.12405 109.56 9.33949C109.832 9.55161 110.165 9.65767 110.559 9.65767ZM116.042 11V3.36364H117.842V11H116.042ZM116.947 2.27983C116.662 2.27983 116.416 2.18537 116.211 1.99645C116.005 1.80421 115.903 1.57386 115.903 1.3054C115.903 1.03362 116.005 0.803267 116.211 0.614346C116.416 0.422111 116.662 0.325994 116.947 0.325994C117.235 0.325994 117.48 0.422111 117.683 0.614346C117.888 0.803267 117.991 1.03362 117.991 1.3054C117.991 1.57386 117.888 1.80421 117.683 1.99645C117.48 2.18537 117.235 2.27983 116.947 2.27983ZM123.023 11.1491C122.261 11.1491 121.606 10.9818 121.059 10.647C120.516 10.3123 120.097 9.84991 119.802 9.25994C119.51 8.66667 119.364 7.9839 119.364 7.21165C119.364 6.43608 119.513 5.75166 119.812 5.15838C120.11 4.56179 120.531 4.09777 121.074 3.76633C121.621 3.43158 122.268 3.2642 123.013 3.2642C123.633 3.2642 124.182 3.37855 124.659 3.60724C125.14 3.83262 125.522 4.15246 125.807 4.56676C126.092 4.97775 126.255 5.45833 126.295 6.00852H124.574C124.505 5.64062 124.339 5.33404 124.077 5.08878C123.819 4.8402 123.472 4.71591 123.038 4.71591C122.67 4.71591 122.347 4.81534 122.069 5.0142C121.79 5.20975 121.573 5.49148 121.417 5.85938C121.265 6.22727 121.189 6.66809 121.189 7.18182C121.189 7.70218 121.265 8.14962 121.417 8.52415C121.57 8.89536 121.784 9.18205 122.059 9.38423C122.337 9.5831 122.664 9.68253 123.038 9.68253C123.303 9.68253 123.54 9.63281 123.749 9.53338C123.961 9.43063 124.139 9.28314 124.281 9.09091C124.424 8.89867 124.521 8.66501 124.574 8.38991H126.295C126.251 8.93016 126.092 9.40909 125.817 9.8267C125.542 10.241 125.168 10.5658 124.694 10.8011C124.22 11.0331 123.663 11.1491 123.023 11.1491ZM127.772 11V3.36364H129.572V11H127.772ZM128.677 2.27983C128.392 2.27983 128.147 2.18537 127.941 1.99645C127.736 1.80421 127.633 1.57386 127.633 1.3054C127.633 1.03362 127.736 0.803267 127.941 0.614346C128.147 0.422111 128.392 0.325994 128.677 0.325994C128.966 0.325994 129.211 0.422111 129.413 0.614346C129.618 0.803267 129.721 1.03362 129.721 1.3054C129.721 1.57386 129.618 1.80421 129.413 1.99645C129.211 2.18537 128.966 2.27983 128.677 2.27983ZM134.754 11.1491C134.008 11.1491 133.362 10.9851 132.815 10.657C132.268 10.3288 131.844 9.86979 131.542 9.27983C131.244 8.68987 131.095 8.00047 131.095 7.21165C131.095 6.42282 131.244 5.73177 131.542 5.13849C131.844 4.54522 132.268 4.08452 132.815 3.75639C133.362 3.42827 134.008 3.2642 134.754 3.2642C135.499 3.2642 136.146 3.42827 136.693 3.75639C137.24 4.08452 137.662 4.54522 137.96 5.13849C138.262 5.73177 138.413 6.42282 138.413 7.21165C138.413 8.00047 138.262 8.68987 137.96 9.27983C137.662 9.86979 137.24 10.3288 136.693 10.657C136.146 10.9851 135.499 11.1491 134.754 11.1491ZM134.764 9.70739C135.168 9.70739 135.506 9.59635 135.778 9.37429C136.05 9.14891 136.252 8.8473 136.384 8.46946C136.52 8.09162 136.588 7.67069 136.588 7.20668C136.588 6.73935 136.52 6.31676 136.384 5.93892C136.252 5.55777 136.05 5.2545 135.778 5.02912C135.506 4.80374 135.168 4.69105 134.764 4.69105C134.349 4.69105 134.005 4.80374 133.73 5.02912C133.458 5.2545 133.254 5.55777 133.118 5.93892C132.985 6.31676 132.919 6.73935 132.919 7.20668C132.919 7.67069 132.985 8.09162 133.118 8.46946C133.254 8.8473 133.458 9.14891 133.73 9.37429C134.005 9.59635 134.349 9.70739 134.764 9.70739ZM141.74 6.52557V11H139.94V3.36364H141.661V4.66122H141.75C141.926 4.23366 142.206 3.89394 142.59 3.64205C142.978 3.39015 143.457 3.2642 144.027 3.2642C144.554 3.2642 145.013 3.37689 145.404 3.60227C145.799 3.82765 146.103 4.15412 146.319 4.58168C146.538 5.00923 146.645 5.52794 146.642 6.13778V11H144.842V6.41619C144.842 5.90578 144.71 5.50639 144.445 5.21804C144.183 4.92969 143.82 4.78551 143.356 4.78551C143.041 4.78551 142.761 4.85511 142.516 4.99432C142.274 5.13021 142.083 5.32741 141.944 5.58594C141.808 5.84446 141.74 6.15767 141.74 6.52557ZM150.669 11.1541C150.185 11.1541 149.749 11.0679 149.362 10.8956C148.977 10.7199 148.672 10.4614 148.447 10.12C148.225 9.77865 148.114 9.35772 148.114 8.85724C148.114 8.42637 148.193 8.07008 148.352 7.78835C148.511 7.50663 148.728 7.28125 149.004 7.11222C149.279 6.94318 149.589 6.81558 149.933 6.7294C150.281 6.63991 150.641 6.57528 151.012 6.53551C151.46 6.48911 151.822 6.44768 152.101 6.41122C152.379 6.37145 152.581 6.31179 152.707 6.23224C152.837 6.14938 152.901 6.02178 152.901 5.84943V5.8196C152.901 5.44508 152.79 5.15507 152.568 4.94957C152.346 4.74408 152.026 4.64134 151.609 4.64134C151.168 4.64134 150.818 4.73745 150.56 4.92969C150.304 5.12192 150.132 5.34896 150.043 5.6108L148.362 5.37216C148.495 4.90814 148.714 4.52036 149.018 4.20881C149.323 3.89394 149.696 3.65862 150.137 3.50284C150.578 3.34375 151.065 3.2642 151.599 3.2642C151.967 3.2642 152.333 3.30729 152.697 3.39347C153.062 3.47964 153.395 3.62216 153.697 3.82102C153.998 4.01657 154.24 4.28338 154.423 4.62145C154.608 4.95952 154.701 5.3821 154.701 5.8892V11H152.971V9.95099H152.911C152.802 10.1631 152.648 10.362 152.449 10.5476C152.253 10.7299 152.006 10.8774 151.708 10.9901C151.413 11.0994 151.067 11.1541 150.669 11.1541ZM151.136 9.83168C151.498 9.83168 151.811 9.76042 152.076 9.6179C152.341 9.47206 152.545 9.27983 152.688 9.04119C152.833 8.80256 152.906 8.54238 152.906 8.26065V7.3608C152.85 7.4072 152.754 7.45028 152.618 7.49006C152.485 7.52983 152.336 7.56463 152.17 7.59446C152.005 7.62429 151.841 7.6508 151.678 7.67401C151.516 7.69721 151.375 7.71709 151.256 7.73366C150.987 7.77012 150.747 7.82978 150.535 7.91264C150.323 7.9955 150.155 8.11151 150.033 8.26065C149.91 8.40649 149.849 8.59541 149.849 8.82741C149.849 9.15885 149.97 9.40909 150.212 9.57812C150.454 9.74716 150.762 9.83168 151.136 9.83168ZM159.344 11.1342C158.745 11.1342 158.208 10.9801 157.734 10.6719C157.26 10.3636 156.885 9.91619 156.61 9.32955C156.335 8.7429 156.197 8.0303 156.197 7.19176C156.197 6.34328 156.337 5.62737 156.615 5.04403C156.897 4.45739 157.276 4.01491 157.754 3.71662C158.231 3.41501 158.763 3.2642 159.349 3.2642C159.797 3.2642 160.165 3.34044 160.453 3.4929C160.741 3.64205 160.97 3.82268 161.139 4.0348C161.308 4.24361 161.439 4.44081 161.532 4.62642H161.607V0.818182H163.411V11H161.641V9.79688H161.532C161.439 9.98248 161.305 10.1797 161.129 10.3885C160.954 10.594 160.722 10.7696 160.433 10.9155C160.145 11.0613 159.782 11.1342 159.344 11.1342ZM159.847 9.65767C160.228 9.65767 160.553 9.55492 160.821 9.34943C161.089 9.14062 161.293 8.85062 161.433 8.4794C161.572 8.10819 161.641 7.67566 161.641 7.18182C161.641 6.68797 161.572 6.25876 161.433 5.89418C161.297 5.52959 161.094 5.24621 160.826 5.04403C160.561 4.84186 160.234 4.74077 159.847 4.74077C159.446 4.74077 159.111 4.84517 158.842 5.05398C158.574 5.26278 158.372 5.55114 158.236 5.91903C158.1 6.28693 158.032 6.70786 158.032 7.18182C158.032 7.65909 158.1 8.08499 158.236 8.45952C158.375 8.83073 158.579 9.12405 158.847 9.33949C159.119 9.55161 159.452 9.65767 159.847 9.65767ZM168.66 11.1491C167.914 11.1491 167.268 10.9851 166.721 10.657C166.174 10.3288 165.75 9.86979 165.448 9.27983C165.15 8.68987 165.001 8.00047 165.001 7.21165C165.001 6.42282 165.15 5.73177 165.448 5.13849C165.75 4.54522 166.174 4.08452 166.721 3.75639C167.268 3.42827 167.914 3.2642 168.66 3.2642C169.406 3.2642 170.052 3.42827 170.599 3.75639C171.146 4.08452 171.568 4.54522 171.867 5.13849C172.168 5.73177 172.319 6.42282 172.319 7.21165C172.319 8.00047 172.168 8.68987 171.867 9.27983C171.568 9.86979 171.146 10.3288 170.599 10.657C170.052 10.9851 169.406 11.1491 168.66 11.1491ZM168.67 9.70739C169.074 9.70739 169.412 9.59635 169.684 9.37429C169.956 9.14891 170.158 8.8473 170.291 8.46946C170.427 8.09162 170.494 7.67069 170.494 7.20668C170.494 6.73935 170.427 6.31676 170.291 5.93892C170.158 5.55777 169.956 5.2545 169.684 5.02912C169.412 4.80374 169.074 4.69105 168.67 4.69105C168.256 4.69105 167.911 4.80374 167.636 5.02912C167.364 5.2545 167.16 5.55777 167.024 5.93892C166.892 6.31676 166.825 6.73935 166.825 7.20668C166.825 7.67069 166.892 8.09162 167.024 8.46946C167.16 8.8473 167.364 9.14891 167.636 9.37429C167.911 9.59635 168.256 9.70739 168.67 9.70739ZM179.517 11.1541C179.033 11.1541 178.597 11.0679 178.209 10.8956C177.825 10.7199 177.52 10.4614 177.294 10.12C177.072 9.77865 176.961 9.35772 176.961 8.85724C176.961 8.42637 177.041 8.07008 177.2 7.78835C177.359 7.50663 177.576 7.28125 177.851 7.11222C178.126 6.94318 178.436 6.81558 178.781 6.7294C179.129 6.63991 179.489 6.57528 179.86 6.53551C180.307 6.48911 180.67 6.44768 180.949 6.41122C181.227 6.37145 181.429 6.31179 181.555 6.23224C181.684 6.14938 181.749 6.02178 181.749 5.84943V5.8196C181.749 5.44508 181.638 5.15507 181.416 4.94957C181.194 4.74408 180.874 4.64134 180.456 4.64134C180.016 4.64134 179.666 4.73745 179.407 4.92969C179.152 5.12192 178.98 5.34896 178.89 5.6108L177.21 5.37216C177.342 4.90814 177.561 4.52036 177.866 4.20881C178.171 3.89394 178.544 3.65862 178.985 3.50284C179.426 3.34375 179.913 3.2642 180.446 3.2642C180.814 3.2642 181.181 3.30729 181.545 3.39347C181.91 3.47964 182.243 3.62216 182.544 3.82102C182.846 4.01657 183.088 4.28338 183.27 4.62145C183.456 4.95952 183.549 5.3821 183.549 5.8892V11H181.819V9.95099H181.759C181.65 10.1631 181.495 10.362 181.297 10.5476C181.101 10.7299 180.854 10.8774 180.556 10.9901C180.261 11.0994 179.914 11.1541 179.517 11.1541ZM179.984 9.83168C180.345 9.83168 180.658 9.76042 180.924 9.6179C181.189 9.47206 181.393 9.27983 181.535 9.04119C181.681 8.80256 181.754 8.54238 181.754 8.26065V7.3608C181.698 7.4072 181.601 7.45028 181.466 7.49006C181.333 7.52983 181.184 7.56463 181.018 7.59446C180.852 7.62429 180.688 7.6508 180.526 7.67401C180.364 7.69721 180.223 7.71709 180.103 7.73366C179.835 7.77012 179.595 7.82978 179.382 7.91264C179.17 7.9955 179.003 8.11151 178.88 8.26065C178.758 8.40649 178.696 8.59541 178.696 8.82741C178.696 9.15885 178.817 9.40909 179.059 9.57812C179.301 9.74716 179.609 9.83168 179.984 9.83168ZM185.358 11V3.36364H187.158V11H185.358ZM186.263 2.27983C185.978 2.27983 185.733 2.18537 185.527 1.99645C185.322 1.80421 185.219 1.57386 185.219 1.3054C185.219 1.03362 185.322 0.803267 185.527 0.614346C185.733 0.422111 185.978 0.325994 186.263 0.325994C186.551 0.325994 186.797 0.422111 186.999 0.614346C187.204 0.803267 187.307 1.03362 187.307 1.3054C187.307 1.57386 187.204 1.80421 186.999 1.99645C186.797 2.18537 186.551 2.27983 186.263 2.27983ZM190.808 6.52557V11H189.009V3.36364H190.729V4.66122H190.818C190.994 4.23366 191.274 3.89394 191.659 3.64205C192.046 3.39015 192.525 3.2642 193.095 3.2642C193.622 3.2642 194.081 3.37689 194.472 3.60227C194.867 3.82765 195.172 4.15412 195.387 4.58168C195.606 5.00923 195.714 5.52794 195.71 6.13778V11H193.911V6.41619C193.911 5.90578 193.778 5.50639 193.513 5.21804C193.251 4.92969 192.888 4.78551 192.424 4.78551C192.109 4.78551 191.829 4.85511 191.584 4.99432C191.342 5.13021 191.151 5.32741 191.012 5.58594C190.876 5.84446 190.808 6.15767 190.808 6.52557ZM200.374 11.1342C199.774 11.1342 199.237 10.9801 198.763 10.6719C198.289 10.3636 197.914 9.91619 197.639 9.32955C197.364 8.7429 197.227 8.0303 197.227 7.19176C197.227 6.34328 197.366 5.62737 197.644 5.04403C197.926 4.45739 198.306 4.01491 198.783 3.71662C199.26 3.41501 199.792 3.2642 200.379 3.2642C200.826 3.2642 201.194 3.34044 201.482 3.4929C201.771 3.64205 201.999 3.82268 202.169 4.0348C202.338 4.24361 202.468 4.44081 202.561 4.62642H202.636V0.818182H204.441V11H202.671V9.79688H202.561C202.468 9.98248 202.334 10.1797 202.159 10.3885C201.983 10.594 201.751 10.7696 201.463 10.9155C201.174 11.0613 200.811 11.1342 200.374 11.1342ZM200.876 9.65767C201.257 9.65767 201.582 9.55492 201.85 9.34943C202.119 9.14062 202.323 8.85062 202.462 8.4794C202.601 8.10819 202.671 7.67566 202.671 7.18182C202.671 6.68797 202.601 6.25876 202.462 5.89418C202.326 5.52959 202.124 5.24621 201.855 5.04403C201.59 4.84186 201.264 4.74077 200.876 4.74077C200.475 4.74077 200.14 4.84517 199.872 5.05398C199.603 5.26278 199.401 5.55114 199.265 5.91903C199.129 6.28693 199.061 6.70786 199.061 7.18182C199.061 7.65909 199.129 8.08499 199.265 8.45952C199.404 8.83073 199.608 9.12405 199.877 9.33949C200.148 9.55161 200.481 9.65767 200.876 9.65767ZM208.556 11.1541C208.072 11.1541 207.636 11.0679 207.248 10.8956C206.864 10.7199 206.559 10.4614 206.333 10.12C206.111 9.77865 206 9.35772 206 8.85724C206 8.42637 206.08 8.07008 206.239 7.78835C206.398 7.50663 206.615 7.28125 206.89 7.11222C207.165 6.94318 207.475 6.81558 207.82 6.7294C208.168 6.63991 208.528 6.57528 208.899 6.53551C209.346 6.48911 209.709 6.44768 209.988 6.41122C210.266 6.37145 210.468 6.31179 210.594 6.23224C210.723 6.14938 210.788 6.02178 210.788 5.84943V5.8196C210.788 5.44508 210.677 5.15507 210.455 4.94957C210.233 4.74408 209.913 4.64134 209.495 4.64134C209.055 4.64134 208.705 4.73745 208.446 4.92969C208.191 5.12192 208.019 5.34896 207.929 5.6108L206.249 5.37216C206.382 4.90814 206.6 4.52036 206.905 4.20881C207.21 3.89394 207.583 3.65862 208.024 3.50284C208.465 3.34375 208.952 3.2642 209.485 3.2642C209.853 3.2642 210.22 3.30729 210.584 3.39347C210.949 3.47964 211.282 3.62216 211.583 3.82102C211.885 4.01657 212.127 4.28338 212.309 4.62145C212.495 4.95952 212.588 5.3821 212.588 5.8892V11H210.858V9.95099H210.798C210.689 10.1631 210.534 10.362 210.336 10.5476C210.14 10.7299 209.893 10.8774 209.595 10.9901C209.3 11.0994 208.953 11.1541 208.556 11.1541ZM209.023 9.83168C209.384 9.83168 209.698 9.76042 209.963 9.6179C210.228 9.47206 210.432 9.27983 210.574 9.04119C210.72 8.80256 210.793 8.54238 210.793 8.26065V7.3608C210.737 7.4072 210.641 7.45028 210.505 7.49006C210.372 7.52983 210.223 7.56463 210.057 7.59446C209.891 7.62429 209.727 7.6508 209.565 7.67401C209.403 7.69721 209.262 7.71709 209.142 7.73366C208.874 7.77012 208.634 7.82978 208.422 7.91264C208.209 7.9955 208.042 8.11151 207.919 8.26065C207.797 8.40649 207.735 8.59541 207.735 8.82741C207.735 9.15885 207.856 9.40909 208.098 9.57812C208.34 9.74716 208.649 9.83168 209.023 9.83168ZM215.506 11.1094C215.204 11.1094 214.946 11.0033 214.73 10.7912C214.515 10.5791 214.409 10.3205 214.412 10.0156C214.409 9.71733 214.515 9.46212 214.73 9.25C214.946 9.03788 215.204 8.93182 215.506 8.93182C215.798 8.93182 216.051 9.03788 216.267 9.25C216.485 9.46212 216.596 9.71733 216.6 10.0156C216.596 10.2178 216.543 10.4018 216.441 10.5675C216.341 10.7332 216.209 10.8658 216.043 10.9652C215.881 11.0613 215.702 11.1094 215.506 11.1094Z" fill="#121316"/>
</svg>
